<svg width="24" height="24" viewBox="0 0 24 24" fill="none" xmlns="http://www.w3.org/2000/svg">
<g opacity="0.2">
<path d="M15.5 4.5L13.5 4L11.5 6L9 8.5L8 10.5L16.5 13L17 10L16.5 7L15.5 4.5Z" fill="white"/>
<path d="M6 16H5L4 17V18V19L5 20H5.5H7L8 19.5V18.5V17L7 16H6Z" fill="white"/>
</g>
<path fill-rule="evenodd" clip-rule="evenodd" d="M3.96235 9.16532C5.15864 4.70072 9.7477 2.05122 14.2123 3.24751L15.4312 3.57412C19.8958 4.7704 22.5453 9.35946 21.349 13.8241C21.1874 14.4274 20.5672 14.7854 19.9639 14.6238L12.6887 12.6744L10.2205 21.2084L8.77953 20.7916L11.2395 12.2861L4.76206 10.5504C4.15873 10.3888 3.80069 9.76865 3.96235 9.16532ZM13.1056 11.2332L15.9533 11.9962L16.0071 10.749C16.0707 9.27548 15.781 7.80815 15.1623 6.46938L14.7447 5.56589L13.1056 11.2332ZM19.9862 13.0768L17.4375 12.3939L17.5057 10.8136C17.5796 9.10121 17.243 7.39594 16.5239 5.84007L16.3833 5.53588C19.1098 6.92112 20.6382 10.0018 19.9862 13.0768ZM11.7508 4.46686C8.9504 4.58659 6.41907 6.42578 5.51617 9.1996L7.5387 9.74153C8.49699 7.66888 9.94249 5.8592 11.7508 4.46686ZM9.01172 10.1362L11.6564 10.8449L13.2873 5.20608L13.2371 5.24045C11.4244 6.48156 9.97018 8.17026 9.01172 10.1362Z" fill="white"/>
<path fill-rule="evenodd" clip-rule="evenodd" d="M9 18C9 19.6569 7.65685 21 6 21C4.34315 21 3 19.6569 3 18C3 16.3431 4.34315 15 6 15C7.65685 15 9 16.3431 9 18ZM7.5 18C7.5 18.8284 6.82843 19.5 6 19.5C5.17157 19.5 4.5 18.8284 4.5 18C4.5 17.1716 5.17157 16.5 6 16.5C6.82843 16.5 7.5 17.1716 7.5 18Z" fill="white"/>
</svg>
