<svg width="24" height="24" viewBox="0 0 24 24" fill="none" xmlns="http://www.w3.org/2000/svg">
<path opacity="0.2" d="M10 5L12 4H13L18.5 9.5L20 11.5L19 13.5L20 15.5L19 17L20 18V19.5L18.5 20.5H14.5V13L13.5 12.5H10L9.5 13.5L9 20.5H5L4 19.5L5 17L4 15L5 13.5L4 11.5L10 5Z" fill="white"/>
<path fill-rule="evenodd" clip-rule="evenodd" d="M3.47339 12.5873L3.03039 13.0303L1.96973 11.9697L10.0555 3.88389C11.1295 2.80994 12.8707 2.80994 13.9446 3.88389L19.2501 9.18935V4.5H20.7501V10.6893L22.0304 11.9697L20.9697 13.0303L20.5267 12.5873C20.3911 12.9022 20.1983 13.1866 19.9614 13.4276C20.4469 13.8836 20.7501 14.5314 20.7501 15.25C20.7501 15.9314 20.4775 16.5491 20.0354 17C20.4775 17.4509 20.7501 18.0686 20.7501 18.75C20.7501 20.1307 19.6308 21.25 18.2501 21.25H5.75006C4.36935 21.25 3.25006 20.1307 3.25006 18.75C3.25006 18.0686 3.52264 17.4509 3.9647 17C3.52264 16.5491 3.25006 15.9314 3.25006 15.25C3.25006 14.5314 3.55325 13.8836 4.03869 13.4276C3.80184 13.1866 3.60905 12.9022 3.47339 12.5873ZM11.1162 4.94455C11.6043 4.45639 12.3958 4.45639 12.8839 4.94455L14.1894 6.25H9.81072L11.1162 4.94455ZM8.31072 7.75H15.6894L17.1894 9.25H6.81072L8.31072 7.75ZM5.31072 10.75L4.75006 11.3107V11.5C4.75006 12.1904 5.30971 12.75 6.00006 12.75H8.91847C9.19934 12.1588 9.80196 11.75 10.5001 11.75H13.5001C14.1982 11.75 14.8008 12.1588 15.0817 12.75H18.0001C18.6904 12.75 19.2501 12.1904 19.2501 11.5V11.3107L18.6894 10.75H5.31072ZM8.75006 14.25V16.25H5.75006C5.19778 16.25 4.75006 15.8023 4.75006 15.25C4.75006 14.6977 5.19778 14.25 5.75006 14.25H8.75006ZM5.75006 17.75H8.75006V19.75H5.75006C5.19778 19.75 4.75006 19.3023 4.75006 18.75C4.75006 18.1977 5.19778 17.75 5.75006 17.75ZM13.7501 19.75H10.2501V13.5C10.2501 13.3619 10.362 13.25 10.5001 13.25H13.5001C13.6381 13.25 13.7501 13.3619 13.7501 13.5V19.75ZM18.2501 19.75H15.2501V17.75H18.2501C18.8023 17.75 19.2501 18.1977 19.2501 18.75C19.2501 19.3023 18.8023 19.75 18.2501 19.75ZM18.2501 16.25H15.2501V14.25H18.2501C18.8023 14.25 19.2501 14.6977 19.2501 15.25C19.2501 15.8023 18.8023 16.25 18.2501 16.25Z" fill="white"/>
</svg>
