<svg width="24" height="24" viewBox="0 0 24 24" fill="none" xmlns="http://www.w3.org/2000/svg">
<path opacity="0.2" d="M3 17.5L12 11.5L21.5 17.5L21 19H3V17.5Z" fill="white"/>
<path fill-rule="evenodd" clip-rule="evenodd" d="M10.25 7.5C10.25 6.5335 11.0335 5.75 12 5.75C12.9665 5.75 13.75 6.5335 13.75 7.5V7.61905C13.75 8.5198 13.0198 9.25 12.1191 9.25C11.6391 9.25 11.25 9.63909 11.25 10.119V11.0937L2.908 16.5342C1.45004 17.485 2.12335 19.75 3.86397 19.75H20.1361C21.8767 19.75 22.55 17.485 21.0921 16.5342L12.75 11.0937V10.6864C14.1768 10.3945 15.25 9.13209 15.25 7.61905V7.5C15.25 5.70507 13.795 4.25 12 4.25C10.2051 4.25 8.75003 5.70507 8.75003 7.5H10.25ZM3.7274 17.7906L12 12.3954L20.2727 17.7906C20.3383 17.8334 20.3642 17.8777 20.3764 17.9147C20.3907 17.9578 20.393 18.0132 20.3757 18.0712C20.3585 18.1293 20.3263 18.1744 20.2908 18.2027C20.2603 18.227 20.2145 18.25 20.1361 18.25H3.86397C3.7856 18.25 3.73974 18.227 3.70924 18.2027C3.67374 18.1744 3.64158 18.1293 3.62433 18.0712C3.60708 18.0132 3.60934 17.9578 3.62362 17.9147C3.63589 17.8777 3.66176 17.8334 3.7274 17.7906Z" fill="white"/>
</svg>
