<svg width="24" height="24" viewBox="0 0 24 24" fill="none" xmlns="http://www.w3.org/2000/svg">
<path opacity="0.2" d="M5.5 12.5L11.5 4L13 4.5V9.5L13.5 10.5H17.5L18 11V12L12.5 20L11.5 20.5L10.5 19.5V14L9.5 13.5H6.5L5.5 12.5Z" fill="white"/>
<path fill-rule="evenodd" clip-rule="evenodd" d="M12.2499 4.64182C12.2499 4.3981 11.9368 4.29843 11.7959 4.49731L6.22973 12.3555C6.11245 12.5211 6.23084 12.75 6.43373 12.75H9.49995C10.4664 12.75 11.2499 13.5335 11.2499 14.5V19.3582C11.2499 19.6019 11.5631 19.7016 11.704 19.5027L17.2702 11.6445C17.3874 11.4789 17.2691 11.25 17.0662 11.25H13.9999C13.0334 11.25 12.2499 10.4665 12.2499 9.5V4.64182ZM10.5719 3.63029C11.558 2.23814 13.7499 2.93581 13.7499 4.64182V9.5C13.7499 9.63807 13.8619 9.75 13.9999 9.75H17.0662C18.4864 9.75 19.3151 11.3526 18.4942 12.5115L12.928 20.3697C11.9419 21.7619 9.74995 21.0642 9.74995 19.3582V14.5C9.74995 14.3619 9.63802 14.25 9.49995 14.25H6.43373C5.01349 14.25 4.18477 12.6474 5.00569 11.4885L10.5719 3.63029Z" fill="white"/>
</svg>
