<svg width="24" height="24" viewBox="0 0 24 24" fill="none" xmlns="http://www.w3.org/2000/svg">
<path opacity="0.2" d="M20 8.5H4C3.44772 8.5 3 8.94772 3 9.5V12.8964C3 13.1192 3.26929 13.2307 3.42678 13.0732C3.47366 13.0263 3.53725 13 3.60355 13H4.26393C4.41918 13 4.57229 13.0361 4.71115 13.1056L5.20186 13.3509C5.39539 13.4477 5.55231 13.6046 5.64907 13.7981L5.89443 14.2889C5.96385 14.4277 6 14.5808 6 14.7361V15.5V20C6 20.5523 6.44772 21 7 21H7.5C8.05228 21 8.5 20.5523 8.5 20V16.1231C8.5 16.0413 8.51003 15.9599 8.52986 15.8806L8.95799 14.168C8.98579 14.0568 9.0325 13.9512 9.09608 13.8559L9.85269 12.721C9.94922 12.5762 10.0819 12.4591 10.2375 12.3812L11.4809 11.7595C11.8019 11.599 12.1843 11.6228 12.4829 11.8219L13.4176 12.4451C13.4724 12.4816 13.5235 12.5235 13.57 12.57L14.5 13.5L15.2071 14.2071C15.3946 14.3946 15.5 14.649 15.5 14.9142V16V20C15.5 20.5523 15.9477 21 16.5 21H17C17.5523 21 18 20.5523 18 20V15.1623C18 15.0548 18.0173 14.948 18.0513 14.846L18.369 13.893C18.4529 13.6414 18.6333 13.4334 18.8705 13.3148L19.1749 13.1626C19.383 13.0585 19.6241 13.0414 19.8449 13.115C20.4131 13.3044 21 12.8814 21 12.2824V9.5C21 8.94772 20.5523 8.5 20 8.5Z" fill="white"/>
<path d="M7 5.25C6.58579 5.25 6.25 5.58579 6.25 6C6.25 6.41421 6.58579 6.75 7 6.75H8C8.41421 6.75 8.75 6.41421 8.75 6C8.75 5.58579 8.41421 5.25 8 5.25H7Z" fill="white"/>
<path d="M11.5 5.25C11.0858 5.25 10.75 5.58579 10.75 6C10.75 6.41421 11.0858 6.75 11.5 6.75H12.5C12.9142 6.75 13.25 6.41421 13.25 6C13.25 5.58579 12.9142 5.25 12.5 5.25H11.5Z" fill="white"/>
<path d="M16 5.25C15.5858 5.25 15.25 5.58579 15.25 6C15.25 6.41421 15.5858 6.75 16 6.75H17C17.4142 6.75 17.75 6.41421 17.75 6C17.75 5.58579 17.4142 5.25 17 5.25H16Z" fill="white"/>
<path fill-rule="evenodd" clip-rule="evenodd" d="M4 2.25C3.0335 2.25 2.25 3.0335 2.25 4V20C2.25 20.9665 3.0335 21.75 4 21.75H20C20.9665 21.75 21.75 20.9665 21.75 20V4C21.75 3.0335 20.9665 2.25 20 2.25H4ZM3.75 20C3.75 20.1381 3.86193 20.25 4 20.25H5.25V14.5C5.25 14.0858 4.91421 13.75 4.5 13.75C4.08579 13.75 3.75 14.0858 3.75 14.5V20ZM3.75 12.378C3.98458 12.2951 4.23702 12.25 4.5 12.25C5.74264 12.25 6.75 13.2574 6.75 14.5V20.25H7.75V15.6449C7.75 15.1044 7.87586 14.5712 8.11761 14.0877C8.64613 13.0307 9.46512 12.1463 10.4785 11.5383L11.0996 11.1656C11.6538 10.8331 12.3462 10.8331 12.9004 11.1656L13.5215 11.5383C14.5349 12.1463 15.3539 13.0307 15.8824 14.0877C16.1241 14.5712 16.25 15.1044 16.25 15.6449V20.25H17.25V14.5C17.25 13.2574 18.2574 12.25 19.5 12.25C19.763 12.25 20.0154 12.2951 20.25 12.378V9.25H3.75V12.378ZM20.25 14.5V20C20.25 20.1381 20.1381 20.25 20 20.25H18.75V14.5C18.75 14.0858 19.0858 13.75 19.5 13.75C19.9142 13.75 20.25 14.0858 20.25 14.5ZM20.25 7.75H3.75V4C3.75 3.86193 3.86193 3.75 4 3.75H20C20.1381 3.75 20.25 3.86193 20.25 4V7.75ZM9.25 20.25H14.75V18.25H9.25V20.25ZM11.8714 12.4518C11.9505 12.4043 12.0495 12.4043 12.1286 12.4518L12.7497 12.8245C13.5185 13.2858 14.1398 13.9567 14.5408 14.7586C14.6784 15.0338 14.75 15.3372 14.75 15.6449V16.75H9.25V15.6449C9.25 15.3372 9.32164 15.0338 9.45925 14.7586C9.86019 13.9567 10.4815 13.2858 11.2503 12.8245L11.8714 12.4518Z" fill="white"/>
</svg>
