<svg width="24" height="24" viewBox="0 0 24 24" fill="none" xmlns="http://www.w3.org/2000/svg">
<path opacity="0.2" d="M12 8L14 7.5H15.5L15 6.5L15.5 5.5L16.5 4.5L18 5L19 5.5V6.5V7.5L18 8L17.5 8.5L17 10L16.5 11L15.5 12.5L16.5 13L17 14.5L16 16L14 19L11 18L13 15V14L10 12L11 9.5L12 8Z" fill="white"/>
<path d="M18.1775 5.66866C18.5413 5.81271 18.718 6.22573 18.5709 6.58839L18.3331 7.17486C18.3182 7.21148 18.2765 7.22913 18.2399 7.21427C17.7159 7.00174 17.1188 7.25424 16.9063 7.77823L16.7347 8.20119C16.579 8.58503 16.764 9.0224 17.1478 9.17809C17.5317 9.33377 17.9691 9.14881 18.1247 8.76497L18.1449 8.71521C18.8093 8.76704 19.4593 8.38914 19.7231 7.73865L19.961 7.15217C20.4213 6.01729 19.8683 4.72476 18.7296 4.27397L17.6699 3.85445C16.5151 3.3973 15.2081 3.96019 14.7469 5.11332L14.6068 5.46346C14.4431 5.87266 14.4412 6.31322 14.5778 6.70716C13.0057 6.49685 11.4304 7.23641 10.5965 8.61104L4.30456 5.81464L3.69536 7.18535L12.6954 11.1854L13.3046 9.81464L11.9855 9.22837C12.6526 8.29878 13.8914 7.90977 14.9985 8.35882L15.3369 8.49606C15.7207 8.65175 16.1581 8.46679 16.3138 8.08295L16.4855 7.65964C16.6771 7.18718 16.5166 6.645 16.0988 6.35293C15.9925 6.27865 15.9514 6.14094 15.9995 6.02055L16.1396 5.67041C16.2939 5.28452 16.7313 5.09615 17.1177 5.24913L18.1775 5.66866Z" fill="white"/>
<path d="M2.74365 15.7048L17.1531 20.9446C18.7052 21.509 20.4437 20.9916 21.4346 19.6704L21.6 19.45L20.4 18.55L20.2346 18.7704C19.6401 19.5631 18.597 19.8736 17.6657 19.535L15.175 18.6292L17.1521 15.8047C17.9075 14.7256 17.7906 13.2649 16.8798 12.3198L17.1671 11.6017C18.0606 12.6382 19.3699 13.25 20.7647 13.25H21V11.75H20.7647C19.6231 11.75 18.5652 11.151 17.9779 10.1721L17.6431 9.61412C17.4965 9.36979 17.2241 9.22963 16.9401 9.25239C16.656 9.27515 16.4094 9.45689 16.3036 9.72145L15.3036 12.2215C15.1922 12.5 15.2575 12.8182 15.4696 13.0303L15.7831 13.3438C16.212 13.7727 16.2711 14.4476 15.9233 14.9445L13.7155 18.0985L12.2356 17.5604L14.1103 14.9359C14.351 14.5989 14.2729 14.1305 13.9359 13.8897L10.4359 11.3897L9.56403 12.6103L12.4537 14.6744L10.7724 17.0283L3.25627 14.2951L2.74365 15.7048Z" fill="white"/>
</svg>
