<svg width="24" height="24" viewBox="0 0 24 24" fill="none" xmlns="http://www.w3.org/2000/svg">
<path opacity="0.2" d="M9.5 7L7.5 8.5L5.5 11L6.5 12H17L18.5 11.5L18 10L15 7.5L12 6.5L9.5 7Z" fill="white"/>
<path fill-rule="evenodd" clip-rule="evenodd" d="M14.0727 5.98637C14.9471 4.87751 16.5516 4.66393 17.6871 5.51634C18.8303 6.37465 19.0685 7.99127 18.2273 9.14202L18.8368 9.92562C19.7308 11.0751 18.9117 12.75 17.4554 12.75H12.7501V18.25H21.0001V19.75H18.2501V21.5H16.7501V19.75H7.75006V21.5H6.25006V19.75H3.00006V18.25H5.1894L2.96973 16.0304L4.03039 14.9697L7.31072 18.25H11.2501V12.75H6.86857C5.47086 12.75 4.63717 11.1923 5.41249 10.0293L6.28027 8.72761C7.07994 7.5281 8.23648 6.61035 9.58632 6.10417C11.0297 5.56291 12.6095 5.52364 14.0727 5.98637ZM15.5767 6.63603C15.9483 6.42723 16.4237 6.44358 16.7865 6.71592C17.1579 6.99475 17.3046 7.46185 17.1935 7.88493C16.7159 7.39398 16.1714 6.9736 15.5767 6.63603ZM13.8871 7.50866C12.6704 7.05241 11.3297 7.05241 10.113 7.50866C9.05771 7.9044 8.15353 8.62189 7.52835 9.55966L6.66056 10.8613C6.5498 11.0275 6.6689 11.25 6.86857 11.25H17.4554C17.6635 11.25 17.7805 11.0107 17.6528 10.8465L16.5353 9.40985C15.8834 8.57159 15.0118 7.93042 14.0175 7.55754L13.8871 7.50866Z" fill="white"/>
</svg>
