<svg width="24" height="24" viewBox="0 0 24 24" fill="none" xmlns="http://www.w3.org/2000/svg">
<g opacity="0.2">
<path d="M11.0722 11.6111L8.3721 15.4684C8.14577 15.7918 8.13078 16.218 8.33384 16.5564L9.23551 18.0592C9.3996 18.3327 9.69514 18.5 10.0141 18.5C10.3177 18.5 10.6011 18.3483 10.7695 18.0957L12.2031 15.9453C12.3886 15.6671 12.7008 15.5 13.0352 15.5H13.6958C14.4812 15.5 14.96 14.636 14.5438 13.97L13.1906 11.805C13.0674 11.6078 12.8794 11.4598 12.6588 11.3863L12.2077 11.2359C11.7879 11.096 11.326 11.2486 11.0722 11.6111Z" fill="white"/>
<path d="M12 6V4.3198C12 3.84312 12.3365 3.43271 12.8039 3.33922L13.9752 3.10496C14.3031 3.03939 14.642 3.14201 14.8784 3.37843L15.2071 3.70711C15.3946 3.89464 15.649 4 15.9142 4H16.2639C16.4192 4 16.5723 4.03615 16.7111 4.10557L16.9472 4.22361C17.286 4.393 17.5 4.73926 17.5 5.11803V6.26393C17.5 6.41918 17.4639 6.57229 17.3944 6.71115L17.2764 6.94721C17.107 7.286 16.7607 7.5 16.382 7.5H16.2361C16.0808 7.5 15.9277 7.46385 15.7889 7.39443L15.2111 7.10557C15.0723 7.03615 14.9192 7 14.7639 7H13C12.4477 7 12 6.55228 12 6Z" fill="white"/>
</g>
<path fill-rule="evenodd" clip-rule="evenodd" d="M13 2.25C12.0335 2.25 11.25 3.0335 11.25 4V10.5254C11.0124 10.6334 10.7943 10.7974 10.616 11.0177L3.13982 20.2529C2.88761 20.5645 2.75 20.9532 2.75 21.354V21.5H4.25V21.354C4.25 21.2968 4.26966 21.2412 4.30569 21.1967L7.67474 17.035L8.57598 18.2967C9.27391 19.2738 10.7261 19.2738 11.424 18.2967L12.8112 16.3547C12.8581 16.289 12.9339 16.25 13.0146 16.25H15.4381L19.1989 21.186C19.232 21.2296 19.25 21.2828 19.25 21.3376V21.5H20.75V21.3376C20.75 20.9544 20.6242 20.5818 20.392 20.277L13.3682 11.0582C13.1967 10.8331 12.9839 10.6629 12.75 10.548V7.75H14.5C14.5871 7.75 14.6728 7.74363 14.7565 7.73134C15.0737 8.05161 15.5137 8.25 16 8.25H16.5C17.4665 8.25 18.25 7.4665 18.25 6.5V5C18.25 4.0335 17.4665 3.25 16.5 3.25H16.0816C15.8007 2.65876 15.1981 2.25 14.5 2.25H13ZM14.2952 14.75L12.175 11.9673C12.0768 11.8384 11.8838 11.8355 11.7819 11.9615L8.65402 15.8253L9.79658 17.4248C9.89628 17.5644 10.1037 17.5644 10.2034 17.4248L11.5906 15.4828C11.9191 15.0229 12.4495 14.75 13.0146 14.75H14.2952ZM16.25 4.75V6C16.25 6.2684 16.1896 6.52269 16.0816 6.75H16.5C16.6381 6.75 16.75 6.63807 16.75 6.5V5C16.75 4.86193 16.6381 4.75 16.5 4.75H16.25ZM14.5 6.25H12.75V4C12.75 3.86193 12.8619 3.75 13 3.75H14.5C14.6381 3.75 14.75 3.86193 14.75 4V6C14.75 6.13807 14.6381 6.25 14.5 6.25Z" fill="white"/>
</svg>
