<svg width="24" height="24" viewBox="0 0 24 24" fill="none" xmlns="http://www.w3.org/2000/svg">
<path opacity="0.2" d="M10.5 6L6.5 21H15L18.5 8.5L17.5 8L18 5L17.5 4.5L13.5 3.5H12.5L11.5 6.5L10.5 6Z" fill="white"/>
<path fill-rule="evenodd" clip-rule="evenodd" d="M11.5306 3.77179C11.7808 2.83822 12.7404 2.2842 13.674 2.53435L17.5377 3.56963C18.4712 3.81978 19.0252 4.77937 18.7751 5.71293L18.3869 7.16182C18.3649 7.24383 18.3374 7.3229 18.305 7.39876L20.0125 7.85629L19.6243 9.30517L18.8999 9.11108L18.3823 11.0429L19.1067 11.237L18.7185 12.6859L17.994 12.4918L17.347 14.9066L18.0714 15.1007L17.6832 16.5496L16.9588 16.3555L16.3117 18.7703L17.0361 18.9644L16.6479 20.4133L15.9235 20.2192L15.8479 20.5013H22V22.0013H2V20.5013H6.01277L6.74719 17.7604L6.02272 17.5663L6.41095 16.1174L7.13542 16.3116L7.78247 13.8967L7.058 13.7026L7.44623 12.2537L8.1707 12.4478L8.81775 10.033L8.09328 9.8389L8.48151 8.39001L9.20598 8.58414L9.72361 6.6523L8.9991 6.45816L9.38733 5.00928L11.0948 5.4668C11.1047 5.38489 11.1204 5.30268 11.1424 5.22068L11.5306 3.77179ZM11.1725 7.04053L10.6549 8.97236L11.6208 9.23118L12.1384 7.29934L11.1725 7.04053ZM13.5873 7.68757L13.0697 9.61941L14.5186 10.0076L15.0362 8.0758L13.5873 7.68757ZM16.4851 8.46403L15.9675 10.3959L16.9334 10.6547L17.451 8.72285L16.4851 8.46403ZM16.5452 12.1036L15.5792 11.8448L14.9322 14.2596L15.8981 14.5184L16.5452 12.1036ZM15.5099 15.9673L14.544 15.7085L13.8969 18.1233L14.8628 18.3821L15.5099 15.9673ZM14.4746 19.831L8.19608 18.1487L7.56568 20.5013H14.295L14.4746 19.831ZM8.58431 16.6998L9.55024 16.9586L10.1973 14.5438L9.23136 14.285L8.58431 16.6998ZM9.61959 12.8361L10.5855 13.0949L11.2326 10.6801L10.2666 10.4213L9.61959 12.8361ZM12.6815 11.0683L12.0344 13.4831L13.4833 13.8713L14.1303 11.4565L12.6815 11.0683ZM13.0951 15.3202L11.6462 14.932L10.9991 17.3468L12.448 17.7351L13.0951 15.3202ZM13.2857 3.98324C13.1524 3.94751 13.0153 4.02665 12.9795 4.16002L12.5913 5.60891C12.5556 5.74227 12.6347 5.87936 12.7681 5.91509L16.6318 6.95037C16.7652 6.9861 16.9022 6.90696 16.938 6.77359L17.3262 5.3247C17.3619 5.19134 17.2828 5.05425 17.1494 5.01852L13.2857 3.98324Z" fill="white"/>
</svg>
