<svg width="24" height="24" viewBox="0 0 24 24" fill="none" xmlns="http://www.w3.org/2000/svg">
<path opacity="0.2" d="M10 5L12 4H13L18.5 9.5L20 11.5L19 13.5L20 15.5L19 17L20 18V19.5L18.5 20.5H14.5V13L13.5 12.5H10L9.5 13.5L9 20.5H5L4 19.5L5 17L4 15L5 13.5L4 11.5L10 5Z" fill="#131313"/>
<path fill-rule="evenodd" clip-rule="evenodd" d="M3.47339 12.5873L3.03039 13.0303L1.96973 11.9696L10.0555 3.88383C11.1295 2.80988 12.8707 2.80988 13.9446 3.88383L19.2501 9.18929V4.49994H20.7501V10.6893L22.0304 11.9696L20.9697 13.0303L20.5267 12.5873C20.3911 12.9021 20.1983 13.1865 19.9614 13.4275C20.4469 13.8835 20.7501 14.5313 20.7501 15.2499C20.7501 15.9313 20.4775 16.549 20.0354 16.9999C20.4775 17.4509 20.7501 18.0686 20.7501 18.7499C20.7501 20.1307 19.6308 21.2499 18.2501 21.2499H5.75006C4.36935 21.2499 3.25006 20.1307 3.25006 18.7499C3.25006 18.0686 3.52264 17.4509 3.9647 16.9999C3.52264 16.549 3.25006 15.9313 3.25006 15.2499C3.25006 14.5313 3.55325 13.8835 4.03869 13.4275C3.80184 13.1865 3.60905 12.9021 3.47339 12.5873ZM11.1162 4.94449C11.6043 4.45633 12.3958 4.45633 12.8839 4.94449L14.1894 6.24994H9.81072L11.1162 4.94449ZM8.31072 7.74994H15.6894L17.1894 9.24994H6.81072L8.31072 7.74994ZM5.31072 10.7499L4.75006 11.3106V11.4999C4.75006 12.1903 5.30971 12.7499 6.00006 12.7499H8.91847C9.19934 12.1587 9.80196 11.7499 10.5001 11.7499H13.5001C14.1982 11.7499 14.8008 12.1587 15.0817 12.7499H18.0001C18.6904 12.7499 19.2501 12.1903 19.2501 11.4999V11.3106L18.6894 10.7499H5.31072ZM8.75006 14.2499V16.2499H5.75006C5.19778 16.2499 4.75006 15.8022 4.75006 15.2499C4.75006 14.6977 5.19778 14.2499 5.75006 14.2499H8.75006ZM5.75006 17.7499H8.75006V19.7499H5.75006C5.19778 19.7499 4.75006 19.3022 4.75006 18.7499C4.75006 18.1977 5.19778 17.7499 5.75006 17.7499ZM13.7501 19.7499H10.2501V13.4999C10.2501 13.3619 10.362 13.2499 10.5001 13.2499H13.5001C13.6381 13.2499 13.7501 13.3619 13.7501 13.4999V19.7499ZM18.2501 19.7499H15.2501V17.7499H18.2501C18.8023 17.7499 19.2501 18.1977 19.2501 18.7499C19.2501 19.3022 18.8023 19.7499 18.2501 19.7499ZM18.2501 16.2499H15.2501V14.2499H18.2501C18.8023 14.2499 19.2501 14.6977 19.2501 15.2499C19.2501 15.8022 18.8023 16.2499 18.2501 16.2499Z" fill="#131313"/>
</svg>
