<svg width="24" height="24" viewBox="0 0 24 24" fill="none" xmlns="http://www.w3.org/2000/svg">
<path opacity="0.2" d="M4 18.5L4.91702 10.7053C4.96671 10.2829 5.2781 9.9382 5.69324 9.84595L9.00787 9.10936C9.3174 9.04058 9.57597 8.82907 9.70475 8.53931L11.4246 4.66967C11.4744 4.55752 11.5445 4.45549 11.6313 4.36871L12.0144 3.98564C12.3069 3.69306 12.7495 3.61089 13.1276 3.77894L16.6215 5.33177C16.8638 5.43949 17.0535 5.63907 17.1487 5.88661L19.5 12L20.3944 13.7889C20.4639 13.9277 20.5 14.0808 20.5 14.2361V17V18.7639C20.5 18.9192 20.4639 19.0723 20.3944 19.2111L20.2764 19.4472C20.107 19.786 19.7607 20 19.382 20H19H16C15.4477 20 15 19.5523 15 19V18.1623C15 18.0548 14.9827 17.948 14.9487 17.8461L14.5747 16.724C14.5256 16.5767 14.4429 16.4429 14.3331 16.3331L13.6959 15.6959C13.5677 15.5677 13.4071 15.4768 13.2313 15.4328L11.7825 15.0706C11.598 15.0245 11.4042 15.0319 11.2237 15.0921L10.393 15.369C10.1414 15.4529 9.93337 15.6333 9.81476 15.8705L9.10557 17.2889C9.03615 17.4277 9 17.5808 9 17.7361V19.5C9 19.7761 8.77614 20 8.5 20H5.5H5C4.44772 20 4 19.5523 4 19V18.5Z" fill="#131313"/>
<path fill-rule="evenodd" clip-rule="evenodd" d="M10.9221 4.05894C11.3091 3.20763 12.297 2.81097 13.1652 3.15826L16.8862 4.64667C17.3252 4.82226 17.6745 5.168 17.8545 5.60519L21.1182 13.5315C21.2053 13.7429 21.2501 13.9692 21.2501 14.1978V19C21.2501 19.9665 20.4666 20.75 19.5001 20.75H4.66125C3.59135 20.75 2.7719 19.7984 2.93061 18.7404L4.15652 10.5676C4.2639 9.8518 4.80091 9.27594 5.50753 9.11891L8.85036 8.37606C8.92702 8.35902 8.99123 8.30695 9.02372 8.23546L10.9221 4.05894ZM12.6081 4.55098C12.4841 4.50136 12.343 4.55803 12.2877 4.67965L10.3893 8.85617C10.1618 9.35661 9.71239 9.72109 9.17576 9.84034L5.83293 10.5832C5.73198 10.6056 5.65526 10.6879 5.63992 10.7902L5.19595 13.75H6.50006C6.91427 13.75 7.25006 14.0858 7.25006 14.5C7.25006 14.9142 6.91427 15.25 6.50006 15.25H5.00006C4.99034 15.25 4.98066 15.2498 4.97103 15.2494L4.41401 18.9629C4.39134 19.114 4.50841 19.25 4.66125 19.25H8.25006V18C8.25006 15.9289 9.92899 14.25 12.0001 14.25C14.0711 14.25 15.7501 15.9289 15.7501 18V19.25H19.5001C19.6381 19.25 19.7501 19.138 19.7501 19V14.1978C19.7501 14.1651 19.7437 14.1328 19.7312 14.1026L19.586 13.75H17.0001C16.5858 13.75 16.2501 13.4142 16.2501 13C16.2501 12.5858 16.5858 12.25 17.0001 12.25H18.9684L18.3507 10.75L14.0001 10.75C13.5858 10.75 13.2501 10.4142 13.2501 10C13.2501 9.58579 13.5858 9.25 14.0001 9.25L17.7331 9.25L16.4675 6.17631C16.4417 6.11386 16.3918 6.06447 16.3291 6.03938L12.6081 4.55098ZM14.2501 18V19.25H9.75006V18C9.75006 16.7574 10.7574 15.75 12.0001 15.75C13.2427 15.75 14.2501 16.7574 14.2501 18Z" fill="#131313"/>
</svg>
