<svg width="24" height="24" viewBox="0 0 24 24" fill="none" xmlns="http://www.w3.org/2000/svg">
<path opacity="0.2" d="M11 17.5H2V16C2 15.4477 2.44772 15 3 15H4.5C5.05228 15 5.5 14.5523 5.5 14V6.59901C5.5 6.53316 5.5065 6.46747 5.51942 6.4029L5.91877 4.40616C5.97078 4.1461 6.12397 3.91734 6.34465 3.77023L7.09306 3.27129C7.34982 3.10011 7.67123 3.05707 7.96399 3.15465L8.77605 3.42534C8.92332 3.47443 9.05715 3.55714 9.16693 3.66692L10.2071 4.7071C10.3946 4.89464 10.5 5.14899 10.5 5.41421V10L14.5 7L19 10.5V15L19.3131 15C19.5666 15 19.6935 15.3065 19.5143 15.4857C19.5048 15.4952 19.4959 15.5054 19.4879 15.5162L18 17.5L16.3002 19.6247C16.1105 19.8619 15.8232 20 15.5194 20H13.3333L16.6667 15H16V12L15.5 11.5H13.5L13 12V15H12.6667L11 17.5Z" fill="#131313"/>
<path fill-rule="evenodd" clip-rule="evenodd" d="M4.75 14.25V5.5C4.75 3.70507 6.20507 2.25 8 2.25C9.79493 2.25 11.25 3.70507 11.25 5.5V8.5L13.4423 6.85574C14.0709 6.38433 14.9366 6.38961 15.5593 6.86865L18.25 8.93839V7H19.75V10.0922L21.4573 11.4055L20.5427 12.5945L19.75 11.9847V14.25H20C20.9665 14.25 21.75 15.0335 21.75 16V19C21.75 19.9665 20.9665 20.75 20 20.75H2V19.25H8.63953L9.43953 18.25H2V16.75H10.6395L11.4395 15.75H2V14.25H4.75ZM6.25 5.5C6.25 4.5335 7.0335 3.75 8 3.75C8.9665 3.75 9.75 4.5335 9.75 5.5V14.25H6.25V5.5ZM18.25 14.25V10.8308L14.6448 8.05759C14.5558 7.98915 14.4321 7.9884 14.3423 8.05574L11.25 10.375V14.25H12.25V12.5C12.25 11.5335 13.0335 10.75 14 10.75H15.1429C16.0305 10.75 16.75 11.4695 16.75 12.3571V14.25H18.25ZM15.25 14.25H13.75V12.5C13.75 12.3619 13.8619 12.25 14 12.25H15.1429C15.202 12.25 15.25 12.298 15.25 12.3571V14.25ZM12.1395 19.25H10.5605L13.3605 15.75H14.9395L12.1395 19.25ZM14.0605 19.25L16.8605 15.75H18.4395L15.6395 19.25H14.0605ZM17.5605 19.25L20.233 15.9093C20.244 15.9374 20.25 15.968 20.25 16V19C20.25 19.1381 20.1381 19.25 20 19.25H17.5605Z" fill="#131313"/>
</svg>
