<svg width="24" height="24" viewBox="0 0 24 24" fill="none" xmlns="http://www.w3.org/2000/svg">
<path opacity="0.2" d="M19 11H5V19.5L6 20.5H18L19 19.5V11Z" fill="#131313"/>
<path fill-rule="evenodd" clip-rule="evenodd" d="M3.75947 10.25C3.83615 9.24216 4.3725 8.3628 5.15933 7.82113C4.8385 7.31739 4.65214 6.71884 4.65214 6.07721C4.65214 4.28228 6.10721 2.82721 7.90214 2.82721C9.69706 2.82721 11.1521 4.28228 11.1521 6.07721C11.1521 6.67158 10.9923 7.22885 10.7138 7.70808C11.3536 7.98471 11.9421 8.38143 12.4445 8.8839L12.5134 8.95274C12.9191 9.35844 13.294 9.79209 13.6357 10.25H21V11.75H19.75V19.5C19.75 20.4665 18.9665 21.25 18 21.25H6C5.0335 21.25 4.25 20.4665 4.25 19.5V11.75H3V10.25H3.75947ZM6.15214 6.07721C6.15214 5.11071 6.93564 4.32721 7.90214 4.32721C8.86864 4.32721 9.65214 5.11071 9.65214 6.07721C9.65214 6.54771 9.46714 6.97449 9.1641 7.28967C8.94483 7.26338 8.7231 7.25002 8.5 7.25002V8.75002C9.58167 8.75002 10.619 9.17971 11.3839 9.94456L11.4527 10.0134C11.5304 10.0911 11.6068 10.17 11.6819 10.25H5.26772C5.38904 9.40193 6.11839 8.75002 7 8.75002V7.25002C6.87252 7.25002 6.74675 7.25736 6.6231 7.27164C6.3302 6.95828 6.15214 6.53893 6.15214 6.07721ZM12.851 11.75C13.16 12.2316 13.4293 12.739 13.6557 13.2673L14.3106 14.7955L15.6894 14.2046L15.0344 12.6764C14.8992 12.3608 14.7505 12.0518 14.5891 11.75H18.25V19.5C18.25 19.6381 18.1381 19.75 18 19.75H6C5.86193 19.75 5.75 19.6381 5.75 19.5V11.75H12.851Z" fill="#131313"/>
<path d="M15.632 4.55902C15.874 4.07496 16 3.54119 16 3H17.5C17.5 3.77406 17.3198 4.53749 16.9736 5.22984L16.0347 7.10749C15.6828 7.80903 15.5 8.1735 15.5 9H14C14 7.89712 14.2568 7.30939 14.75 6.32295L15.632 4.55902Z" fill="#131313"/>
<path d="M19 3C19 3.54119 18.874 4.07496 18.632 4.55902L17.75 6.32295C17.2568 7.30939 17 7.89712 17 9H18.5C18.5 8.1735 18.6828 7.80903 19.0347 7.10749L19.9736 5.22984C20.3198 4.53749 20.5 3.77406 20.5 3H19Z" fill="#131313"/>
</svg>
