<svg width="24" height="24" viewBox="0 0 24 24" fill="none" xmlns="http://www.w3.org/2000/svg">
<g opacity="0.2">
<path d="M3.5 8.5L5.5 5H18.5L21 9L20 10H3.5V8.5Z" fill="#131313"/>
<path d="M9.5 16.5H4V19.5L4.5 20H9.5V16.5Z" fill="#131313"/>
<path d="M20 16.5H14.5V20H19.5L20 19.5V16.5Z" fill="#131313"/>
</g>
<path fill-rule="evenodd" clip-rule="evenodd" d="M4.45868 5.27779C3.72929 4.78327 3.25 3.94761 3.25 3H4.75C4.75 3.69036 5.30964 4.25 6 4.25H18C18.6904 4.25 19.25 3.69036 19.25 3H20.75C20.75 3.94761 20.2707 4.78327 19.5413 5.27779L21.2344 8.09963C21.734 8.93223 21.4489 9.92662 20.75 10.4276V19C20.75 19.9665 19.9665 20.75 19 20.75H5C4.0335 20.75 3.25 19.9665 3.25 19V10.4276C2.55115 9.92662 2.26602 8.93223 2.76558 8.09963L4.45868 5.27779ZM5.92524 5.749C5.95008 5.74967 5.975 5.75 6 5.75H18C18.025 5.75 18.0499 5.74967 18.0748 5.749L19.9482 8.87138C20.0482 9.03801 19.9281 9.25 19.7338 9.25H4.26619C4.07187 9.25 3.95184 9.03801 4.05182 8.87138L5.92524 5.749ZM4.75 10.75V15.75H8.75V14C8.75 13.0335 9.5335 12.25 10.5 12.25H13.5C14.4665 12.25 15.25 13.0335 15.25 14V15.75H19.25V10.75H4.75ZM19.25 17.25H15.25V19.25H19C19.1381 19.25 19.25 19.1381 19.25 19V17.25ZM13.75 19.25V14C13.75 13.8619 13.6381 13.75 13.5 13.75H10.5C10.3619 13.75 10.25 13.8619 10.25 14V19.25H13.75ZM8.75 19.25V17.25H4.75V19C4.75 19.1381 4.86193 19.25 5 19.25H8.75Z" fill="#131313"/>
</svg>
