<svg width="24" height="24" viewBox="0 0 24 24" fill="none" xmlns="http://www.w3.org/2000/svg">
<g opacity="0.2">
<path d="M4.5 20.5V14V13.5H19.5V20.5H15V15.5H9V20.5H4.5Z" fill="#131313"/>
<path d="M7 9.5V6.5H17V9.5H7Z" fill="#131313"/>
</g>
<path fill-rule="evenodd" clip-rule="evenodd" d="M12.3555 3.08965C12.1336 2.97012 11.8664 2.97012 11.6444 3.08965L5.31088 6.5H5.08111C4.81517 6.5 4.62739 6.23946 4.71148 5.98717L3.28846 5.51283C2.8806 6.73642 3.79134 8 5.08111 8H5.49997C5.62409 8 5.74626 7.9692 5.85555 7.91035L6.24997 7.69797V9H5.69997C5.34919 9 5.04526 9.24314 4.96826 9.58537L4.8009 10.3292C4.65158 10.9929 4.29778 11.5929 3.78935 12.0449L2.5017 13.1894C2.26897 13.3963 2.18827 13.7255 2.29893 14.0165C2.40959 14.3076 2.68859 14.5 2.99997 14.5H3.74997V20.75C3.74997 21.1642 4.08576 21.5 4.49997 21.5H19.5C19.9142 21.5 20.25 21.1642 20.25 20.75V14.5H21C21.3114 14.5 21.5904 14.3076 21.701 14.0165C21.8117 13.7255 21.731 13.3963 21.4982 13.1894L20.2106 12.0449C19.7022 11.5929 19.3484 10.9929 19.199 10.3292L19.0317 9.58537C18.9547 9.24314 18.6508 9 18.3 9H17.75V7.69797L18.1444 7.91035C18.2537 7.9692 18.3759 8 18.5 8H18.9188C20.2086 8 21.1193 6.73642 20.7115 5.51283L19.2885 5.98717C19.3726 6.23946 19.1848 6.5 18.9188 6.5H18.6891L12.3555 3.08965ZM14.5966 6L12 4.60182L9.40334 6H14.5966ZM8.99997 15C8.58576 15 8.24997 15.3358 8.24997 15.75V20H5.24997V14.5H18.75V20H15.75V15.75C15.75 15.3358 15.4142 15 15 15H8.99997ZM14.25 20V16.5H12.75V20H14.25ZM11.25 20V16.5H9.74997V20H11.25ZM16.25 9V7.5H14.75V9H16.25ZM13.25 9V7.5H10.75V9H13.25ZM9.24997 9V7.5H7.74997V9H9.24997ZM6.26432 10.6585L6.29997 10.5H17.7L17.7356 10.6585C17.9361 11.5493 18.3885 12.3617 19.0367 13H4.96327C5.61139 12.3617 6.06389 11.5493 6.26432 10.6585Z" fill="#131313"/>
</svg>
