<svg width="24" height="24" viewBox="0 0 24 24" fill="none" xmlns="http://www.w3.org/2000/svg">
<path opacity="0.2" fill-rule="evenodd" clip-rule="evenodd" d="M7 4.5L5 6.5L4 9V11.5L5.5 13.5L7.5 14.5L9.5 15H11.5L12.5 14.5V17.5H15.5L18 20.5H20V17.5L14 12.5L15 10.5V8L13.5 6L11.5 4.5L9 4L7 4.5ZM8 7H9.5L10 8V9.5L8.5 10H7.5L7 9.5V8L8 7Z" fill="#131313"/>
<path fill-rule="evenodd" clip-rule="evenodd" d="M8.5 6.25C7.25736 6.25 6.25 7.25736 6.25 8.5C6.25 9.74264 7.25736 10.75 8.5 10.75C9.74264 10.75 10.75 9.74264 10.75 8.5C10.75 7.25736 9.74264 6.25 8.5 6.25ZM7.75 8.5C7.75 8.08579 8.08579 7.75 8.5 7.75C8.91421 7.75 9.25 8.08579 9.25 8.5C9.25 8.91421 8.91421 9.25 8.5 9.25C8.08579 9.25 7.75 8.91421 7.75 8.5Z" fill="#131313"/>
<path fill-rule="evenodd" clip-rule="evenodd" d="M11.75 15.3325C11.051 15.6024 10.2919 15.75 9.5 15.75C6.04822 15.75 3.25 12.9518 3.25 9.5C3.25 6.04822 6.04822 3.25 9.5 3.25C12.9518 3.25 15.75 6.04822 15.75 9.5C15.75 10.4298 15.5466 11.3128 15.182 12.1064L20.75 17.1682V20.75H17.1395L15.1395 18.25H11.75V15.3325ZM4.75 9.5C4.75 6.87665 6.87665 4.75 9.5 4.75C12.1234 4.75 14.25 6.87665 14.25 9.5C14.25 10.6203 13.8631 11.6481 13.2151 12.4602L14.2477 13.2842L19.25 17.8318V19.25H17.8605L15.8605 16.75H13.25V13.5H11.75V13.6691C11.6276 13.7477 11.5164 13.8072 11.3267 13.8863C10.7654 14.1204 10.1488 14.25 9.5 14.25C6.87665 14.25 4.75 12.1234 4.75 9.5Z" fill="#131313"/>
</svg>
