<svg width="24" height="24" viewBox="0 0 24 24" fill="none" xmlns="http://www.w3.org/2000/svg">
<path opacity="0.2" fill-rule="evenodd" clip-rule="evenodd" d="M4.60557 4.28885L4.72361 4.05279C4.893 3.714 5.23926 3.5 5.61803 3.5H18.0858C18.351 3.5 18.6054 3.60536 18.7929 3.79289L19.2071 4.20711C19.3946 4.39464 19.5 4.649 19.5 4.91421V19.0858C19.5 19.351 19.3946 19.6054 19.2071 19.7929L18.7929 20.2071C18.6054 20.3946 18.351 20.5 18.0858 20.5H5.91421C5.649 20.5 5.39464 20.3946 5.20711 20.2071L4.79289 19.7929C4.60536 19.6054 4.5 19.351 4.5 19.0858V4.73607C4.5 4.58082 4.53615 4.42771 4.60557 4.28885ZM11 8C11 9.10457 10.1046 10 9 10C7.89543 10 7 9.10457 7 8C7 6.89543 7.89543 6 9 6C10.1046 6 11 6.89543 11 8ZM15 10C16.1046 10 17 9.10457 17 8C17 6.89543 16.1046 6 15 6C13.8954 6 13 6.89543 13 8C13 9.10457 13.8954 10 15 10ZM17 14C17 15.1046 16.1046 16 15 16C13.8954 16 13 15.1046 13 14C13 12.8954 13.8954 12 15 12C16.1046 12 17 12.8954 17 14ZM9 16C10.1046 16 11 15.1046 11 14C11 12.8954 10.1046 12 9 12C7.89543 12 7 12.8954 7 14C7 15.1046 7.89543 16 9 16Z" fill="#131313"/>
<path fill-rule="evenodd" clip-rule="evenodd" d="M9 5.25C7.48122 5.25 6.25 6.48122 6.25 8C6.25 9.51878 7.48122 10.75 9 10.75C10.5188 10.75 11.75 9.51878 11.75 8C11.75 6.48122 10.5188 5.25 9 5.25ZM7.75 8C7.75 7.30964 8.30964 6.75 9 6.75C9.69036 6.75 10.25 7.30964 10.25 8C10.25 8.69036 9.69036 9.25 9 9.25C8.30964 9.25 7.75 8.69036 7.75 8Z" fill="#131313"/>
<path fill-rule="evenodd" clip-rule="evenodd" d="M12.25 8C12.25 6.48122 13.4812 5.25 15 5.25C16.5188 5.25 17.75 6.48122 17.75 8C17.75 9.51878 16.5188 10.75 15 10.75C13.4812 10.75 12.25 9.51878 12.25 8ZM15 6.75C14.3096 6.75 13.75 7.30964 13.75 8C13.75 8.69036 14.3096 9.25 15 9.25C15.6904 9.25 16.25 8.69036 16.25 8C16.25 7.30964 15.6904 6.75 15 6.75Z" fill="#131313"/>
<path fill-rule="evenodd" clip-rule="evenodd" d="M9 11.25C7.48122 11.25 6.25 12.4812 6.25 14C6.25 15.5188 7.48122 16.75 9 16.75C10.5188 16.75 11.75 15.5188 11.75 14C11.75 12.4812 10.5188 11.25 9 11.25ZM7.75 14C7.75 13.3096 8.30964 12.75 9 12.75C9.69036 12.75 10.25 13.3096 10.25 14C10.25 14.6904 9.69036 15.25 9 15.25C8.30964 15.25 7.75 14.6904 7.75 14Z" fill="#131313"/>
<path fill-rule="evenodd" clip-rule="evenodd" d="M12.25 14C12.25 12.4812 13.4812 11.25 15 11.25C16.5188 11.25 17.75 12.4812 17.75 14C17.75 15.5188 16.5188 16.75 15 16.75C13.4812 16.75 12.25 15.5188 12.25 14ZM15 12.75C14.3096 12.75 13.75 13.3096 13.75 14C13.75 14.6904 14.3096 15.25 15 15.25C15.6904 15.25 16.25 14.6904 16.25 14C16.25 13.3096 15.6904 12.75 15 12.75Z" fill="#131313"/>
<path d="M7 17.75C6.58579 17.75 6.25 18.0858 6.25 18.5C6.25 18.9142 6.58579 19.25 7 19.25H7.5C7.91421 19.25 8.25 18.9142 8.25 18.5C8.25 18.0858 7.91421 17.75 7.5 17.75H7Z" fill="#131313"/>
<path d="M10 17.75C9.58579 17.75 9.25 18.0858 9.25 18.5C9.25 18.9142 9.58579 19.25 10 19.25H10.5C10.9142 19.25 11.25 18.9142 11.25 18.5C11.25 18.0858 10.9142 17.75 10.5 17.75H10Z" fill="#131313"/>
<path d="M13.5 17.75C13.0858 17.75 12.75 18.0858 12.75 18.5C12.75 18.9142 13.0858 19.25 13.5 19.25H14C14.4142 19.25 14.75 18.9142 14.75 18.5C14.75 18.0858 14.4142 17.75 14 17.75H13.5Z" fill="#131313"/>
<path d="M16.5 17.75C16.0858 17.75 15.75 18.0858 15.75 18.5C15.75 18.9142 16.0858 19.25 16.5 19.25H17C17.4142 19.25 17.75 18.9142 17.75 18.5C17.75 18.0858 17.4142 17.75 17 17.75H16.5Z" fill="#131313"/>
<path fill-rule="evenodd" clip-rule="evenodd" d="M5.5 2.75C4.5335 2.75 3.75 3.5335 3.75 4.5V19.5C3.75 20.4665 4.5335 21.25 5.5 21.25H18.5C19.4665 21.25 20.25 20.4665 20.25 19.5V4.5C20.25 3.5335 19.4665 2.75 18.5 2.75H5.5ZM5.25 4.5C5.25 4.36193 5.36193 4.25 5.5 4.25H18.5C18.6381 4.25 18.75 4.36193 18.75 4.5V19.5C18.75 19.6381 18.6381 19.75 18.5 19.75H5.5C5.36193 19.75 5.25 19.6381 5.25 19.5V4.5Z" fill="#131313"/>
</svg>
