<svg width="24" height="24" viewBox="0 0 24 24" fill="none" xmlns="http://www.w3.org/2000/svg">
<path opacity="0.2" d="M6.5 5V19.5H9.5V11.5L10 11H14L14.5 11.5V19.5H17.5V8L8 3.5H7L6.5 5Z" fill="#131313"/>
<path d="M9.54999 8.50006C9.9642 8.50006 10.3 8.16427 10.3 7.75006C10.3 7.33585 9.9642 7.00006 9.54999 7.00006C9.13577 7.00006 8.79999 7.33585 8.79999 7.75006C8.79999 8.16427 9.13577 8.50006 9.54999 8.50006Z" fill="#131313"/>
<path fill-rule="evenodd" clip-rule="evenodd" d="M8.22415 2.95991L16.75 6.83529V3.00005H18.25V18.75H21V20.25H18.25V21.5H16.75V20.25H7.25V21.5H5.75V20.25H3V18.75H5.75V4.55305C5.75 3.28029 7.06548 2.43324 8.22415 2.95991ZM7.25 4.55305C7.25 4.37123 7.43792 4.25022 7.60345 4.32546L16.75 8.48298V18.75H15.25V12.0001C15.25 11.0336 14.4665 10.2501 13.5 10.2501H10.5C9.5335 10.2501 8.75 11.0336 8.75 12.0001V18.75H7.25V4.55305ZM13.75 17.2501V18.75H10.25V17.2501H13.75ZM13.75 15.7501V12.0001C13.75 11.862 13.6381 11.7501 13.5 11.7501H10.5C10.3619 11.7501 10.25 11.862 10.25 12.0001V15.7501H13.75Z" fill="#131313"/>
</svg>
