<svg width="24" height="24" viewBox="0 0 24 24" fill="none" xmlns="http://www.w3.org/2000/svg">
<path d="M9.54999 8.5C9.9642 8.5 10.3 8.16421 10.3 7.75C10.3 7.33579 9.9642 7 9.54999 7C9.13577 7 8.79999 7.33579 8.79999 7.75C8.79999 8.16421 9.13577 8.5 9.54999 8.5Z" fill="white"/>
<path fill-rule="evenodd" clip-rule="evenodd" d="M8.22415 2.95985L16.75 6.83523V2.99999H18.25V18.75H21V20.25H18.25V21.5H16.75V20.25H7.25V21.5H5.75V20.25H3V18.75H5.75V4.55299C5.75 3.28023 7.06548 2.43318 8.22415 2.95985ZM7.25 4.55299C7.25 4.37117 7.43792 4.25016 7.60345 4.3254L16.75 8.48292V18.75H15.25V12C15.25 11.0335 14.4665 10.25 13.5 10.25H10.5C9.5335 10.25 8.75 11.0335 8.75 12V18.75H7.25V4.55299ZM13.75 17.25V18.75H10.25V17.25H13.75ZM13.75 15.75V12C13.75 11.8619 13.6381 11.75 13.5 11.75H10.5C10.3619 11.75 10.25 11.8619 10.25 12V15.75H13.75Z" fill="white"/>
</svg>
