<svg width="24" height="24" viewBox="0 0 24 24" fill="none" xmlns="http://www.w3.org/2000/svg">
<path fill-rule="evenodd" clip-rule="evenodd" d="M10.0086 4.00347C11.0924 2.86554 12.9076 2.86554 13.9914 4.00347L20.9339 11.2931C21.995 12.4073 21.2053 14.25 19.6667 14.25H19.25V19C19.25 19.9665 18.4665 20.75 17.5 20.75H6.50001C5.53351 20.75 4.75001 19.9665 4.75001 19V14.25H4.33335C2.79476 14.25 2.00501 12.4073 3.0661 11.2931L10.0086 4.00347ZM12.9052 5.03796C12.4126 4.52071 11.5875 4.52071 11.0948 5.03796L9.1787 7.0499C9.25652 7.06406 9.33617 7.07127 9.41666 7.07127C9.74963 7.07127 10.0682 6.94777 10.3024 6.72051C10.8042 6.23361 11.451 6.00002 12.0833 6.00002C12.7157 6.00002 13.3624 6.23361 13.8642 6.72051C14.0984 6.94777 14.417 7.07127 14.75 7.07127C14.7798 7.07127 14.8094 7.07029 14.8389 7.06833L12.9052 5.03796ZM7.27076 9.05324L8.12818 8.15295C8.52875 8.38628 8.97619 8.49961 9.41666 8.49961C10.049 8.49961 10.6958 8.26602 11.1976 7.77912C11.4318 7.55186 11.7504 7.42836 12.0833 7.42836C12.4163 7.42836 12.7349 7.55186 12.9691 7.77912C13.4709 8.26602 14.1176 8.49961 14.75 8.49961C15.1508 8.49961 15.5574 8.40578 15.9291 8.21309L16.7598 9.08525C16.3529 9.19266 15.9634 9.40258 15.6358 9.72051C15.4016 9.94777 15.083 10.0713 14.75 10.0713C14.417 10.0713 14.0984 9.94777 13.8642 9.72051C13.3624 9.23361 12.7157 9.00002 12.0833 9.00002C11.451 9.00002 10.8042 9.23361 10.3024 9.72051C10.0682 9.94777 9.74963 10.0713 9.41666 10.0713C9.0837 10.0713 8.7651 9.94777 8.53089 9.72051C8.16686 9.36728 7.72653 9.14737 7.27076 9.05324ZM18.3024 10.7791C18.4053 10.8789 18.5142 10.968 18.6278 11.0467L19.8477 12.3276C19.9993 12.4868 19.8865 12.75 19.6667 12.75H4.33335C4.11355 12.75 4.00073 12.4868 4.15231 12.3276L5.17066 11.2583C5.41942 11.1419 5.65448 10.9826 5.86422 10.7791C6.09843 10.5519 6.41703 10.4284 6.75 10.4284C7.08296 10.4284 7.40156 10.5519 7.63577 10.7791C8.13756 11.266 8.7843 11.4996 9.41666 11.4996C10.049 11.4996 10.6958 11.266 11.1976 10.7791C11.4318 10.5519 11.7504 10.4284 12.0833 10.4284C12.4163 10.4284 12.7349 10.5519 12.9691 10.7791C13.4709 11.266 14.1176 11.4996 14.75 11.4996C15.3824 11.4996 16.0291 11.266 16.5309 10.7791C16.7651 10.5519 17.0837 10.4284 17.4167 10.4284C17.7496 10.4284 18.0682 10.5519 18.3024 10.7791ZM6.25001 14.25V19C6.25001 19.1381 6.36194 19.25 6.50001 19.25H9.25V17.5C9.25 15.9812 10.4812 14.75 12 14.75C13.5188 14.75 14.75 15.9812 14.75 17.5V19.25H17.5C17.6381 19.25 17.75 19.1381 17.75 19V14.25H6.25001ZM13.25 19.25V17.5C13.25 16.8096 12.6904 16.25 12 16.25C11.3096 16.25 10.75 16.8096 10.75 17.5V19.25H13.25Z" fill="white"/>
</svg>
