<svg width="24" height="24" viewBox="0 0 24 24" fill="none" xmlns="http://www.w3.org/2000/svg">
<path opacity="0.2" d="M17.5 9H6.5C5.94772 9 5.5 9.44771 5.5 10V19.382C5.5 19.7607 5.714 20.107 6.05279 20.2764L6.28885 20.3944C6.42771 20.4639 6.58082 20.5 6.73607 20.5H17.2639C17.4192 20.5 17.5723 20.4639 17.7111 20.3944L17.9472 20.2764C18.286 20.107 18.5 19.7607 18.5 19.382V10C18.5 9.44772 18.0523 9 17.5 9Z" fill="#131313"/>
<path fill-rule="evenodd" clip-rule="evenodd" d="M4.75 4.5C4.75 3.5335 5.5335 2.75 6.5 2.75H17.5C18.4665 2.75 19.25 3.5335 19.25 4.5V19.5C19.25 20.4665 18.4665 21.25 17.5 21.25H6.5C5.5335 21.25 4.75 20.4665 4.75 19.5V4.5ZM6.5 4.25C6.36193 4.25 6.25 4.36193 6.25 4.5V8.25H17.75V4.5C17.75 4.36193 17.6381 4.25 17.5 4.25H6.5ZM17.75 9.75H6.25V19.5C6.25 19.6381 6.36193 19.75 6.5 19.75H17.5C17.6381 19.75 17.75 19.6381 17.75 19.5V9.75ZM7.25 6C7.25 5.58579 7.58579 5.25 8 5.25H8.5C8.91421 5.25 9.25 5.58579 9.25 6C9.25 6.41421 8.91421 6.75 8.5 6.75H8C7.58579 6.75 7.25 6.41421 7.25 6ZM7.25 12C7.25 11.5858 7.58579 11.25 8 11.25H8.5C8.91421 11.25 9.25 11.5858 9.25 12C9.25 12.4142 8.91421 12.75 8.5 12.75H8C7.58579 12.75 7.25 12.4142 7.25 12Z" fill="#131313"/>
</svg>
