<svg width="24" height="24" viewBox="0 0 24 24" fill="none" xmlns="http://www.w3.org/2000/svg">
<path fill-rule="evenodd" clip-rule="evenodd" d="M4 3.25C3.0335 3.25 2.25 4.0335 2.25 5V5.5C2.25 6.38162 2.90193 7.11097 3.75 7.23228V12.75H3V14.25H3.75V19C3.75 19.9665 4.5335 20.75 5.5 20.75H18.5C19.4665 20.75 20.25 19.9665 20.25 19V14.25H21V12.75H20.25V7.23228C21.0981 7.11097 21.75 6.38162 21.75 5.5V5C21.75 4.0335 20.9665 3.25 20 3.25H4ZM3.75 5C3.75 4.86193 3.86193 4.75 4 4.75H20C20.1381 4.75 20.25 4.86193 20.25 5V5.5C20.25 5.63807 20.1381 5.75 20 5.75H4C3.86193 5.75 3.75 5.63807 3.75 5.5V5ZM5.25 12.75V7.25H18.75V12.75H17.75V11C17.75 9.48122 16.5188 8.25 15 8.25C13.4812 8.25 12.25 9.48122 12.25 11V12.75H11.75V11C11.75 9.48122 10.5188 8.25 9 8.25C7.48122 8.25 6.25 9.48122 6.25 11V12.75H5.25ZM7.75 12.75H10.25V11C10.25 10.3096 9.69036 9.75 9 9.75C8.30964 9.75 7.75 10.3096 7.75 11V12.75ZM13.75 12.75H16.25V11C16.25 10.3096 15.6904 9.75 15 9.75C14.3096 9.75 13.75 10.3096 13.75 11V12.75ZM5.25 14.25H18.75V19C18.75 19.1381 18.6381 19.25 18.5 19.25H17.75V18C17.75 16.4812 16.5188 15.25 15 15.25C13.4812 15.25 12.25 16.4812 12.25 18V19.25H11.75V18C11.75 16.4812 10.5188 15.25 9 15.25C7.48122 15.25 6.25 16.4812 6.25 18V19.25H5.5C5.36193 19.25 5.25 19.1381 5.25 19V14.25ZM7.75 19.25H10.25V18C10.25 17.3096 9.69036 16.75 9 16.75C8.30964 16.75 7.75 17.3096 7.75 18V19.25ZM13.75 19.25H16.25V18C16.25 17.3096 15.6904 16.75 15 16.75C14.3096 16.75 13.75 17.3096 13.75 18V19.25Z" fill="#131313"/>
</svg>
