<svg width="24" height="24" viewBox="0 0 24 24" fill="none" xmlns="http://www.w3.org/2000/svg">
<path fill-rule="evenodd" clip-rule="evenodd" d="M6.25 3V6.63953L4.23691 8.25H3.5C3.36193 8.25 3.25 8.13807 3.25 8V7.5H1.75V8C1.75 8.9665 2.5335 9.75 3.5 9.75H3.75V18.25H2.5V19.75H3.75V21H5.25V19.75H6.25V21H7.75V19.75H16.25V21H17.75V19.75H18.75V21H20.25V19.75H21.5V18.25H20.25V9.75H20.5C21.4665 9.75 22.25 8.9665 22.25 8V7.5H20.75V8C20.75 8.13807 20.6381 8.25 20.5 8.25H19.7631L17.75 6.63953V3H16.25V4.25H7.75V3H6.25ZM7.75 5.75V7.36047L6.63809 8.25H17.3619L16.25 7.36047V5.75H7.75ZM18.75 9.75H5.25V10.75H18.75V9.75ZM6.25 18.25H5.25V12.25H6.25V18.25ZM7.75 18.25V12.25H16.25V18.25H14.75V14.5C14.75 13.5335 13.9665 12.75 13 12.75H11C10.0335 12.75 9.25 13.5335 9.25 14.5V18.25H7.75ZM10.75 18.25H13.25V14.5C13.25 14.3619 13.1381 14.25 13 14.25H11C10.8619 14.25 10.75 14.3619 10.75 14.5V18.25ZM17.75 18.25V12.25H18.75V18.25H17.75Z" fill="white"/>
</svg>
