<svg width="24" height="24" viewBox="0 0 24 24" fill="none" xmlns="http://www.w3.org/2000/svg">
<path opacity="0.2" d="M21 7H3V16L4.5 17.5H20L21 16.5V7Z" fill="#131313"/>
<path fill-rule="evenodd" clip-rule="evenodd" d="M3.75 4H2.25V15.5C2.25 17.0188 3.48122 18.25 5 18.25H5.25V20.5H6.75V18.25H17.25V20.5H18.75V18.25H19C20.5188 18.25 21.75 17.0188 21.75 15.5V4H20.25V6.25H3.75V4ZM8.25 16.75H6.75V7.75H8.25V16.75ZM9.75 16.75H11.25V7.75H9.75V16.75ZM12.75 7.75V16.75H14.25V7.75H12.75ZM15.75 7.75V16.75H17.25V7.75H15.75ZM5.25 16.75V7.75H3.75V15.5C3.75 16.1904 4.30964 16.75 5 16.75H5.25ZM18.75 16.75V7.75H20.25V15.5C20.25 16.1904 19.6904 16.75 19 16.75H18.75Z" fill="#131313"/>
</svg>
