<svg width="24" height="24" viewBox="0 0 24 24" fill="none" xmlns="http://www.w3.org/2000/svg">
<path fill-rule="evenodd" clip-rule="evenodd" d="M12.2499 4.64187C12.2499 4.39815 11.9368 4.29849 11.7959 4.49736L6.22973 12.3555C6.11245 12.5211 6.23084 12.7501 6.43373 12.7501H9.49995C10.4664 12.7501 11.2499 13.5336 11.2499 14.5001V19.3582C11.2499 19.602 11.5631 19.7016 11.704 19.5027L17.2702 11.6446C17.3874 11.479 17.2691 11.2501 17.0662 11.2501H13.9999C13.0334 11.2501 12.2499 10.4666 12.2499 9.50005V4.64187ZM10.5719 3.63034C11.558 2.2382 13.7499 2.93587 13.7499 4.64187V9.50005C13.7499 9.63812 13.8619 9.75005 13.9999 9.75005H17.0662C18.4864 9.75005 19.3151 11.3526 18.4942 12.5116L12.928 20.3698C11.9419 21.7619 9.74995 21.0642 9.74995 19.3582V14.5001C9.74995 14.362 9.63802 14.2501 9.49995 14.2501H6.43373C5.01349 14.2501 4.18477 12.6475 5.00569 11.4885L10.5719 3.63034Z" fill="#FF385C"/>
</svg>
