<svg width="24" height="24" viewBox="0 0 24 24" fill="none" xmlns="http://www.w3.org/2000/svg">
<path fill-rule="evenodd" clip-rule="evenodd" d="M21.5 4.75H2.5V3.25H21.5V4.75ZM3.25 7.25H2.5V5.75H21.5V7.25H20.75V21C20.75 21.4142 20.4142 21.75 20 21.75H17.5H6.5H4C3.58579 21.75 3.25 21.4142 3.25 21V7.25ZM7.25 20.25H11.25V18.25H7.25V20.25ZM7.25 16.75H11.25V14.75H7.25V16.75ZM7.25 13.25H16.75V10.25H7.25V13.25ZM16.75 14.75H12.75V16.75H16.75V14.75ZM16.75 18.25H12.75V20.25H16.75V18.25ZM4.75 7.25V20.25H5.75V8.75H18.25V20.25H19.25V7.25H4.75Z" fill="#131313"/>
</svg>
