<svg width="24" height="24" viewBox="0 0 24 24" fill="none" xmlns="http://www.w3.org/2000/svg">
<path opacity="0.2" d="M5 19.5V10L12 3L19 10V19.5L18 20.5H14.5V14.5L14 13H10L9.5 14.5V20.5H5.5L5 19.5Z" fill="#131313"/>
<path fill-rule="evenodd" clip-rule="evenodd" d="M3.53033 12.5303L4.25 11.8106V19.5C4.25 20.4665 5.0335 21.25 6 21.25H18C18.9665 21.25 19.75 20.4665 19.75 19.5V11.8106L20.4697 12.5303L21.5303 11.4696L13.2374 3.17675C12.554 2.49333 11.446 2.49333 10.7626 3.17675L2.46967 11.4696L3.53033 12.5303ZM12.1768 4.23741C12.0791 4.13978 11.9208 4.13978 11.8232 4.23741L5.75 10.3106V19.5C5.75 19.638 5.86193 19.75 6 19.75H8.75V14C8.75 13.0335 9.5335 12.25 10.5 12.25H13.5C14.4665 12.25 15.25 13.0335 15.25 14V19.75H18C18.1381 19.75 18.25 19.638 18.25 19.5V10.3106L12.1768 4.23741ZM13.75 19.75V14C13.75 13.8619 13.6381 13.75 13.5 13.75H10.5C10.3619 13.75 10.25 13.8619 10.25 14V19.75H13.75Z" fill="#131313"/>
</svg>
