<svg width="13" height="13" viewBox="0 0 13 13" fill="none" xmlns="http://www.w3.org/2000/svg">
<g clip-path="url(#clip0_5001_61)">
<path fill-rule="evenodd" clip-rule="evenodd" d="M6.08244 1.37272L4.53369 4.70272L0.836185 5.17897C0.764652 5.18791 0.697212 5.21728 0.64194 5.26356C0.586669 5.30984 0.545909 5.37108 0.524541 5.43993C0.503174 5.50878 0.502105 5.58233 0.521462 5.65177C0.540819 5.72121 0.579782 5.7836 0.633685 5.83147L3.37119 8.29522L2.63244 11.989C2.61852 12.0596 2.62522 12.1327 2.65175 12.1996C2.67827 12.2666 2.72349 12.3244 2.78201 12.3663C2.84053 12.4082 2.90987 12.4324 2.98176 12.436C3.05365 12.4396 3.12505 12.4224 3.18744 12.3865L6.41994 10.5115L9.65619 12.3865C9.71857 12.4224 9.78997 12.4396 9.86186 12.436C9.93375 12.4324 10.0031 12.4082 10.0616 12.3663C10.1201 12.3244 10.1654 12.2666 10.1919 12.1996C10.2184 12.1327 10.2251 12.0596 10.2112 11.989L9.47243 8.29522L12.2099 5.83147C12.2628 5.78315 12.3006 5.72072 12.3191 5.65156C12.3376 5.58239 12.3359 5.50939 12.3142 5.44116C12.2925 5.37294 12.2517 5.31235 12.1967 5.26655C12.1417 5.22076 12.0747 5.19167 12.0037 5.18272L8.30619 4.70272L6.76119 1.37272C6.73136 1.30725 6.68332 1.25174 6.62282 1.21282C6.56231 1.17389 6.49188 1.1532 6.41994 1.1532C6.34799 1.1532 6.27756 1.17389 6.21706 1.21282C6.15655 1.25174 6.10851 1.30725 6.07869 1.37272H6.08244Z" fill="#222222"/>
</g>
<defs>
<clipPath id="clip0_5001_61">
<rect width="12" height="12" fill="white" transform="translate(0.419922 0.780273)"/>
</clipPath>
</defs>
</svg>
