<svg width="24" height="24" viewBox="0 0 24 24" fill="none" xmlns="http://www.w3.org/2000/svg">
<path d="M12 17.6514L12.4688 17.8408C12.9281 18.0269 13.25 18.4767 13.25 19C13.25 19.6904 12.6904 20.25 12 20.25C11.3096 20.25 10.75 19.6904 10.75 19C10.75 18.4767 11.0719 18.0269 11.5312 17.8408L12 17.6514Z" stroke="#131313" stroke-width="1.5"/>
<path fill-rule="evenodd" clip-rule="evenodd" d="M12.75 17.1454C13.483 17.4421 14 18.1607 14 19C14 20.1046 13.1046 21 12 21C10.8954 21 10 20.1046 10 19C10 18.1607 10.517 17.4421 11.25 17.1454V15.75H12.75V17.1454ZM12.5 19C12.5 19.2761 12.2761 19.5 12 19.5C11.7239 19.5 11.5 19.2761 11.5 19C11.5 18.7239 11.7239 18.5 12 18.5C12.2761 18.5 12.5 18.7239 12.5 19Z" fill="#FF385C"/>
</svg>
