<svg width="24" height="24" viewBox="0 0 24 24" fill="none" xmlns="http://www.w3.org/2000/svg">
<path fill-rule="evenodd" clip-rule="evenodd" d="M3.47333 12.5873L3.03033 13.0303L1.96967 11.9696L10.0555 3.88383C11.1294 2.80988 12.8706 2.80988 13.9445 3.88383L19.25 9.18929V4.49994H20.75V10.6893L22.0303 11.9696L20.9697 13.0303L20.5267 12.5873C20.391 12.9021 20.1982 13.1865 19.9614 13.4275C20.4468 13.8835 20.75 14.5313 20.75 15.2499C20.75 15.9313 20.4774 16.549 20.0354 16.9999C20.4774 17.4509 20.75 18.0686 20.75 18.7499C20.75 20.1307 19.6307 21.2499 18.25 21.2499H5.75C4.36929 21.2499 3.25 20.1307 3.25 18.7499C3.25 18.0686 3.52258 17.4509 3.96464 16.9999C3.52258 16.549 3.25 15.9313 3.25 15.2499C3.25 14.5313 3.55319 13.8835 4.03863 13.4275C3.80178 13.1865 3.60899 12.9021 3.47333 12.5873ZM11.1161 4.94449C11.6043 4.45633 12.3957 4.45633 12.8839 4.94449L14.1893 6.24994H9.81066L11.1161 4.94449ZM8.31066 7.74994H15.6893L17.1893 9.24994H6.81066L8.31066 7.74994ZM5.31066 10.7499L4.75 11.3106V11.4999C4.75 12.1903 5.30964 12.7499 6 12.7499H8.91841C9.19927 12.1587 9.8019 11.7499 10.5 11.7499H13.5C14.1981 11.7499 14.8007 12.1587 15.0816 12.7499H18C18.6904 12.7499 19.25 12.1903 19.25 11.4999V11.3106L18.6893 10.7499H5.31066ZM8.75 14.2499V16.2499H5.75C5.19772 16.2499 4.75 15.8022 4.75 15.2499C4.75 14.6977 5.19772 14.2499 5.75 14.2499H8.75ZM5.75 17.7499H8.75V19.7499H5.75C5.19772 19.7499 4.75 19.3022 4.75 18.7499C4.75 18.1977 5.19772 17.7499 5.75 17.7499ZM13.75 19.7499H10.25V13.4999C10.25 13.3619 10.3619 13.2499 10.5 13.2499H13.5C13.6381 13.2499 13.75 13.3619 13.75 13.4999V19.7499ZM18.25 19.7499H15.25V17.7499H18.25C18.8023 17.7499 19.25 18.1977 19.25 18.7499C19.25 19.3022 18.8023 19.7499 18.25 19.7499ZM18.25 16.2499H15.25V14.2499H18.25C18.8023 14.2499 19.25 14.6977 19.25 15.2499C19.25 15.8022 18.8023 16.2499 18.25 16.2499Z" fill="#131313"/>
</svg>
