<svg width="24" height="24" viewBox="0 0 24 24" fill="none" xmlns="http://www.w3.org/2000/svg">
<path fill-rule="evenodd" clip-rule="evenodd" d="M2.75 6.5V2.5H4.25V5.75H6.25V2.5H7.75V5.75H9.75V2.5H11.25V6.5V9.43845C11.25 10.6716 10.4298 11.7501 9.25 12.0842V19.5C9.25 20.7426 8.24264 21.75 7 21.75C5.75736 21.75 4.75 20.7426 4.75 19.5V12.0842C3.57016 11.7501 2.75 10.6716 2.75 9.43845V6.5ZM9.75 7.25H4.25V9.43845C4.25 10.012 4.64037 10.512 5.19683 10.6511L5.6819 10.7724C6.01578 10.8559 6.25 11.1558 6.25 11.5V19.5C6.25 19.9142 6.58579 20.25 7 20.25C7.41421 20.25 7.75 19.9142 7.75 19.5V11.5C7.75 11.1558 7.98422 10.8559 8.3181 10.7724L8.80317 10.6511C9.35963 10.512 9.75 10.012 9.75 9.43845V7.25Z" fill="white"/>
<path fill-rule="evenodd" clip-rule="evenodd" d="M17 1.75C14.6528 1.75 12.75 3.65279 12.75 6V9.43845C12.75 10.6716 13.5702 11.7501 14.75 12.0842V19.5C14.75 20.7426 15.7574 21.75 17 21.75C18.2426 21.75 19.25 20.7426 19.25 19.5V12.0842C20.4298 11.7501 21.25 10.6716 21.25 9.43845V6C21.25 3.65279 19.3472 1.75 17 1.75ZM14.25 6C14.25 4.48122 15.4812 3.25 17 3.25C18.5188 3.25 19.75 4.48122 19.75 6V9.43845C19.75 10.012 19.3596 10.512 18.8032 10.6511L18.3181 10.7724C17.9842 10.8559 17.75 11.1558 17.75 11.5V19.5C17.75 19.9142 17.4142 20.25 17 20.25C16.5858 20.25 16.25 19.9142 16.25 19.5V11.5C16.25 11.1558 16.0158 10.8559 15.6819 10.7724L15.1968 10.6511C14.6404 10.512 14.25 10.012 14.25 9.43845V6Z" fill="#FF385C"/>
</svg>
