<svg width="24" height="24" viewBox="0 0 24 24" fill="none" xmlns="http://www.w3.org/2000/svg">
<path fill-rule="evenodd" clip-rule="evenodd" d="M10.0878 4.25325C9.14442 3.5457 7.84182 3.56605 6.92098 4.30272L6.81936 4.38401C5.9454 5.08318 5.67421 6.26215 6.09095 7.25H5C3.89543 7.25 3 8.14543 3 9.25V11.5C3 12.2403 3.4022 12.8866 4 13.2324V18.5C4 19.6046 4.89543 20.5 6 20.5H18C19.1046 20.5 20 19.6046 20 18.5V13.2324C20.5978 12.8866 21 12.2403 21 11.5V9.25C21 8.14543 20.1046 7.25 19 7.25H17.9091C18.3258 6.26215 18.0546 5.08318 17.1806 4.38401L17.079 4.30272C16.1582 3.56605 14.8556 3.5457 13.9122 4.25325L13.6188 4.47325C13.2117 4.77864 12.8267 5.11253 12.4668 5.47243L12 5.93921L11.5332 5.47243C11.1733 5.11253 10.7883 4.77864 10.3812 4.47325L10.0878 4.25325ZM13.3108 7.25L13.0607 6.99987L13.5274 6.53309C13.8371 6.22338 14.1684 5.93605 14.5188 5.67325L14.8122 5.45325C15.2083 5.15614 15.7553 5.16468 16.142 5.47402L16.2436 5.55532C16.6449 5.87639 16.7188 6.45813 16.4104 6.8693C16.2307 7.10891 15.9487 7.24992 15.6492 7.24992L13.3108 7.25ZM10.6892 7.25L10.9393 6.99987L10.4726 6.53309C10.1629 6.22338 9.83156 5.93605 9.48116 5.67325L9.18782 5.45325C8.79168 5.15614 8.24469 5.16468 7.85802 5.47402L7.7564 5.55532C7.35507 5.87639 7.28121 6.45813 7.58959 6.8693C7.7693 7.10891 8.05133 7.24992 8.35084 7.24992L10.6892 7.25ZM5 8.75C4.72386 8.75 4.5 8.97386 4.5 9.25V11.5C4.5 11.7761 4.72386 12 5 12H11.25V8.75H5ZM12.75 8.75V12H19C19.2761 12 19.5 11.7761 19.5 11.5V9.25C19.5 8.97386 19.2761 8.75 19 8.75H12.75ZM11.25 13.5H5.5V18.5C5.5 18.7761 5.72386 19 6 19H11.25L11.25 13.5ZM12.75 19L12.75 13.5H18.5V18.5C18.5 18.7761 18.2761 19 18 19H12.75Z" fill="#131313"/>
<path fill-rule="evenodd" clip-rule="evenodd" d="M6.92185 4.28856C7.84269 3.55189 9.1453 3.53154 10.0887 4.23909L10.3367 4.42507C10.775 4.75383 11.1886 5.11436 11.5741 5.50375L12.0025 5.93642L12.4237 5.50959C12.8116 5.11657 13.2281 4.7529 13.6698 4.42159L13.9132 4.23909C14.8566 3.53154 16.1592 3.55189 17.08 4.28856L17.1802 4.36872C18.215 5.19654 18.4054 6.69646 17.6103 7.75659C17.1483 8.37259 16.4239 8.73597 15.6539 8.73795L14.8009 8.74016L14.8154 8.75466L12.75 8.74933V19H11.25V8.74933L9.1847 8.75466L9.1992 8.74015L8.34796 8.73796C7.57795 8.73597 6.85355 8.37259 6.39155 7.75659C5.59646 6.69646 5.78688 5.19654 6.82165 4.36872L6.92185 4.28856ZM13.0605 6.99979L13.3047 7.24402L15.65 7.23796C15.9493 7.23719 16.2308 7.09598 16.4103 6.85659C16.7193 6.44461 16.6453 5.86172 16.2432 5.54002L16.143 5.45986C15.7563 5.15052 15.2093 5.14198 14.8132 5.43909L14.5698 5.62159C14.1875 5.90833 13.827 6.22307 13.4914 6.56321L13.0605 6.99979ZM10.5082 6.55908L10.942 6.99732L10.6953 7.24401L8.35183 7.23796C8.0526 7.23719 7.77109 7.09598 7.59155 6.85659C7.28257 6.44461 7.35657 5.86172 7.75869 5.54002L7.85889 5.45986C8.24557 5.15052 8.79255 5.14198 9.1887 5.43909L9.43667 5.62507C9.81623 5.90974 10.1744 6.22192 10.5082 6.55908Z" fill="#FF385C"/>
</svg>
