<svg width="24" height="24" viewBox="0 0 24 24" fill="none" xmlns="http://www.w3.org/2000/svg">
<path fill-rule="evenodd" clip-rule="evenodd" d="M6.5 4.25C6.36193 4.25 6.25 4.36193 6.25 4.5V19.75H17.75V4.5C17.75 4.36193 17.6381 4.25 17.5 4.25H6.5ZM19.25 19.75V4.5C19.25 3.5335 18.4665 2.75 17.5 2.75H6.5C5.5335 2.75 4.75 3.5335 4.75 4.5V19.75H2V21.25H22V19.75H19.25Z" fill="white"/>
<path d="M15.5 11.25C15.0858 11.25 14.75 11.5858 14.75 12C14.75 12.4142 15.0858 12.75 15.5 12.75H16C16.4142 12.75 16.75 12.4142 16.75 12C16.75 11.5858 16.4142 11.25 16 11.25H15.5Z" fill="#FF385C"/>
<path d="M2 21.25H22V19.75H2V21.25Z" fill="#FF385C"/>
</svg>
