<svg width="24" height="24" viewBox="0 0 24 24" fill="none" xmlns="http://www.w3.org/2000/svg">
<path fill-rule="evenodd" clip-rule="evenodd" d="M16.2 3.10002L14.6667 4.25002H16.75V5.75002H14.6046C14.4017 6.25137 14.0013 6.6517 13.5 6.85465V7.3089C15.767 7.66849 17.5 9.63187 17.5 12V20C17.5 20.5 17 21.75 15.5 21.75H9.75C8.7835 21.75 8 20.9665 8 20V17.25H6.5V19.5H5V11.5C5 8.10918 7.50027 5.30232 10.7578 4.82244C10.8476 3.80106 11.7053 3.00002 12.75 3.00002C13.0494 3.00002 13.3334 3.06581 13.5884 3.18371L15.3 1.90002L16.2 3.10002ZM12.75 5.50002C13.0261 5.50002 13.25 5.27617 13.25 5.00002C13.25 4.72388 13.0261 4.50002 12.75 4.50002C12.4739 4.50002 12.25 4.72388 12.25 5.00002C12.25 5.27617 12.4739 5.50002 12.75 5.50002ZM6.5 11.5C6.5 8.78252 8.5647 6.54725 11.211 6.27736C11.4206 6.52968 11.6911 6.72962 12 6.85465V7.3089C9.73301 7.66849 8 9.63187 8 12V15.75H6.5V11.5ZM12.75 8.75002C10.9551 8.75002 9.5 10.2051 9.5 12V20C9.5 20.1381 9.61193 20.25 9.75 20.25H16V12C16 10.2051 14.5449 8.75002 12.75 8.75002Z" fill="#131313"/>
<path fill-rule="evenodd" clip-rule="evenodd" d="M12.75 8.75C10.9551 8.75 9.5 10.2051 9.5 12V20C9.5 20.1381 9.61193 20.25 9.75 20.25H15.75C15.8881 20.25 16 20.1381 16 20V12C16 10.2051 14.5449 8.75 12.75 8.75ZM8 12C8 9.37665 10.1266 7.25 12.75 7.25C15.3734 7.25 17.5 9.37665 17.5 12V20C17.5 20.9665 16.7165 21.75 15.75 21.75H9.75C8.7835 21.75 8 20.9665 8 20V12Z" fill="#FF385C"/>
</svg>
