<svg width="24" height="24" viewBox="0 0 24 24" fill="none" xmlns="http://www.w3.org/2000/svg">
<path fill-rule="evenodd" clip-rule="evenodd" d="M6.71198 4.40952C9.68959 1.63042 14.3103 1.63042 17.2879 4.40952L18.157 5.22065C19.3182 6.3044 18.5513 8.25 16.9629 8.25H12.75V11.75H18.5V13.25H12.75V21H11.25V13.25H5.49995V11.75H11.25V8.25H7.03697C5.44864 8.25 4.68175 6.30441 5.84291 5.22065L6.71198 4.40952ZM16.2644 5.5061C13.8631 3.26489 10.1368 3.26489 7.73546 5.5061L6.86639 6.31723C6.70051 6.47205 6.81006 6.75 7.03697 6.75H16.9629C17.1898 6.75 17.2994 6.47205 17.1335 6.31723L16.2644 5.5061Z" fill="#131313"/>
<path d="M2.75 8V21H4.25V16.75H7.5C7.63807 16.75 7.75 16.8619 7.75 17V21H9.25V17C9.25 16.0335 8.4665 15.25 7.5 15.25H4.25V8H2.75Z" fill="#FF385C"/>
<path d="M21.25 8V21H19.75V16.75H16.5C16.3619 16.75 16.25 16.8619 16.25 17V21H14.75V17C14.75 16.0335 15.5335 15.25 16.5 15.25H19.75V8H21.25Z" fill="#FF385C"/>
</svg>
