<svg width="24" height="24" viewBox="0 0 24 24" fill="none" xmlns="http://www.w3.org/2000/svg">
<path d="M5.49994 5.25C5.08573 5.25 4.74994 5.58579 4.74994 6C4.74994 6.41421 5.08573 6.75 5.49994 6.75H5.99994C6.41416 6.75 6.74994 6.41421 6.74994 6C6.74994 5.58579 6.41416 5.25 5.99994 5.25H5.49994Z" fill="white"/>
<path fill-rule="evenodd" clip-rule="evenodd" d="M5.24994 12C5.24994 8.27208 8.27202 5.25 11.9999 5.25C15.7279 5.25 18.7499 8.27208 18.7499 12C18.7499 15.7279 15.7279 18.75 11.9999 18.75C8.27202 18.75 5.24994 15.7279 5.24994 12ZM6.9524 10.5512C8.7782 9.78199 10.9241 10.0056 12.574 11.2431L12.8179 11.426C14.0986 12.3865 15.7794 12.6021 17.2499 12.0178C17.2499 12.0119 17.2499 12.0059 17.2499 12C17.2499 9.1005 14.8994 6.75 11.9999 6.75C9.603 6.75 7.58123 8.35632 6.9524 10.5512ZM16.9776 13.6736C15.2421 14.0895 13.383 13.7248 11.9179 12.6259L11.674 12.4431C10.2165 11.3499 8.23326 11.3313 6.76213 12.3606C6.94739 15.0919 9.22164 17.25 11.9999 17.25C14.3143 17.25 16.2789 15.7525 16.9776 13.6736Z" fill="white"/>
<path fill-rule="evenodd" clip-rule="evenodd" d="M4.62073 2.25C3.90649 2.25 3.28808 2.74607 3.13313 3.44331C1.88075 9.07903 1.88075 14.921 3.13313 20.5567C3.28808 21.2539 3.90649 21.75 4.62073 21.75H19.3792C20.0934 21.75 20.7118 21.2539 20.8668 20.5567C22.1191 14.921 22.1191 9.07903 20.8668 3.44331C20.7118 2.74607 20.0934 2.25 19.3792 2.25H4.62073ZM4.59741 3.76871C4.59984 3.75778 4.60954 3.75 4.62073 3.75H19.3792C19.3903 3.75 19.4 3.75778 19.4025 3.76871C20.6072 9.19011 20.6072 14.8099 19.4025 20.2313C19.4 20.2422 19.3903 20.25 19.3792 20.25H4.62073C4.60954 20.25 4.59984 20.2422 4.59741 20.2313C3.39266 14.8099 3.39266 9.19011 4.59741 3.76871Z" fill="white"/>
<path d="M5.5 5.25C5.08579 5.25 4.75 5.58579 4.75 6C4.75 6.41421 5.08579 6.75 5.5 6.75H6C6.41421 6.75 6.75 6.41421 6.75 6C6.75 5.58579 6.41421 5.25 6 5.25H5.5Z" fill="#FF385C"/>
<path fill-rule="evenodd" clip-rule="evenodd" d="M5.25 12C5.25 8.27208 8.27208 5.25 12 5.25C15.7279 5.25 18.75 8.27208 18.75 12C18.75 15.7279 15.7279 18.75 12 18.75C8.27208 18.75 5.25 15.7279 5.25 12ZM6.95245 10.5512C8.77826 9.78199 10.9242 10.0056 12.5741 11.2431L12.8179 11.426C14.0987 12.3865 15.7794 12.6021 17.25 12.0178C17.25 12.0119 17.25 12.0059 17.25 12C17.25 9.1005 14.8995 6.75 12 6.75C9.60306 6.75 7.58129 8.35632 6.95245 10.5512ZM16.9776 13.6736C15.2422 14.0895 13.383 13.7248 11.9179 12.6259L11.6741 12.4431C10.2166 11.3499 8.23332 11.3313 6.76219 12.3606C6.94745 15.0919 9.2217 17.25 12 17.25C14.3143 17.25 16.2789 15.7525 16.9776 13.6736Z" fill="#FF385C"/>
</svg>
