<svg width="24" height="24" viewBox="0 0 24 24" fill="none" xmlns="http://www.w3.org/2000/svg">
<path fill-rule="evenodd" clip-rule="evenodd" d="M17.879 2.0362C18.7783 1.78328 19.7176 2.28124 20.013 3.16744L20.9602 6.00906L9.43679 9.25003H20.75V19.5C20.75 20.4665 19.9665 21.25 19 21.25H4.99999C4.03349 21.25 3.24999 20.4665 3.24999 19.5V10.1217L2.62012 8.23213C2.30415 7.28423 2.84465 6.26462 3.80651 5.99409L17.879 2.0362ZM18.59 3.64178C18.5478 3.51518 18.4136 3.44404 18.2851 3.48017L14.0306 4.67678L16.2361 5.77953L19.0397 4.991L18.59 3.64178ZM14.0894 6.38327L11.8839 5.28052L8.72608 6.16866L11.1004 7.22393L14.0894 6.38327ZM8.83849 7.8601L6.46414 6.80483L4.21263 7.43807C4.07522 7.47672 3.99801 7.62237 4.04315 7.75779L4.48536 9.08442L8.83849 7.8601ZM11.3107 10.75H15.6893L14.1893 12.25H9.81065L11.3107 10.75ZM19.25 12.25H16.3107L17.8107 10.75H19.25V12.25ZM4.74999 10.75V12.25H7.68933L9.18933 10.75H4.74999ZM19.25 13.75H4.74999V19.5C4.74999 19.6381 4.86192 19.75 4.99999 19.75H19C19.1381 19.75 19.25 19.6381 19.25 19.5V13.75Z" fill="white"/>
</svg>
