<svg width="24" height="24" viewBox="0 0 24 24" fill="none" xmlns="http://www.w3.org/2000/svg">
<path fill-rule="evenodd" clip-rule="evenodd" d="M2.25 4.5H3.75V6.75H20.25V4.5H21.75V14.5C21.75 15.9061 20.9761 17.1314 19.8311 17.7733L20.4823 19.2385C20.6588 19.6356 20.75 20.0654 20.75 20.5H19.25C19.25 20.2753 19.2028 20.0531 19.1116 19.8477L18.3925 18.2297C18.2635 18.2431 18.1325 18.25 18 18.25H6C5.86746 18.25 5.73653 18.2431 5.60753 18.2297L4.88843 19.8477C4.79716 20.0531 4.75 20.2753 4.75 20.5H3.25C3.25 20.0654 3.3412 19.6356 3.51771 19.2385L4.1689 17.7733C3.02386 17.1314 2.25 15.9061 2.25 14.5V4.5ZM6.26518 16.75H17.7348L14.9699 10.5289C13.8262 7.95551 10.1738 7.95551 9.03011 10.5289L6.26518 16.75ZM19.2174 16.3925C19.8386 15.9921 20.25 15.2941 20.25 14.5V8.25H15.1194C15.6173 8.6839 16.0387 9.24047 16.3406 9.9197L19.2174 16.3925ZM8.88057 8.25C8.38273 8.6839 7.96127 9.24047 7.65939 9.9197L4.78259 16.3925C4.16135 15.9921 3.75 15.2941 3.75 14.5V8.25H8.88057Z" fill="#131313"/>
<path fill-rule="evenodd" clip-rule="evenodd" d="M13.2241 8.83747C12.4392 8.51829 11.5608 8.51829 10.7759 8.83747C9.99745 9.15404 9.37191 9.75988 9.03061 10.5278L4.85774 19.9168C4.7867 20.0766 4.75 20.2496 4.75 20.4245V20.5H3.25V20.4245C3.25 20.0397 3.33075 19.6592 3.48702 19.3076L7.65989 9.9186C8.15875 8.79619 9.07304 7.91068 10.2108 7.44797C11.358 6.98145 12.642 6.98145 13.7892 7.44797C14.927 7.91068 15.8413 8.79619 16.3401 9.9186L20.513 19.3076C20.6693 19.6592 20.75 20.0397 20.75 20.4245V20.5H19.25V20.4245C19.25 20.2496 19.2133 20.0766 19.1423 19.9168L14.9694 10.5278C14.6281 9.75988 14.0026 9.15404 13.2241 8.83747Z" fill="#FF385C"/>
</svg>
