<svg width="24" height="24" viewBox="0 0 24 24" fill="none" xmlns="http://www.w3.org/2000/svg">
<path fill-rule="evenodd" clip-rule="evenodd" d="M11.8233 4.23744C11.9209 4.13981 12.0792 4.13981 12.1768 4.23744L18.7501 10.8107V19C18.7501 19.1381 18.6381 19.25 18.5001 19.25H16.7501V18.5C16.7501 16.9098 15.8767 15.5237 14.5836 14.7949C14.9989 14.3132 15.2501 13.6859 15.2501 13V12.5C15.2501 10.7051 13.795 9.25 12.0001 9.25C10.2051 9.25 8.75006 10.7051 8.75006 12.5V13C8.75006 13.6859 9.00119 14.3132 9.41653 14.7949C8.12336 15.5237 7.25006 16.9098 7.25006 18.5V19.25H5.64018C5.50211 19.25 5.39018 19.1381 5.39018 19V10.6705L11.8233 4.23744ZM8.75006 19.25H15.2501V18.5C15.2501 16.9812 14.0188 15.75 12.5001 15.75V14.25C13.1904 14.25 13.7501 13.6904 13.7501 13V12.5C13.7501 11.5335 12.9666 10.75 12.0001 10.75C11.0336 10.75 10.2501 11.5335 10.2501 12.5V13C10.2501 13.6904 10.8097 14.25 11.5001 14.25V15.75C9.98127 15.75 8.75006 16.9812 8.75006 18.5V19.25ZM20.4697 12.5303L20.2501 12.3107V19C20.2501 19.9665 19.4666 20.75 18.5001 20.75H5.64018C4.67368 20.75 3.89018 19.9665 3.89018 19V12.1705L3.53039 12.5303L2.46973 11.4697L4.10985 9.82955L10.7626 3.17678C11.446 2.49336 12.5541 2.49336 13.2375 3.17678L20.0304 9.96967L21.5304 11.4697L20.4697 12.5303Z" fill="#131313"/>
<path fill-rule="evenodd" clip-rule="evenodd" d="M16.75 19.25V18.5C16.75 16.9098 15.8767 15.5236 14.5835 14.7949C14.9989 14.3132 15.25 13.6859 15.25 13V12.5C15.25 10.705 13.7949 9.24997 12 9.24997C10.2051 9.24997 8.75 10.705 8.75 12.5V13C8.75 13.6859 9.00113 14.3132 9.41647 14.7949C8.12331 15.5236 7.25 16.9098 7.25 18.5V19.25H8.75V18.5C8.75 16.9812 9.98122 15.75 11.5 15.75V14.25C10.8096 14.25 10.25 13.6903 10.25 13V12.5C10.25 11.5335 11.0335 10.75 12 10.75C12.9665 10.75 13.75 11.5335 13.75 12.5V13C13.75 13.6903 13.1904 14.25 12.5 14.25V15.75C14.0188 15.75 15.25 16.9812 15.25 18.5V19.25H16.75Z" fill="#FF385C"/>
</svg>
