<svg width="24" height="24" viewBox="0 0 24 24" fill="none" xmlns="http://www.w3.org/2000/svg">
<path d="M11.2501 10.701L7.55584 8.56818L7.57185 4.97233L6.07187 4.96565L6.05967 7.70437L4.14782 6.60056L3.39782 7.8996L5.30967 9.00341L2.94397 10.3833L3.69975 11.679L6.80584 9.86722L10.5 12.0001L7.19624 13.9075L3.63243 12.2862L3.01129 13.6516L5.59984 14.8292L3.3978 16.1005L4.1478 17.3996L6.34978 16.1283L6.07536 18.9587L7.56836 19.1035L7.94617 15.2066L11.2501 13.2991L12.0001 13L12.7501 13.2991L16.054 15.2066L16.4318 19.1035L17.9248 18.9588L17.6503 16.1283L19.8523 17.3996L20.6023 16.1006L18.4003 14.8293L20.9888 13.6517L20.3677 12.2863L16.804 13.9076L13.5 12.0001L17.1943 9.86721L20.3004 11.679L21.0561 10.3833L18.6904 9.00339L20.6023 7.89959L19.8523 6.60055L17.9404 7.70435L17.9282 4.96564L16.4283 4.97232L16.4443 8.56817L12.7501 10.701L12.0001 11L11.2501 10.701Z" fill="#FF385C"/>
<path d="M11.25 6.8859V10.701V12.0609V13.2991V17.5648L8.1279 19.3488L8.87211 20.6512L11.25 19.2924V21.5H12.75V19.2924L15.1279 20.6512L15.8721 19.3488L12.75 17.5648V13.2991V12V10.701V6.88592L15.9359 4.61025L15.0641 3.38965L12.75 5.04256V2.5H11.25V5.04255L8.93594 3.38965L8.06409 4.61025L11.25 6.8859Z" fill="#131313"/>
</svg>
