<svg width="23" height="20" viewBox="0 0 23 20" fill="none" xmlns="http://www.w3.org/2000/svg">
<path d="M11.66 19C16.91 15.4525 22.16 11.5 22.16 6.25003C22.162 5.56004 22.0275 4.87646 21.7644 4.2386C21.5012 3.60075 21.1146 3.02121 20.6267 2.53331C20.1388 2.0454 19.5593 1.65877 18.9214 1.39563C18.2836 1.1325 17.6 0.998052 16.91 1.00003C15.56 1.00003 14.225 1.51003 13.1975 2.53753L11.66 4.07503L10.1225 2.53753C9.63597 2.04817 9.05752 1.65983 8.42039 1.39483C7.78326 1.12983 7.10002 0.993408 6.40998 0.993408C5.71993 0.993408 5.0367 1.12983 4.39957 1.39483C3.76244 1.65983 3.18398 2.04817 2.69748 2.53753C2.20932 3.02458 1.82219 3.60328 1.55834 4.24039C1.29449 4.87749 1.15911 5.56045 1.15998 6.25003C1.15998 11.5 6.40998 15.4525 11.66 19Z" fill="black" fill-opacity="0.5" stroke="white" stroke-width="1.5"/>
</svg>
