<svg width="24" height="24" viewBox="0 0 24 24" fill="none" xmlns="http://www.w3.org/2000/svg">
<path fill-rule="evenodd" clip-rule="evenodd" d="M14 17.25H10V15.75H14V17.25Z" fill="#FF385C"/>
<path d="M9.55005 8.5C9.96426 8.5 10.3 8.16421 10.3 7.75C10.3 7.33579 9.96426 7 9.55005 7C9.13584 7 8.80005 7.33579 8.80005 7.75C8.80005 8.16421 9.13584 8.5 9.55005 8.5Z" fill="#FF385C"/>
<path fill-rule="evenodd" clip-rule="evenodd" d="M16.75 6.83529L8.22415 2.95991C7.06548 2.43324 5.75 3.28029 5.75 4.55305V18.75H3V20.25H5.75V21.5H7.25V20.25H16.75V21.5H18.25V20.25H21V18.75H18.25V3.00005H16.75V6.83529ZM7.60345 4.32546C7.43792 4.25022 7.25 4.37123 7.25 4.55305V18.75H8.75V12.0001C8.75 11.0336 9.5335 10.2501 10.5 10.2501H13.5C14.4665 10.2501 15.25 11.0336 15.25 12.0001V18.75H16.75V8.48298L7.60345 4.32546ZM13.75 18.75V17.2501V15.7501V12.0001C13.75 11.862 13.6381 11.7501 13.5 11.7501H10.5C10.3619 11.7501 10.25 11.862 10.25 12.0001V15.7501V17.2501V18.75H13.75Z" fill="#131313"/>
</svg>
