<svg width="24" height="24" viewBox="0 0 24 24" fill="none" xmlns="http://www.w3.org/2000/svg">
<g clip-path="url(#clip0_49_1834)">
<path fill-rule="evenodd" clip-rule="evenodd" d="M9.5 14L7.2015 14.6469L6.77098 16.656L5.92715 19.75H2V21.25H22V19.75H18.0728L17.229 16.656L16.7985 14.6469L14.5 14L12 11.5L9.5 14ZM15.535 15.9093L12 12.3744L8.46504 15.9093L8.42774 16.0834H15.5723L15.535 15.9093ZM7.48194 19.75L8.07285 17.5834H15.9272L16.5181 19.75H7.48194Z" fill="#131313"/>
<path fill-rule="evenodd" clip-rule="evenodd" d="M5.25499 5.67952L8.44547 2.48904L11.9952 6.03873L15.5449 2.48902L18.7354 5.6795L15.1857 9.22921L18.7354 12.7789L15.5449 15.9694L11.9952 12.4197L8.44552 15.9694L5.25504 12.7789L8.80474 9.22921L5.25499 5.67952ZM7.37632 5.67951L10.9261 9.2292L7.37636 12.7789L8.44552 13.8481L11.9952 10.2984L15.5449 13.8481L16.6141 12.7789L13.0644 9.22921L16.6141 5.6795L15.5449 4.61034L11.9952 8.16004L8.44548 4.61035L7.37632 5.67951Z" fill="#FF385C"/>
</g>
<defs>
<clipPath id="clip0_49_1834">
<rect width="24" height="24" fill="white"/>
</clipPath>
</defs>
</svg>
