<svg width="24" height="24" viewBox="0 0 24 24" fill="none" xmlns="http://www.w3.org/2000/svg">
<path opacity="0.2" d="M14.5 12H9.5H8.5L6.5 14V17L7.5 17.5H16.5L17.5 16.5V14L16.5 12.5L14.5 12Z" fill="#131313"/>
<path d="M10 3C10 3.54119 9.874 4.07496 9.63197 4.55902L8.75 6.32295C8.25678 7.30939 8 8.39712 8 9.5H9.5C9.5 8.6735 9.68281 7.80903 10.0347 7.10749L10.9736 5.22984C11.3198 4.53749 11.5 3.77406 11.5 3H10Z" fill="#131313"/>
<path d="M12.632 4.55902C12.874 4.07496 13 3.54119 13 3H14.5C14.5 3.77406 14.3198 4.53749 13.9736 5.22984L13.0347 7.10749C12.6828 7.80903 12.5 8.6735 12.5 9.5H11C11 8.39712 11.2568 7.30939 11.75 6.32295L12.632 4.55902Z" fill="#131313"/>
<path d="M16 3C16 3.54119 15.874 4.07496 15.632 4.55902L14.75 6.32295C14.2568 7.30939 14 8.39712 14 9.5H15.5C15.5 8.6735 15.6828 7.80903 16.0347 7.10749L16.9736 5.22984C17.3198 4.53749 17.5 3.77406 17.5 3H16Z" fill="#131313"/>
<path d="M3 18.75H3.5C3.63807 18.75 3.75 18.8619 3.75 19C3.75 19.9665 4.5335 20.75 5.5 20.75H18.5C19.4665 20.75 20.25 19.9665 20.25 19C20.25 18.8619 20.3619 18.75 20.5 18.75H21V17.25H20.5C19.5335 17.25 18.75 18.0335 18.75 19C18.75 19.1381 18.6381 19.25 18.5 19.25H5.5C5.36193 19.25 5.25 19.1381 5.25 19C5.25 18.0335 4.4665 17.25 3.5 17.25H3V18.75Z" fill="#131313"/>
<path fill-rule="evenodd" clip-rule="evenodd" d="M5.75 15C5.75 12.9289 7.42893 11.25 9.5 11.25H14.5C16.5711 11.25 18.25 12.9289 18.25 15V16.5C18.25 17.4665 17.4665 18.25 16.5 18.25H7.5C6.5335 18.25 5.75 17.4665 5.75 16.5V15ZM8.75 14.5V12.878C7.87611 13.1869 7.25 14.0203 7.25 15V16.5C7.25 16.6381 7.36193 16.75 7.5 16.75H16.5C16.6381 16.75 16.75 16.6381 16.75 16.5V15C16.75 14.0203 16.1239 13.1869 15.25 12.878V14.5H13.75V12.75H12.75V14.5H11.25V12.75H10.25V14.5H8.75Z" fill="#131313"/>
</svg>
