<svg width="24" height="24" viewBox="0 0 24 24" fill="none" xmlns="http://www.w3.org/2000/svg">
<path fill-rule="evenodd" clip-rule="evenodd" d="M3.13313 3.44331C3.28808 2.74607 3.90649 2.25 4.62073 2.25H19.3792C20.0934 2.25 20.7118 2.74607 20.8668 3.44331C22.1191 9.07903 22.1191 14.921 20.8668 20.5567C20.7118 21.2539 20.0934 21.75 19.3792 21.75H4.62073C3.90649 21.75 3.28808 21.2539 3.13313 20.5567C1.88075 14.921 1.88075 9.07903 3.13313 3.44331ZM4.62073 3.75C4.60954 3.75 4.59984 3.75778 4.59741 3.76871C3.39266 9.19011 3.39266 14.8099 4.59741 20.2313C4.59984 20.2422 4.60954 20.25 4.62073 20.25H19.3792C19.3903 20.25 19.4 20.2422 19.4025 20.2313C20.6072 14.8099 20.6072 9.19011 19.4025 3.76871C19.4 3.75778 19.3903 3.75 19.3792 3.75H4.62073ZM4.74994 6C4.74994 5.58579 5.08573 5.25 5.49994 5.25H5.99994C6.41416 5.25 6.74994 5.58579 6.74994 6C6.74994 6.41421 6.41416 6.75 5.99994 6.75H5.49994C5.08573 6.75 4.74994 6.41421 4.74994 6ZM6.74994 12C6.74994 9.1005 9.10045 6.75 11.9999 6.75C14.8994 6.75 17.2499 9.1005 17.2499 12C17.2499 14.8995 14.8994 17.25 11.9999 17.25C9.10045 17.25 6.74994 14.8995 6.74994 12ZM11.9999 5.25C8.27202 5.25 5.24994 8.27208 5.24994 12C5.24994 15.7279 8.27202 18.75 11.9999 18.75C15.7279 18.75 18.7499 15.7279 18.7499 12C18.7499 8.27208 15.7279 5.25 11.9999 5.25ZM10.7196 14.2803C10.116 13.6767 9.25065 13.4147 8.41359 13.5821L7.64703 13.7354L7.35286 12.2646L8.11942 12.1113C9.44827 11.8455 10.822 12.2614 11.7803 13.2197C12.3839 13.8233 13.2492 14.0853 14.0863 13.9179L14.8529 13.7646L15.147 15.2354L14.3805 15.3887C13.0516 15.6545 11.6779 15.2386 10.7196 14.2803ZM9.91359 10.0821C10.7507 9.91471 11.616 10.1767 12.2196 10.7803C13.1779 11.7386 14.5516 12.1545 15.8805 11.8887L16.647 11.7354L16.3529 10.2646L15.5863 10.4179C14.7492 10.5853 13.8839 10.3233 13.2803 9.71967C12.322 8.76142 10.9483 8.34548 9.61942 8.61125L8.85286 8.76456L9.14703 10.2354L9.91359 10.0821Z" fill="white"/>
<path fill-rule="evenodd" clip-rule="evenodd" d="M4.75 6C4.75 5.58579 5.08579 5.25 5.5 5.25H6C6.41421 5.25 6.75 5.58579 6.75 6C6.75 6.41421 6.41421 6.75 6 6.75H5.5C5.08579 6.75 4.75 6.41421 4.75 6ZM6.75 12C6.75 9.1005 9.10051 6.75 12 6.75C14.8995 6.75 17.25 9.1005 17.25 12C17.25 14.8995 14.8995 17.25 12 17.25C9.10051 17.25 6.75 14.8995 6.75 12ZM12 5.25C8.27208 5.25 5.25 8.27208 5.25 12C5.25 15.7279 8.27208 18.75 12 18.75C15.7279 18.75 18.75 15.7279 18.75 12C18.75 8.27208 15.7279 5.25 12 5.25ZM10.7197 14.2803C10.1161 13.6767 9.25071 13.4147 8.41365 13.5821L7.64709 13.7354L7.35291 12.2646L8.11947 12.1113C9.44833 11.8455 10.8221 12.2614 11.7803 13.2197C12.3839 13.8233 13.2493 14.0853 14.0864 13.9179L14.8529 13.7646L15.1471 15.2354L14.3805 15.3887C13.0517 15.6545 11.6779 15.2386 10.7197 14.2803ZM9.91365 10.0821C10.7507 9.91471 11.6161 10.1767 12.2197 10.7803C13.1779 11.7386 14.5517 12.1545 15.8805 11.8887L16.6471 11.7354L16.3529 10.2646L15.5864 10.4179C14.7493 10.5853 13.8839 10.3233 13.2803 9.71967C12.3221 8.76142 10.9483 8.34548 9.61947 8.61125L8.85291 8.76456L9.14709 10.2354L9.91365 10.0821Z" fill="#FF385C"/>
</svg>
