<svg width="24" height="24" viewBox="0 0 24 24" fill="none" xmlns="http://www.w3.org/2000/svg">
<path fill-rule="evenodd" clip-rule="evenodd" d="M5.50003 3.75C4.53354 3.75 3.75003 4.5335 3.75003 5.5V14.3556L2.35223 17.8501C1.89243 18.9996 2.739 20.25 3.97707 20.25H20.023C21.2611 20.25 22.1076 18.9996 21.6478 17.8501L20.25 14.3556V5.5C20.25 4.5335 19.4665 3.75 18.5 3.75H5.50003ZM18.9923 15.25H5.00781L3.74495 18.4072C3.67926 18.5714 3.8002 18.75 3.97707 18.75H20.023C20.1999 18.75 20.3208 18.5714 20.2551 18.4072L18.9923 15.25ZM18.75 13.75V5.5C18.75 5.36193 18.6381 5.25 18.5 5.25H5.50003C5.36196 5.25 5.25003 5.36193 5.25003 5.5V13.75H18.75Z" fill="white"/>
<path d="M11.5 6.25C11.0858 6.25 10.75 6.58579 10.75 7C10.75 7.41421 11.0858 7.75 11.5 7.75H12.5C12.9142 7.75 13.25 7.41421 13.25 7C13.25 6.58579 12.9142 6.25 12.5 6.25H11.5Z" fill="#FF385C"/>
<path d="M10 16.25C9.58579 16.25 9.25 16.5858 9.25 17C9.25 17.4142 9.58579 17.75 10 17.75H14C14.4142 17.75 14.75 17.4142 14.75 17C14.75 16.5858 14.4142 16.25 14 16.25H10Z" fill="#FF385C"/>
</svg>
