<svg width="24" height="24" viewBox="0 0 24 24" fill="none" xmlns="http://www.w3.org/2000/svg">
<path fill-rule="evenodd" clip-rule="evenodd" d="M19.1416 2.7709C18.7718 2.03791 17.7252 2.03818 17.3558 2.77136L15.5 6.45456C15.5 7.15973 15.7867 7.79793 16.25 8.25891V19.75C16.25 20.8546 17.1454 21.75 18.25 21.75C19.3546 21.75 20.25 20.8546 20.25 19.75V8.25891C20.7133 7.79793 21 7.15973 21 6.45456L19.1416 2.7709ZM18.75 8.98305C18.6531 8.99426 18.5545 9.00002 18.4545 9.00002H18.0455C17.9455 9.00002 17.8469 8.99426 17.75 8.98305V19.75C17.75 20.0261 17.9739 20.25 18.25 20.25C18.5261 20.25 18.75 20.0261 18.75 19.75V8.98305ZM19.4618 6.73571L18.2491 4.33196L17.0381 6.73539C17.1608 7.17639 17.5653 7.50002 18.0455 7.50002H18.4545C18.9345 7.50002 19.339 7.17655 19.4618 6.73571Z" fill="white"/>
<path d="M3.25 12C3.25 6.61522 7.61522 2.25 13 2.25H15V3.75H13C8.44365 3.75 4.75 7.44365 4.75 12C4.75 16.5563 8.44365 20.25 13 20.25H15V21.75H13C7.61522 21.75 3.25 17.3848 3.25 12Z" fill="white"/>
<path fill-rule="evenodd" clip-rule="evenodd" d="M12.5 4.25C11.2574 4.25 10.25 5.25736 10.25 6.5C10.25 7.74264 11.2574 8.75 12.5 8.75C13.7426 8.75 14.75 7.74264 14.75 6.5C14.75 5.25736 13.7426 4.25 12.5 4.25ZM11.75 6.5C11.75 6.08579 12.0858 5.75 12.5 5.75C12.9142 5.75 13.25 6.08579 13.25 6.5C13.25 6.91421 12.9142 7.25 12.5 7.25C12.0858 7.25 11.75 6.91421 11.75 6.5Z" fill="white"/>
<path fill-rule="evenodd" clip-rule="evenodd" d="M6.25 9.5C6.25 8.25736 7.25736 7.25 8.5 7.25C9.74264 7.25 10.75 8.25736 10.75 9.5C10.75 10.7426 9.74264 11.75 8.5 11.75C7.25736 11.75 6.25 10.7426 6.25 9.5ZM8.5 8.75C8.08579 8.75 7.75 9.08579 7.75 9.5C7.75 9.91421 8.08579 10.25 8.5 10.25C8.91421 10.25 9.25 9.91421 9.25 9.5C9.25 9.08579 8.91421 8.75 8.5 8.75Z" fill="white"/>
<path fill-rule="evenodd" clip-rule="evenodd" d="M8.5 12.25C7.25736 12.25 6.25 13.2574 6.25 14.5C6.25 15.7426 7.25736 16.75 8.5 16.75C9.74264 16.75 10.75 15.7426 10.75 14.5C10.75 13.2574 9.74264 12.25 8.5 12.25ZM7.75 14.5C7.75 14.0858 8.08579 13.75 8.5 13.75C8.91421 13.75 9.25 14.0858 9.25 14.5C9.25 14.9142 8.91421 15.25 8.5 15.25C8.08579 15.25 7.75 14.9142 7.75 14.5Z" fill="white"/>
<path fill-rule="evenodd" clip-rule="evenodd" d="M10.25 17.5C10.25 16.2574 11.2574 15.25 12.5 15.25C13.7426 15.25 14.75 16.2574 14.75 17.5C14.75 18.7426 13.7426 19.75 12.5 19.75C11.2574 19.75 10.25 18.7426 10.25 17.5ZM12.5 16.75C12.0858 16.75 11.75 17.0858 11.75 17.5C11.75 17.9142 12.0858 18.25 12.5 18.25C12.9142 18.25 13.25 17.9142 13.25 17.5C13.25 17.0858 12.9142 16.75 12.5 16.75Z" fill="white"/>
</svg>
