<svg width="24" height="24" viewBox="0 0 24 24" fill="none" xmlns="http://www.w3.org/2000/svg">
<g opacity="0.2">
<path d="M15.5 11.5H13V6L13.5 3.5H14.5L15.5 6V11.5Z" fill="#131313"/>
<path d="M15.5 14.5H13H12.5V20L13 21H15L15.5 20.5V14.5Z" fill="#131313"/>
<path d="M20.5 14.5H17.5V20.5L18 21H20L20.5 20V14.5Z" fill="#131313"/>
<path d="M20.5 11.5H17.5V6L18.5 3H19.5L20.5 6V11.5Z" fill="#131313"/>
</g>
<path fill-rule="evenodd" clip-rule="evenodd" d="M6.14735 10.8903L4.33691 17.5634L3.3913 17.2788L3 18.7211L3.94561 19.0057L3.46044 20.7939L4.82999 21.206L5.31516 19.4177L6.32348 19.7211L6.71477 18.2788L5.70645 17.9755L7.03255 13.0876L8.96133 17.8755L8.09976 18.3292L8.73675 19.6708L9.51869 19.2591L10.1366 20.7929L11.4478 20.207L10.7952 18.5869L11.5854 18.1708L10.9485 16.8292L10.2378 17.2034L7.65521 10.7925L9.57781 3.70603L8.20827 3.29395L6.77002 8.59519L4.80085 3.70703L3.48962 4.29286L6.14735 10.8903Z" fill="#131313"/>
<path fill-rule="evenodd" clip-rule="evenodd" d="M12.5035 3.69867C12.9231 1.93126 15.3082 1.93125 15.7278 3.69867L16.2026 5.69867C16.2355 5.83748 16.2522 5.98003 16.2522 6.12311V20C16.2522 20.9665 15.5082 21.75 14.5904 21.75H13.6409C12.7231 21.75 11.9791 20.9665 11.9791 20V6.12311C11.9791 5.98003 11.9958 5.83748 12.0288 5.69867L12.5035 3.69867ZM13.968 3.91954C13.9386 3.942 13.9048 3.98067 13.8854 4.06247L13.4106 6.06248C13.4059 6.08231 13.4035 6.10267 13.4035 6.12311V10.75H14.8278V6.12311C14.8278 6.10267 14.8254 6.08231 14.8207 6.06248L14.346 4.06247C14.3265 3.98067 14.2927 3.942 14.2634 3.91954C14.2281 3.89262 14.1765 3.87311 14.1157 3.87311C14.0548 3.87311 14.0032 3.89262 13.968 3.91954ZM14.8278 12.25H13.4035V13.75H14.8278V12.25ZM14.8278 15.25H13.4035V20C13.4035 20.1381 13.5098 20.25 13.6409 20.25H14.5904C14.7215 20.25 14.8278 20.1381 14.8278 20V15.25Z" fill="#131313"/>
<path fill-rule="evenodd" clip-rule="evenodd" d="M17.2514 3.69867C17.6709 1.93126 20.056 1.93125 20.4756 3.69867L20.9504 5.69867C20.9833 5.83748 21 5.98003 21 6.12311V20C21 20.9665 20.256 21.75 19.3383 21.75H18.3887C17.4709 21.75 16.727 20.9665 16.727 20V6.12311C16.727 5.98003 16.7436 5.83748 16.7766 5.69867L17.2514 3.69867ZM18.7158 3.91954C18.6864 3.942 18.6526 3.98067 18.6332 4.06247L18.1584 6.06248C18.1537 6.08231 18.1513 6.10267 18.1513 6.12311V10.75H19.5757V6.12311C19.5757 6.10267 19.5733 6.08231 19.5686 6.06248L19.0938 4.06247C19.0744 3.98067 19.0406 3.942 19.0112 3.91954C18.9759 3.89262 18.9243 3.87311 18.8635 3.87311C18.8027 3.87311 18.751 3.89262 18.7158 3.91954ZM19.5757 12.25H18.1513V13.75H19.5757V12.25ZM19.5757 15.25H18.1513V20C18.1513 20.1381 18.2576 20.25 18.3887 20.25H19.3383C19.4694 20.25 19.5757 20.1381 19.5757 20V15.25Z" fill="#131313"/>
</svg>
