<svg width="24" height="24" viewBox="0 0 24 24" fill="none" xmlns="http://www.w3.org/2000/svg">
<path opacity="0.2" d="M8.64804 5.39012L3.67492 16.7573C3.25027 17.7279 3.30979 18.8422 3.83543 19.7621C4.43188 20.8058 5.54188 21.45 6.74405 21.45H6.9237C7.87933 21.45 8.80651 21.1248 9.55274 20.5278L10.2037 20.007C10.8174 19.5161 11.3952 18.9847 11.9337 18.4172L9.99997 16L8.99997 14L9.49997 12L10.5 11L11.5 10.5H13L14.5 11.5L15 13.5L14 16L12.0662 18.4172C12.6047 18.9847 13.1826 19.5161 13.7962 20.007L14.4472 20.5278C15.1934 21.1248 16.1206 21.45 17.0762 21.45H17.2559C18.4581 21.45 19.5681 20.8058 20.1645 19.7621C20.6901 18.8422 20.7497 17.7279 20.325 16.7572L15.3519 5.39012C14.9369 4.44146 14.1393 3.7131 13.1569 3.38566C12.4059 3.13532 11.594 3.13532 10.843 3.38566C9.86066 3.7131 9.06308 4.44146 8.64804 5.39012Z" fill="white"/>
<path fill-rule="evenodd" clip-rule="evenodd" d="M12.9435 4.02602C12.3311 3.82187 11.6689 3.82187 11.0565 4.02602C10.2554 4.29305 9.60492 4.88704 9.26646 5.66067L4.29334 17.0278C3.95425 17.8029 4.00178 18.6926 4.42151 19.4272C4.89777 20.2606 5.78412 20.775 6.74406 20.775H6.92371C7.72607 20.775 8.50454 20.5019 9.13108 20.0007L9.78208 19.4799C10.2335 19.1187 10.6648 18.7348 11.0744 18.33C10.2226 17.3536 9.47747 16.285 8.85399 15.142L8.80204 15.0467C8.06861 13.7021 8.26079 12.0406 9.27736 10.8969C10.7248 9.26858 13.2752 9.26858 14.7226 10.8969C15.7392 12.0406 15.9314 13.7021 15.1979 15.0467L15.146 15.142C14.5225 16.285 13.7774 17.3536 12.9256 18.33C13.3352 18.7348 13.7664 19.1187 14.2179 19.4799L14.8689 20.0007C15.4954 20.5019 16.2739 20.775 17.0762 20.775H17.2559C18.2158 20.775 19.1022 20.2606 19.5785 19.4272C19.9982 18.6926 20.0457 17.8029 19.7066 17.0278L14.7335 5.66067C14.395 4.88704 13.7446 4.29305 12.9435 4.02602ZM12 19.3132C12.4361 19.7427 12.8948 20.1503 13.3745 20.5341L14.0255 21.0549C14.8915 21.7476 15.9673 22.125 17.0762 22.125H17.2559C18.7003 22.125 20.034 21.351 20.7506 20.097C21.3821 18.9917 21.4537 17.6529 20.9434 16.4867L15.9703 5.11957C15.4787 3.99589 14.534 3.13315 13.3704 2.7453C12.4809 2.44878 11.5191 2.44878 10.6295 2.7453C9.46598 3.13315 8.52125 3.99589 8.02965 5.11957L3.05653 16.4867C2.54631 17.6529 2.61783 18.9917 3.24938 20.097C3.966 21.351 5.29966 22.125 6.74406 22.125H6.92371C8.03262 22.125 9.10851 21.7476 9.97442 21.0549L10.6254 20.5341C11.1052 20.1503 11.5639 19.7427 12 19.3132ZM12 17.3365C12.7493 16.4628 13.4069 15.5109 13.9608 14.4955L14.0128 14.4003C14.4727 13.5571 14.3527 12.5128 13.7136 11.7938C12.8032 10.7696 11.1968 10.7696 10.2864 11.7938C9.64723 12.5128 9.52727 13.5571 9.9872 14.4003L10.0391 14.4955C10.593 15.5109 11.2507 16.4628 12 17.3365Z" fill="white"/>
</svg>
