<svg width="24" height="24" viewBox="0 0 24 24" fill="none" xmlns="http://www.w3.org/2000/svg">
<path fill-rule="evenodd" clip-rule="evenodd" d="M5.5 5.25C4.80964 5.25 4.25 5.80964 4.25 6.5V17.5C4.25 18.1904 4.80964 18.75 5.5 18.75H18.5C19.1904 18.75 19.75 18.1904 19.75 17.5V6.5C19.75 5.80964 19.1904 5.25 18.5 5.25H5.5ZM2.75 6.5C2.75 4.98122 3.98122 3.75 5.5 3.75H18.5C20.0188 3.75 21.25 4.98122 21.25 6.5V17.5C21.25 19.0188 20.0188 20.25 18.5 20.25H5.5C3.98122 20.25 2.75 19.0188 2.75 17.5V6.5Z" fill="#131313"/>
<path fill-rule="evenodd" clip-rule="evenodd" d="M14.25 7.25H9.75V9.75H7.25V14.25H9.75V16.75H14.25V14.25H16.75V9.75H14.25V7.25ZM8.75 12.75V11.25H11.25V8.75H12.75V11.25H15.25V12.75H12.75V15.25H11.25V12.75H8.75Z" fill="#FF385C"/>
</svg>
