<svg width="24" height="24" viewBox="0 0 24 24" fill="none" xmlns="http://www.w3.org/2000/svg">
<path fill-rule="evenodd" clip-rule="evenodd" d="M4.69814 19.75H19.302L19.8254 20.8277L21.1747 20.1723L18.7501 15.1804V4.5H17.2501V12.0922L13.1245 3.59828C12.6686 2.65979 11.3315 2.65979 10.8757 3.59828L2.82544 20.1723L4.1747 20.8277L4.69814 19.75ZM12.0001 4.71662L14.202 9.25H9.79814L12.0001 4.71662ZM5.42671 18.25L9.06957 10.75H14.9306L18.5734 18.25H15.2501V15.5C15.2501 13.9812 14.0188 12.75 12.5001 12.75H11.5001C9.98128 12.75 8.75006 13.9812 8.75006 15.5V18.25H5.42671ZM10.2501 18.25H13.7501V15.5C13.7501 14.8096 13.1904 14.25 12.5001 14.25H11.5001C10.8097 14.25 10.2501 14.8096 10.2501 15.5V18.25Z" fill="white"/>
<path fill-rule="evenodd" clip-rule="evenodd" d="M11.5 14.25C10.8096 14.25 10.25 14.8096 10.25 15.5V18.25H8.75V15.5C8.75 13.9812 9.98122 12.75 11.5 12.75H12.5C14.0188 12.75 15.25 13.9812 15.25 15.5V18.25H13.75V15.5C13.75 14.8096 13.1904 14.25 12.5 14.25H11.5Z" fill="#FF385C"/>
</svg>
