<svg width="24" height="24" viewBox="0 0 24 24" fill="none" xmlns="http://www.w3.org/2000/svg">
<path opacity="0.25" d="M6.38302 10.734L7.3 8.9C7.42982 8.64036 7.64036 8.42982 7.9 8.3C8.27771 8.11115 8.72229 8.11115 9.1 8.3L9.32918 8.41459C9.44152 8.47076 9.56539 8.5 9.69098 8.5H10.0698C10.3074 8.5 10.5 8.3074 10.5 8.06981C10.5 8.02357 10.5075 7.97764 10.5221 7.93377L11 6.5L11.417 4.8321C11.4713 4.61479 11.5837 4.41633 11.7421 4.25794C12.177 3.82304 12.8655 3.77411 13.3575 4.14313L14.0721 4.67907C14.3535 4.89012 14.5819 5.1638 14.7392 5.47841L15.5 7L17 9.5L17.7875 10.8124C18.2537 11.5895 18.5 12.4787 18.5 13.3849V13.8845C18.5 14.2933 18.4499 14.7005 18.3507 15.0971L18.1805 15.7782C18.0608 16.2568 17.871 16.715 17.6172 17.138L16.6755 18.7076C16.5609 18.8986 16.3942 19.0529 16.195 19.1525L15.3129 19.5935C14.9394 19.7803 14.5 19.5087 14.5 19.0912C14.5 19.0308 14.5097 18.9708 14.5288 18.9135L14.8447 17.9659C14.9476 17.6573 15 17.3342 15 17.0089C15 16.354 14.7876 15.7168 14.3947 15.1929L13.5 14L12.5353 12.553C12.5118 12.5178 12.4849 12.4849 12.455 12.455C12.2037 12.2037 11.7963 12.2037 11.545 12.455L10.7094 13.2906C10.5707 13.4293 10.4553 13.5895 10.3675 13.7649L9.74546 15.0091C9.58231 15.3354 9.45536 15.6786 9.36688 16.0325L9.05317 17.2873C9.01786 17.4286 9 17.5736 9 17.7192V19.1464C9 19.3417 8.84171 19.5 8.64645 19.5C8.55268 19.5 8.46275 19.4628 8.39645 19.3964L7.34367 18.3437C7.11542 18.1154 6.91602 17.86 6.74995 17.5832L6.388 16.98C5.81266 16.0211 5.57538 14.897 5.71408 13.7874L5.89377 12.3498C5.96408 11.7874 6.12952 11.241 6.38302 10.734Z" fill="#131313"/>
<path fill-rule="evenodd" clip-rule="evenodd" d="M13.8658 3.56741C12.9397 2.45601 11.1416 2.88455 10.8163 4.29423L10.0548 7.59377C10.0184 7.75143 9.84414 7.83352 9.69942 7.76116L8.84482 7.33386C7.90567 6.86428 6.7673 7.32169 6.41415 8.31052L5.38178 11.2011C4.61796 13.3398 4.76034 15.6977 5.77596 17.7289C6.53929 19.2556 7.87783 20.4165 9.49711 20.9562L9.86548 21.079C11.251 21.5409 12.749 21.5409 14.1346 21.079L14.4643 20.9691C16.1083 20.4211 17.4673 19.2425 18.2423 17.6925L18.3122 17.5526C19.2711 15.6349 19.4289 13.4148 18.7509 11.3808C18.0345 9.2316 16.9224 7.23534 15.4721 5.49497L13.8658 3.56741ZM12.2778 4.63152C12.3243 4.43014 12.5812 4.36891 12.7135 4.52769L14.3198 6.45525C15.6504 8.05193 16.6706 9.88338 17.3278 11.8551C17.88 13.5118 17.7515 15.3199 16.9706 16.8818L16.9006 17.0217C16.6218 17.5794 16.2448 18.0747 15.7932 18.4872C16.1078 17.4455 15.9538 16.3162 15.3677 15.3952L13.4764 12.4231C12.7887 11.3425 11.2112 11.3425 10.5236 12.4231L8.63224 15.3952C8.04333 16.3206 7.8907 17.4563 8.2113 18.5022C7.76499 18.0963 7.39262 17.6081 7.1176 17.0581C6.28484 15.3926 6.1681 13.4593 6.79439 11.7057L7.82676 8.81502C7.87721 8.67376 8.03983 8.60842 8.174 8.6755L9.0286 9.1028C10.0417 9.60933 11.2617 9.03468 11.5164 7.93105L12.2778 4.63152ZM11.7891 13.2284C11.8873 13.074 12.1127 13.074 12.2109 13.2284L14.1022 16.2005C14.465 16.7705 14.5515 17.4736 14.3379 18.1146C14.0832 18.8785 13.4388 19.4474 12.6493 19.6053L12.4936 19.6364C12.1678 19.7016 11.8322 19.7016 11.5063 19.6364L11.3507 19.6053C10.5611 19.4474 9.91671 18.8785 9.66209 18.1146C9.44843 17.4736 9.53499 16.7705 9.89774 16.2005L11.7891 13.2284Z" fill="#131313"/>
</svg>
