<svg width="24" height="24" viewBox="0 0 24 24" fill="none" xmlns="http://www.w3.org/2000/svg">
<path opacity="0.2" fill-rule="evenodd" clip-rule="evenodd" d="M5 4.5H19L20.5 5L21 6.5V18L19.5 19.5H5L3.5 19L3 18V6L3.5 5L5 4.5ZM10.5 17C13.2614 17 15.5 14.7614 15.5 12C15.5 9.23858 13.2614 7 10.5 7C7.73858 7 5.5 9.23858 5.5 12C5.5 14.7614 7.73858 17 10.5 17Z" fill="#131313"/>
<path d="M17.75 15.1893V6.5H19.25V15.8107L17.0303 18.0303L15.9697 16.9697L17.75 15.1893Z" fill="#131313"/>
<path d="M10.5 12.75C10.9142 12.75 11.25 12.4142 11.25 12C11.25 11.5858 10.9142 11.25 10.5 11.25C10.0858 11.25 9.75 11.5858 9.75 12C9.75 12.4142 10.0858 12.75 10.5 12.75Z" fill="#131313"/>
<path fill-rule="evenodd" clip-rule="evenodd" d="M10.5 18C13.8137 18 16.5 15.3137 16.5 12C16.5 8.68629 13.8137 6 10.5 6C7.18629 6 4.5 8.68629 4.5 12C4.5 15.3137 7.18629 18 10.5 18ZM10.5 16.5C12.9853 16.5 15 14.4853 15 12C15 9.51472 12.9853 7.5 10.5 7.5C8.01472 7.5 6 9.51472 6 12C6 14.4853 8.01472 16.5 10.5 16.5Z" fill="#131313"/>
<path fill-rule="evenodd" clip-rule="evenodd" d="M2.25 6.5C2.25 4.98122 3.48122 3.75 5 3.75H19C20.5188 3.75 21.75 4.98122 21.75 6.5V17.5C21.75 19.0188 20.5188 20.25 19 20.25H5C3.48122 20.25 2.25 19.0188 2.25 17.5V6.5ZM5 5.25C4.30964 5.25 3.75 5.80964 3.75 6.5V17.5C3.75 18.1904 4.30964 18.75 5 18.75H19C19.6904 18.75 20.25 18.1904 20.25 17.5V6.5C20.25 5.80964 19.6904 5.25 19 5.25H5Z" fill="#131313"/>
</svg>
