<svg width="24" height="24" viewBox="0 0 24 24" fill="none" xmlns="http://www.w3.org/2000/svg">
<path fill-rule="evenodd" clip-rule="evenodd" d="M12.25 4.64187C12.25 4.39815 11.9369 4.29849 11.796 4.49736L6.22979 12.3555C6.11251 12.5211 6.2309 12.7501 6.43379 12.7501H9.50001C10.4665 12.7501 11.25 13.5336 11.25 14.5001V19.3582C11.25 19.602 11.5631 19.7016 11.704 19.5027L17.2702 11.6446C17.3875 11.479 17.2691 11.2501 17.0662 11.2501H14C13.0335 11.2501 12.25 10.4666 12.25 9.50005V4.64187ZM10.572 3.63034C11.5581 2.2382 13.75 2.93587 13.75 4.64187V9.50005C13.75 9.63812 13.8619 9.75005 14 9.75005H17.0662C18.4865 9.75005 19.3152 11.3526 18.4943 12.5116L12.9281 20.3698C11.942 21.7619 9.75001 21.0642 9.75001 19.3582V14.5001C9.75001 14.362 9.63808 14.2501 9.50001 14.2501H6.43379C5.01356 14.2501 4.18483 12.6475 5.00575 11.4885L10.572 3.63034Z" fill="#131313"/>
</svg>
