<svg width="24" height="24" viewBox="0 0 24 24" fill="none" xmlns="http://www.w3.org/2000/svg">
<path fill-rule="evenodd" clip-rule="evenodd" d="M11.5306 3.77174C11.7808 2.83818 12.7404 2.28416 13.674 2.53431L17.5377 3.56958C18.4712 3.81973 19.0252 4.77932 18.7751 5.71289L18.3869 7.16178C18.3649 7.24378 18.3374 7.32286 18.305 7.39872L20.0125 7.85624L19.6243 9.30513L18.8999 9.11103L18.3823 11.0429L19.1067 11.237L18.7185 12.6859L17.994 12.4918L17.347 14.9066L18.0714 15.1007L17.6832 16.5496L16.9588 16.3555L16.3117 18.7703L17.0361 18.9644L16.6479 20.4133L15.9235 20.2192L15.8479 20.5013H22H2H6.01277L6.74719 17.7604L6.02272 17.5663L6.41095 16.1174L7.13542 16.3115L7.78247 13.8967L7.058 13.7026L7.44623 12.2537L8.1707 12.4478L8.81775 10.033L8.09328 9.83886L8.48151 8.38997L9.20598 8.58409L9.72361 6.65225L8.9991 6.45812L9.38733 5.00923L11.0948 5.46675C11.1047 5.38484 11.1204 5.30264 11.1424 5.22063L11.5306 3.77174ZM11.1725 7.04048L10.6549 8.97232L11.6208 9.23114L12.1384 7.2993L11.1725 7.04048ZM13.5873 7.68753L13.0697 9.61937L14.5186 10.0076L15.0362 8.07576L13.5873 7.68753ZM16.4851 8.46398L15.9675 10.3958L16.9334 10.6546L17.451 8.7228L16.4851 8.46398ZM16.5452 12.1035L15.5792 11.8447L14.9322 14.2595L15.8981 14.5184L16.5452 12.1035ZM15.5099 15.9672L14.544 15.7084L13.8969 18.1232L14.8628 18.3821L15.5099 15.9672ZM14.4746 19.8309L8.19608 18.1486L7.56568 20.5013H14.295L14.4746 19.8309ZM8.58431 16.6997L9.55024 16.9586L10.1973 14.5437L9.23136 14.2849L8.58431 16.6997ZM9.61959 12.836L10.5855 13.0948L11.2326 10.68L10.2666 10.4212L9.61959 12.836ZM12.6815 11.0683L12.0344 13.4831L13.4833 13.8713L14.1303 11.4565L12.6815 11.0683ZM13.0951 15.3202L11.6462 14.932L10.9991 17.3468L12.448 17.735L13.0951 15.3202ZM13.2857 3.9832C13.1524 3.94746 13.0153 4.02661 12.9795 4.15997L12.5913 5.60886C12.5556 5.74223 12.6347 5.87931 12.7681 5.91505L16.6318 6.95032C16.7652 6.98606 16.9022 6.90691 16.938 6.77355L17.3262 5.32466C17.3619 5.19129 17.2828 5.05421 17.1494 5.01847L13.2857 3.9832Z" fill="#131313"/>
<rect x="2" y="20.5" width="20" height="1.5" fill="#FF385C"/>
</svg>
