<svg width="24" height="24" viewBox="0 0 24 24" fill="none" xmlns="http://www.w3.org/2000/svg">
<path fill-rule="evenodd" clip-rule="evenodd" d="M15 5.25C13.4812 5.25 12.25 6.48122 12.25 8C12.25 9.51878 13.4812 10.75 15 10.75C16.5188 10.75 17.75 9.51878 17.75 8C17.75 6.48122 16.5188 5.25 15 5.25ZM13.75 8C13.75 7.30964 14.3096 6.75 15 6.75C15.6904 6.75 16.25 7.30964 16.25 8C16.25 8.69036 15.6904 9.25 15 9.25C14.3096 9.25 13.75 8.69036 13.75 8Z" fill="#FF385C"/>
<path d="M6 12.1566C6.33421 12.0516 6.68141 12 7.02522 12C7.81536 12 8.62347 12.2725 9.25045 12.8404C9.5431 13.1055 9.94119 13.2495 10.3572 13.2495C10.7733 13.2495 11.1714 13.1055 11.464 12.8404C12.091 12.2725 12.8991 12 13.6892 12C14.4794 12 15.2875 12.2725 15.9145 12.8404C16.2071 13.1055 16.6052 13.2495 17.0213 13.2495C17.4373 13.2495 17.8354 13.1055 18.128 12.8404C18.4609 12.5389 18.8448 12.3206 19.25 12.1822V14.072L19.2465 14.0751C18.6195 14.6431 17.8114 14.9155 17.0213 14.9155C16.2311 14.9155 15.423 14.6431 14.796 14.0751C14.5034 13.8101 14.1053 13.666 13.6892 13.666C13.2732 13.666 12.8751 13.8101 12.5825 14.0751C11.9555 14.6431 11.1474 14.9155 10.3572 14.9155C9.56709 14.9155 8.75899 14.6431 8.132 14.0751C7.8664 13.8346 7.51396 13.6937 7.14006 13.6697L6.53979 13.754L5.5 13.5L5 12.5L6 12.1566Z" fill="#FF385C"/>
<path d="M7.75 17.3351C7.88006 17.3984 8.00039 17.4788 8.10678 17.5751C8.73377 18.1431 9.54187 18.4155 10.332 18.4155C11.1222 18.4155 11.9303 18.1431 12.5572 17.5751C12.8499 17.3101 13.248 17.166 13.664 17.166C14.0801 17.166 14.4782 17.3101 14.7708 17.5751C15.3978 18.1431 16.2059 18.4155 16.996 18.4155C17.7862 18.4155 18.5943 18.1431 19.2213 17.5751C19.2307 17.5666 19.2403 17.5581 19.25 17.5498V15.6737C18.8355 15.8116 18.4426 16.0326 18.1028 16.3404C17.8102 16.6055 17.4121 16.7495 16.996 16.7495C16.58 16.7495 16.1819 16.6055 15.8893 16.3404C15.2623 15.7725 14.4542 15.5 13.664 15.5C12.8739 15.5 12.0658 15.7725 11.4388 16.3404C11.1461 16.6055 10.7481 16.7495 10.332 16.7495C9.91597 16.7495 9.51788 16.6055 9.22523 16.3404C8.79194 15.9479 8.27215 15.6965 7.73157 15.5787L7.18308 15.6575L7.75 17.3351Z" fill="#FF385C"/>
<path fill-rule="evenodd" clip-rule="evenodd" d="M6 21.75C6.6981 21.75 7.30073 21.3412 7.58159 20.75H21.5V19.25H20.75V4.75H21.5V3.25H8.58159C8.30073 2.65876 7.6981 2.25 7 2.25H4C3.0335 2.25 2.25 3.0335 2.25 4V20C2.25 20.9665 3.0335 21.75 4 21.75H6ZM3.75 4C3.75 3.86193 3.86193 3.75 4 3.75H7C7.13807 3.75 7.25 3.86193 7.25 4V7C7.25 9.0913 5.73951 10.8298 3.75 11.184V4ZM8.75 7C8.75 9.20424 7.5097 11.1188 5.68893 12.0838C5.74594 12.1231 5.85723 12.2051 5.85723 12.2051C5.85723 12.2051 6.5 12.5 7.14006 13.6697C7.78012 14.8394 7.67101 14.8896 7.73157 15.5787L7.75 17.3351V19.25H19.25C19.25 19.25 19.25 18.5996 19.25 17.5498C19.25 16.5 19.25 15.723 19.25 15.6737V14.072L19.2465 14.0751C19.25 13.8141 19.25 12.1822 19.25 12.1822V4.75H8.75V7ZM3.75 20V12.837C5.18335 13.1755 6.25 14.4632 6.25 16V20C6.25 20.1381 6.13807 20.25 6 20.25H4C3.86193 20.25 3.75 20.1381 3.75 20Z" fill="#131313"/>
</svg>
