<svg width="24" height="24" viewBox="0 0 24 24" fill="none" xmlns="http://www.w3.org/2000/svg">
<path fill-rule="evenodd" clip-rule="evenodd" d="M5.65874 9.25H4.91488L6.28623 16.1068C6.78403 16.2341 7.25983 16.4767 7.66136 16.8404C7.95401 17.1055 8.3521 17.2495 8.76814 17.2495C9.18418 17.2495 9.58227 17.1055 9.87492 16.8404C10.5019 16.2725 11.31 16 12.1002 16C12.8903 16 13.6984 16.2725 14.3254 16.8404C14.618 17.1055 15.0161 17.2495 15.4322 17.2495C15.8482 17.2495 16.2463 17.1055 16.5389 16.8404C17.1659 16.2725 17.974 16 18.7642 16C18.9259 16 19.0885 16.0114 19.25 16.0345V15.75H16.4751C14.7004 15.75 12.9818 15.1278 11.6184 13.9916L11.3886 13.8001C10.7362 13.2564 10.2033 12.5836 9.82344 11.8239C9.0347 10.2465 7.42241 9.25 5.65874 9.25ZM19.1715 17.7133C19.0399 17.6821 18.903 17.666 18.7642 17.666C18.3481 17.666 17.95 17.8101 17.6574 18.0751C17.0304 18.6431 16.2223 18.9155 15.4322 18.9155C14.642 18.9155 13.8339 18.6431 13.2069 18.0751C12.9143 17.8101 12.5162 17.666 12.1002 17.666C11.6841 17.666 11.286 17.8101 10.9934 18.0751C10.3664 18.6431 9.55828 18.9155 8.76814 18.9155C8.04563 18.9155 7.30811 18.6877 6.70778 18.2145L6.75313 18.4413C6.96347 19.493 7.8869 20.25 8.95943 20.25H16C17.5499 20.25 18.8464 19.1651 19.1715 17.7133ZM2.5 9.25H3.38517L5.28226 18.7354C5.63283 20.4883 7.17188 21.75 8.95943 21.75H16C18.6234 21.75 20.75 19.6233 20.75 17V15.75H21.5V14.25H16.4751C15.0513 14.25 13.6725 13.7508 12.5787 12.8393L12.3489 12.6478C11.8554 12.2366 11.4524 11.7277 11.1651 11.1531C10.1223 9.06746 7.99056 7.75 5.65874 7.75H2.5V9.25Z" fill="#131313"/>
<path fill-rule="evenodd" clip-rule="evenodd" d="M15.0001 5.5C15.0001 6.88071 13.8808 8 12.5001 8C11.1193 8 10.0001 6.88071 10.0001 5.5C10.0001 4.11929 11.1193 3 12.5001 3C13.8808 3 15.0001 4.11929 15.0001 5.5ZM13.5001 5.5C13.5001 6.05228 13.0523 6.5 12.5001 6.5C11.9478 6.5 11.5001 6.05228 11.5001 5.5C11.5001 4.94772 11.9478 4.5 12.5001 4.5C13.0523 4.5 13.5001 4.94772 13.5001 5.5Z" fill="#FF385C"/>
<path fill-rule="evenodd" clip-rule="evenodd" d="M18.0001 13C19.6569 13 21.0001 11.6569 21.0001 10C21.0001 8.34315 19.6569 7 18.0001 7C16.3432 7 15.0001 8.34315 15.0001 10C15.0001 11.6569 16.3432 13 18.0001 13ZM19.5001 10C19.5001 10.8284 18.8285 11.5 18.0001 11.5C17.1716 11.5 16.5001 10.8284 16.5001 10C16.5001 9.17157 17.1716 8.5 18.0001 8.5C18.8285 8.5 19.5001 9.17157 19.5001 10Z" fill="#FF385C"/>
<path d="M18.7643 17.666C18.3482 17.666 17.9501 17.8101 17.6575 18.0751C17.0305 18.6431 16.2224 18.9155 15.4323 18.9155C14.6421 18.9155 13.834 18.6431 13.207 18.0751C12.9144 17.8101 12.5163 17.666 12.1002 17.666C11.6842 17.666 11.2861 17.8101 10.9935 18.0751C10.3665 18.6431 9.55838 18.9155 8.76823 18.9155C8.04561 18.9155 7.30796 18.6876 6.70757 18.2143L6.29517 16.109C6.78976 16.237 7.2623 16.4788 7.66145 16.8404C7.9541 17.1055 8.35219 17.2495 8.76823 17.2495C9.18428 17.2495 9.58236 17.1055 9.87502 16.8404C10.502 16.2725 11.3101 16 12.1002 16C12.8904 16 13.6985 16.2725 14.3255 16.8404C14.6181 17.1055 15.0162 17.2495 15.4323 17.2495C15.8483 17.2495 16.2464 17.1055 16.539 16.8404C17.166 16.2725 17.9741 16 18.7643 16C18.929 16 19.0945 16.0118 19.259 16.0357C19.2892 16.3332 19.3148 17.0854 19.1749 17.7141C19.0423 17.6823 18.9043 17.666 18.7643 17.666Z" fill="#FF385C"/>
</svg>
