<svg width="24" height="24" viewBox="0 0 24 24" fill="none" xmlns="http://www.w3.org/2000/svg">
<path fill-rule="evenodd" clip-rule="evenodd" d="M11.9999 3C10.3431 3 8.99995 4.34315 8.99995 6C7.34309 6 5.99995 7.34315 5.99995 9C5.99995 10.6569 7.34309 12 8.99995 12C8.99995 13.3979 9.95603 14.5725 11.2499 14.9055V17.4143C9.53331 15.4297 6.51032 14.8317 4.09729 16.3673L4.9026 17.6327C7.19903 16.1714 10.2537 17.3623 10.955 19.9923L11.2753 21.1932C11.3628 21.5216 11.6602 21.75 11.9999 21.75C12.3397 21.75 12.6371 21.5216 12.7246 21.1932L13.0449 19.9923C13.7462 17.3623 16.8009 16.1714 19.0973 17.6327L19.9026 16.3673C17.4896 14.8317 14.4666 15.4297 12.7499 17.4143V14.9055C14.0439 14.5725 14.9999 13.3979 14.9999 12C16.6568 12 17.9999 10.6569 17.9999 9C17.9999 7.34315 16.6568 6 14.9999 6C14.9999 4.34315 13.6568 3 11.9999 3ZM11.9999 6C11.4729 6 10.9775 6.13592 10.5471 6.37463C10.5163 6.25489 10.4999 6.12936 10.4999 6C10.4999 5.17157 11.1715 4.5 11.9999 4.5C12.8284 4.5 13.4999 5.17157 13.4999 6C13.4999 6.12936 13.4836 6.25489 13.4528 6.37463C13.0223 6.13593 12.527 6 11.9999 6ZM10.4999 12C10.4999 11.8706 10.5163 11.7451 10.5471 11.6254C10.9775 11.8641 11.4729 12 11.9999 12C12.527 12 13.0223 11.8641 13.4528 11.6254C13.4836 11.7451 13.4999 11.8706 13.4999 12C13.4999 12.8284 12.8284 13.5 11.9999 13.5C11.1715 13.5 10.4999 12.8284 10.4999 12ZM14.6253 10.4528C14.864 10.0224 14.9999 9.52707 14.9999 9C14.9999 8.47293 14.864 7.9776 14.6253 7.54716C14.7451 7.51637 14.8706 7.5 14.9999 7.5C15.8284 7.5 16.4999 8.17157 16.4999 9C16.4999 9.82843 15.8284 10.5 14.9999 10.5C14.8706 10.5 14.7451 10.4836 14.6253 10.4528ZM9.37458 10.4528C9.25483 10.4836 9.1293 10.5 8.99995 10.5C8.17152 10.5 7.49995 9.82843 7.49995 9C7.49995 8.17157 8.17152 7.5 8.99995 7.5C9.1293 7.5 9.25483 7.51637 9.37458 7.54716C9.13587 7.9776 8.99995 8.47293 8.99995 9C8.99995 9.52707 9.13587 10.0224 9.37458 10.4528ZM11.9999 10.75C12.9664 10.75 13.7499 9.9665 13.7499 9C13.7499 8.0335 12.9664 7.25 11.9999 7.25C11.0334 7.25 10.2499 8.0335 10.2499 9C10.2499 9.9665 11.0334 10.75 11.9999 10.75Z" fill="#131313"/>
<path fill-rule="evenodd" clip-rule="evenodd" d="M12 3C10.3431 3 9 4.34315 9 6C7.34315 6 6 7.34315 6 9C6 10.6569 7.34315 12 9 12C9 13.3979 9.95608 14.5725 11.25 14.9055C12 15 12 15 12.75 14.9055C14.0439 14.5725 15 13.3979 15 12C16.6569 12 18 10.6569 18 9C18 7.34315 16.6569 6 15 6C15 4.34315 13.6569 3 12 3ZM12 6C11.4729 6 10.9776 6.13592 10.5472 6.37463C10.5164 6.25489 10.5 6.12936 10.5 6C10.5 5.17157 11.1716 4.5 12 4.5C12.8284 4.5 13.5 5.17157 13.5 6C13.5 6.12936 13.4836 6.25489 13.4528 6.37463C13.0224 6.13593 12.5271 6 12 6ZM10.5 12C10.5 11.8706 10.5164 11.7451 10.5472 11.6254C10.9776 11.8641 11.4729 12 12 12C12.5271 12 13.0224 11.8641 13.4528 11.6254C13.4836 11.7451 13.5 11.8706 13.5 12C13.5 12.8284 12.8284 13.5 12 13.5C11.1716 13.5 10.5 12.8284 10.5 12ZM14.6254 10.4528C14.8641 10.0224 15 9.52707 15 9C15 8.47293 14.8641 7.9776 14.6254 7.54716C14.7451 7.51637 14.8706 7.5 15 7.5C15.8284 7.5 16.5 8.17157 16.5 9C16.5 9.82843 15.8284 10.5 15 10.5C14.8706 10.5 14.7451 10.4836 14.6254 10.4528ZM9.37463 10.4528C9.25489 10.4836 9.12936 10.5 9 10.5C8.17157 10.5 7.5 9.82843 7.5 9C7.5 8.17157 8.17157 7.5 9 7.5C9.12936 7.5 9.25489 7.51637 9.37463 7.54716C9.13593 7.9776 9 8.47293 9 9C9 9.52707 9.13593 10.0224 9.37463 10.4528ZM12 10.75C12.9665 10.75 13.75 9.9665 13.75 9C13.75 8.0335 12.9665 7.25 12 7.25C11.0335 7.25 10.25 8.0335 10.25 9C10.25 9.9665 11.0335 10.75 12 10.75Z" fill="#FF385C"/>
</svg>
