<svg width="24" height="24" viewBox="0 0 24 24" fill="none" xmlns="http://www.w3.org/2000/svg">
<path fill-rule="evenodd" clip-rule="evenodd" d="M11.7863 2.19079C12.1044 2.09622 12.4469 2.222 12.6282 2.5L19.1198 11.6806C19.8789 12.8446 19.0437 14.3866 17.654 14.3866H12.75V15.2539H20.077C20.455 15.2925 20.75 15.6118 20.75 16C20.75 16.8344 20.5096 17.6126 20.0942 18.2691C20.4156 18.4059 20.7193 18.5957 20.9894 18.8404C21.2575 19.0833 21.6142 19.2245 21.9921 19.2465V20.9139C21.2355 20.891 20.4704 20.6181 19.871 20.0752C19.5783 19.8101 19.1802 19.666 18.7642 19.666C18.3481 19.666 17.95 19.8101 17.6574 20.0752C17.0304 20.6431 16.2223 20.9155 15.4322 20.9155C14.642 20.9155 13.8339 20.6431 13.2069 20.0752C12.9143 19.8101 12.5162 19.666 12.1002 19.666C11.6841 19.666 11.286 19.8101 10.9934 20.0752C10.3664 20.6431 9.55828 20.9155 8.76814 20.9155C7.97799 20.9155 7.16989 20.6431 6.54291 20.0752C6.25026 19.8101 5.85217 19.666 5.43613 19.666C5.02008 19.666 4.62199 19.8101 4.32934 20.0752C3.70236 20.6431 2.89426 20.9155 2.10411 20.9155H2.06237C2.04816 20.9155 2.04095 20.9157 2.03501 20.9158C2.02646 20.916 2.02048 20.9162 2 20.9155V19.2459C2.03757 19.2483 2.07535 19.2495 2.11328 19.2495C2.526 19.2474 2.92039 19.1035 3.21089 18.8404C3.43726 18.6353 3.68723 18.4688 3.95145 18.3397C3.5081 17.6687 3.25 16.8645 3.25 16C3.25 15.6118 3.54495 15.2925 3.92298 15.2539H11.25V8.6597C11.25 8.6597 11.25 7 11.25 3.1597V2.9097C11.25 2.5778 11.4681 2.28537 11.7863 2.19079ZM12.75 12.8866H17.654C17.8525 12.8866 17.9718 12.6663 17.8634 12.5L12.75 5.43265V12.8866ZM19.1465 16.75C19.0063 17.2456 18.7307 17.6843 18.3622 18.0236C17.7056 18.1008 17.0598 18.3686 16.5389 18.8404C16.2463 19.1055 15.8482 19.2495 15.4322 19.2495C15.0161 19.2495 14.618 19.1055 14.3254 18.8404C13.6984 18.2725 12.8903 18 12.1002 18C11.31 18 10.5019 18.2725 9.87492 18.8404C9.58227 19.1055 9.18418 19.2495 8.76814 19.2495C8.3521 19.2495 7.95401 19.1055 7.66136 18.8404C7.08232 18.3159 6.3488 18.0434 5.61762 18.0048C5.25922 17.6682 4.99111 17.2365 4.85352 16.75H19.1465Z" fill="#131313"/>
<path d="M6.49999 3.15002C6.19664 3.15002 5.92317 3.33276 5.80708 3.61301C5.691 3.89327 5.75516 4.21586 5.96966 4.43035L7.43933 5.90002L5.96966 7.36969C5.75516 7.58419 5.691 7.90678 5.80708 8.18704C5.92317 8.46729 6.19664 8.65002 6.49999 8.65002H11.25V7.15002H8.31065L9.03032 6.43035C9.32321 6.13746 9.32321 5.66259 9.03032 5.36969L8.31065 4.65002H11.25V3.15002H6.49999Z" fill="#FF385C"/>
<path d="M2 19.2459V20.9155C2.02048 20.9162 2.02644 20.9161 2.03499 20.9158C2.04092 20.9157 2.04822 20.9155 2.06237 20.9155H2.10411C2.89426 20.9155 3.70236 20.6431 4.32934 20.0752C4.62199 19.8101 5.02008 19.666 5.43613 19.666C5.85217 19.666 6.25026 19.8101 6.54291 20.0752C7.16989 20.6431 7.97799 20.9155 8.76814 20.9155C9.55828 20.9155 10.3664 20.6431 10.9934 20.0752C11.286 19.8101 11.6841 19.666 12.1002 19.666C12.5162 19.666 12.9143 19.8101 13.2069 20.0752C13.8339 20.6431 14.642 20.9155 15.4322 20.9155C16.2223 20.9155 17.0304 20.6431 17.6574 20.0752C17.95 19.8101 18.3481 19.666 18.7642 19.666C19.1802 19.666 19.5783 19.8101 19.871 20.0752C20.4704 20.6182 21.2355 20.8911 21.9921 20.914V19.2465C21.6142 19.2246 21.2575 19.0833 20.9894 18.8404C20.3624 18.2725 19.5543 18 18.7642 18C17.974 18 17.1659 18.2725 16.5389 18.8404C16.2463 19.1055 15.8482 19.2495 15.4322 19.2495C15.0161 19.2495 14.618 19.1055 14.3254 18.8404C13.6984 18.2725 12.8903 18 12.1002 18C11.31 18 10.5019 18.2725 9.87492 18.8404C9.58227 19.1055 9.18418 19.2495 8.76814 19.2495C8.3521 19.2495 7.95401 19.1055 7.66136 18.8404C7.03437 18.2725 6.22627 18 5.43613 18C4.64598 18 3.83788 18.2725 3.21089 18.8404C2.92039 19.1035 2.526 19.2474 2.11328 19.2495C2.07535 19.2495 2.03757 19.2483 2 19.2459Z" fill="#FF385C"/>
</svg>
