<svg width="24" height="24" viewBox="0 0 24 24" fill="none" xmlns="http://www.w3.org/2000/svg">
<path fill-rule="evenodd" clip-rule="evenodd" d="M2.75 4.5C2.75 3.5335 3.5335 2.75 4.5 2.75H19.5C20.4665 2.75 21.25 3.5335 21.25 4.5V19.5C21.25 20.4665 20.4665 21.25 19.5 21.25H4.5C3.5335 21.25 2.75 20.4665 2.75 19.5V4.5ZM4.5 4.25C4.36193 4.25 4.25 4.36193 4.25 4.5V8.25H19.75V4.5C19.75 4.36193 19.6381 4.25 19.5 4.25H4.5ZM19.75 9.75H4.25V19.5C4.25 19.6381 4.36193 19.75 4.5 19.75H19.5C19.6381 19.75 19.75 19.6381 19.75 19.5V9.75Z" fill="#131313"/>
<path d="M15.5 7.25H8.5V5.75H15.5V7.25Z" fill="#131313"/>
<path fill-rule="evenodd" clip-rule="evenodd" d="M13.75 10.75H18.75V14C18.75 14.9665 17.9665 15.75 17 15.75V17.25H18V18.75H14.5V17.25H15.5V15.75C14.5335 15.75 13.75 14.9665 13.75 14V10.75ZM15.25 12.25V14C15.25 14.1381 15.3619 14.25 15.5 14.25H17C17.1381 14.25 17.25 14.1381 17.25 14V12.25H15.25Z" fill="#FF385C"/>
<path fill-rule="evenodd" clip-rule="evenodd" d="M12.5 14.75C12.5 16.8211 10.8211 18.5 8.75 18.5C6.67893 18.5 5 16.8211 5 14.75C5 12.6789 6.67893 11 8.75 11C10.8211 11 12.5 12.6789 12.5 14.75ZM11 14.75C11 15.9926 9.99264 17 8.75 17C7.50736 17 6.5 15.9926 6.5 14.75C6.5 13.5074 7.50736 12.5 8.75 12.5C9.99264 12.5 11 13.5074 11 14.75Z" fill="#FF385C"/>
<path d="M5.25 6.5C5.25 6.08579 5.58579 5.75 6 5.75H6.5C6.91421 5.75 7.25 6.08579 7.25 6.5C7.25 6.91421 6.91421 7.25 6.5 7.25H6C5.58579 7.25 5.25 6.91421 5.25 6.5Z" fill="#FF385C"/>
</svg>
