<svg width="24" height="24" viewBox="0 0 24 24" fill="none" xmlns="http://www.w3.org/2000/svg">
<path fill-rule="evenodd" clip-rule="evenodd" d="M4.25002 5C4.25002 4.0335 5.03352 3.25 6.00002 3.25H8.00002C8.96652 3.25 9.75002 4.0335 9.75002 5V7.45516L11.1104 18.7915C11.2354 19.8332 10.422 20.75 9.37284 20.75H4.62719C3.57803 20.75 2.76465 19.8332 2.88966 18.7915L4.25002 7.45516V5ZM5.6654 8.25L4.37897 18.9702C4.36112 19.119 4.47731 19.25 4.62719 19.25H9.37284C9.52273 19.25 9.63892 19.119 9.62106 18.9702L8.33464 8.25H5.6654ZM8.25002 6.75V5C8.25002 4.86193 8.13809 4.75 8.00002 4.75H6.00002C5.86195 4.75 5.75002 4.86193 5.75002 5V6.75H8.25002Z" fill="#131313"/>
<path d="M19.5 4.75H16V3.25H19.5C20.4665 3.25 21.25 4.0335 21.25 5V19C21.25 19.9665 20.4665 20.75 19.5 20.75H16V19.25H19.5C19.6381 19.25 19.75 19.1381 19.75 19V18.75H16V17.25H19.75V16.75H16V15.25H19.75V14.75H16V13.25H19.75V12.75H16V11.25H19.75V10.75H16V9.25H19.75V8.75H16V7.25H19.75V6.75H16V5.25H19.75V5C19.75 4.86193 19.6381 4.75 19.5 4.75Z" fill="#131313"/>
<path fill-rule="evenodd" clip-rule="evenodd" d="M6 3.25C5.0335 3.25 4.25 4.0335 4.25 5V6.5C4.25 7.4665 5.0335 8.25 6 8.25H8C8.9665 8.25 9.75 7.4665 9.75 6.5V5C9.75 4.0335 8.9665 3.25 8 3.25H6ZM5.75 5C5.75 4.86193 5.86193 4.75 6 4.75H8C8.13807 4.75 8.25 4.86193 8.25 5V6.5C8.25 6.63807 8.13807 6.75 8 6.75H6C5.86193 6.75 5.75 6.63807 5.75 6.5V5Z" fill="#FF385C"/>
<path fill-rule="evenodd" clip-rule="evenodd" d="M11.25 3.25H13.5C14.4665 3.25 15.25 4.0335 15.25 5V8.62171L13.8655 12.7753C13.789 13.0047 13.75 13.245 13.75 13.4868V20.5H12.25V13.4868C12.25 13.0838 12.315 12.6834 12.4424 12.301L13.4594 9.25H11.25V3.25ZM13.75 7.75H12.75V4.75H13.5C13.6381 4.75 13.75 4.86193 13.75 5V7.75Z" fill="#FF385C"/>
</svg>
