<svg width="24" height="24" viewBox="0 0 24 24" fill="none" xmlns="http://www.w3.org/2000/svg">
<path d="M2.5 4.75H21.5V3.25H2.5V4.75Z" fill="#131313"/>
<path fill-rule="evenodd" clip-rule="evenodd" d="M2.5 7.25H3.25V21C3.25 21.4142 3.58579 21.75 4 21.75H6.5C6.91421 21.75 7.25 21.4142 7.25 21V10.25H16.75V21C16.75 21.4142 17.0858 21.75 17.5 21.75H20C20.4142 21.75 20.75 21.4142 20.75 21V7.25H21.5V5.75H2.5V7.25ZM4.75 20.25V7.25H19.25V20.25H18.25V8.75H5.75V20.25H4.75Z" fill="#131313"/>
<path fill-rule="evenodd" clip-rule="evenodd" d="M11.25 14.75H5.75V13.25L18.25 13.25V14.75H12.75V16.75H18.25V18.25H12.75V20.25H18.25V21.75H5.75V20.25H11.25V18.25H5.75V16.75H11.25V14.75Z" fill="#FF385C"/>
</svg>
