<svg width="24" height="24" viewBox="0 0 24 24" fill="none" xmlns="http://www.w3.org/2000/svg">
<path fill-rule="evenodd" clip-rule="evenodd" d="M19.75 17.75H20C20.9665 17.75 21.75 18.5335 21.75 19.5V20C21.75 20.9665 20.9665 21.75 20 21.75H18C17.0335 21.75 16.25 20.9665 16.25 20V19.5C16.25 18.5335 17.0335 17.75 18 17.75H18.25H19.75ZM18 19.25C17.8619 19.25 17.75 19.3619 17.75 19.5V20C17.75 20.1381 17.8619 20.25 18 20.25H20C20.1381 20.25 20.25 20.1381 20.25 20V19.5C20.25 19.3619 20.1381 19.25 20 19.25H18Z" fill="#131313"/>
<path fill-rule="evenodd" clip-rule="evenodd" d="M8.25 12.5C8.25 11.5335 9.0335 10.75 10 10.75H11.5C12.4665 10.75 13.25 11.5335 13.25 12.5V20C13.25 20.9665 12.4665 21.75 11.5 21.75H4C3.0335 21.75 2.25 20.9665 2.25 20V18.5C2.25 17.5335 3.0335 16.75 4 16.75H5.25V15.5C5.25 14.5335 6.0335 13.75 7 13.75H8.25V12.5ZM10 12.25C9.86193 12.25 9.75 12.3619 9.75 12.5V15.25H7C6.86193 15.25 6.75 15.3619 6.75 15.5V18.25H4C3.86193 18.25 3.75 18.3619 3.75 18.5V20C3.75 20.1381 3.86193 20.25 4 20.25H11.5C11.6381 20.25 11.75 20.1381 11.75 20V18.75H9.5C9.08579 18.75 8.75 18.4142 8.75 18C8.75 17.5858 9.08579 17.25 9.5 17.25H11.75V15.75H11C10.5858 15.75 10.25 15.4142 10.25 15C10.25 14.5858 10.5858 14.25 11 14.25H11.75V12.5C11.75 12.3619 11.6381 12.25 11.5 12.25H10Z" fill="#131313"/>
<path d="M15 10.75C14.5858 10.75 14.25 11.0858 14.25 11.5C14.25 11.9142 14.5858 12.25 15 12.25H16C16.4142 12.25 16.75 11.9142 16.75 11.5C16.75 11.0858 16.4142 10.75 16 10.75H15Z" fill="#131313"/>
<path d="M7.25 4C7.25 3.58579 7.58579 3.25 8 3.25H10C10.4142 3.25 10.75 3.58579 10.75 4C10.75 4.41421 10.4142 4.75 10 4.75H8C7.58579 4.75 7.25 4.41421 7.25 4Z" fill="#131313"/>
<path d="M4 6.25C3.58579 6.25 3.25 6.58579 3.25 7C3.25 7.41421 3.58579 7.75 4 7.75H6C6.41421 7.75 6.75 7.41421 6.75 7C6.75 6.58579 6.41421 6.25 6 6.25H4Z" fill="#131313"/>
<path fill-rule="evenodd" clip-rule="evenodd" d="M13 3.97708C13 3.02324 13.7732 2.25 14.7271 2.25H18C18.9665 2.25 19.75 3.0335 19.75 4V17.75H18.25V8.40139L13.7691 5.4141C13.2886 5.09379 13 4.55454 13 3.97708ZM18.25 6.59861V4C18.25 3.86193 18.1381 3.75 18 3.75H14.7271C14.6017 3.75 14.5 3.85167 14.5 3.97708C14.5 4.05301 14.5379 4.12391 14.6011 4.16603L18.25 6.59861Z" fill="#FF385C"/>
</svg>
