<svg width="24" height="24" viewBox="0 0 24 24" fill="none" xmlns="http://www.w3.org/2000/svg">
<path fill-rule="evenodd" clip-rule="evenodd" d="M4 5C2.89543 5 2 5.89543 2 7V17C2 18.1046 2.89543 19 4 19H20C21.1046 19 22 18.1046 22 17V7C22 5.89543 21.1046 5 20 5H4ZM11.25 6.5H4C3.72386 6.5 3.5 6.72386 3.5 7V11.25H6.09091H11.25V6.5ZM8.35084 12.75L8.33969 12.75H3.5V17C3.5 17.2761 3.72386 17.5 4 17.5H11.25V12.75L9.99256 12.75H8.35084ZM17.9091 11.25H12.75V6.5H20C20.2761 6.5 20.5 6.72386 20.5 7V11.25H17.9091ZM14.0074 12.75H15.6492C15.6529 12.75 15.6566 12.75 15.6603 12.75H20.5V17C20.5 17.2761 20.2761 17.5 20 17.5H12.75V12.75L14.0074 12.75Z" fill="#131313"/>
<path fill-rule="evenodd" clip-rule="evenodd" d="M6.19175 11.25C5.77505 10.2622 6.04625 9.08324 6.92019 8.38408L7.04274 8.28604C7.95126 7.55923 9.23643 7.53915 10.1672 8.23723C10.5531 8.52664 10.9151 8.84579 11.25 9.19153V6.5H12.75V9.40666C13.1398 8.97738 13.5699 8.58574 14.0346 8.23723C14.9653 7.53915 16.2505 7.55923 17.159 8.28604L17.2816 8.38408C18.1555 9.08324 18.4267 10.2622 18.01 11.25H20.5V12.75L14.1083 12.75L16.6906 16.0366L15.5111 16.9634L12.75 13.4492V17.5H11.25V13.706L8.69063 16.9634L7.51115 16.0366L10.0935 12.75H3.5V11.25H6.19175ZM11.0221 11.25L10.6936 10.8319C10.281 10.3068 9.80147 9.83793 9.2672 9.43723C8.88368 9.14959 8.35414 9.15787 7.97979 9.45734L7.85723 9.55539C7.4559 9.87646 7.38204 10.4582 7.69042 10.8694C7.87013 11.109 8.15216 11.25 8.45167 11.25H11.0221ZM13.1797 11.25L13.5082 10.8319C13.9208 10.3068 14.4003 9.83793 14.9346 9.43723C15.3181 9.14959 15.8476 9.15787 16.222 9.45734L16.3445 9.55539C16.7459 9.87646 16.8197 10.4582 16.5114 10.8694C16.3316 11.109 16.0496 11.25 15.7501 11.25H13.1797Z" fill="#FF385C"/>
</svg>
