<svg width="24" height="24" viewBox="0 0 24 24" fill="none" xmlns="http://www.w3.org/2000/svg">
<path fill-rule="evenodd" clip-rule="evenodd" d="M12.0001 9.93933L21.5304 19.4697L20.4697 20.5303L16.1894 16.25H7.81072L3.53039 20.5303L2.46973 19.4697L12.0001 9.93933ZM9.31072 14.75H14.6894L12.0001 12.0607L9.31072 14.75Z" fill="#131313"/>
<path fill-rule="evenodd" clip-rule="evenodd" d="M18.0001 8.5C18.0001 9.88071 16.8808 11 15.5001 11C14.1193 11 13.0001 9.88071 13.0001 8.5C13.0001 7.11929 14.1193 6 15.5001 6C16.8808 6 18.0001 7.11929 18.0001 8.5ZM16.5001 8.5C16.5001 9.05228 16.0523 9.5 15.5001 9.5C14.9478 9.5 14.5001 9.05228 14.5001 8.5C14.5001 7.94772 14.9478 7.5 15.5001 7.5C16.0523 7.5 16.5001 7.94772 16.5001 8.5Z" fill="#FF385C"/>
<path d="M2.46973 19.4697L5.68939 16.25H7.81071L3.53039 20.5303L2.46973 19.4697Z" fill="#FF385C"/>
<path d="M20.4697 20.5303L16.1894 16.25H18.3107L21.5304 19.4697L20.4697 20.5303Z" fill="#FF385C"/>
<path fill-rule="evenodd" clip-rule="evenodd" d="M4 2.25C3.0335 2.25 2.25 3.0335 2.25 4V20C2.25 20.9665 3.0335 21.75 4 21.75H20C20.9665 21.75 21.75 20.9665 21.75 20V4C21.75 3.0335 20.9665 2.25 20 2.25H4ZM3.75 4C3.75 3.86193 3.86193 3.75 4 3.75H20C20.1381 3.75 20.25 3.86193 20.25 4V20C20.25 20.1381 20.1381 20.25 20 20.25H4C3.86193 20.25 3.75 20.1381 3.75 20V4Z" fill="#131313"/>
</svg>
