<svg width="24" height="24" viewBox="0 0 24 24" fill="none" xmlns="http://www.w3.org/2000/svg">
<path d="M4.69373 9.5C4.69373 6.87665 6.82037 4.75 9.44373 4.75C10.5986 4.75 11.6554 5.16116 12.4787 5.84588L13.4378 4.69258C12.3551 3.79214 10.9617 3.25 9.44373 3.25C5.99195 3.25 3.19373 6.04822 3.19373 9.5C3.19373 12.9518 5.99195 15.75 9.44373 15.75C10.2573 15.75 11.0358 15.5942 11.75 15.3105V18.25H15.1395L17.1395 20.75H20.75V17.1682L15.0045 11.945L13.9955 13.055L19.25 17.8318V19.25H17.8605L15.8605 16.75H13.25V13.571H11.9002L11.7313 13.6641C11.0534 14.0373 10.2745 14.25 9.44373 14.25C6.82037 14.25 4.69373 12.1234 4.69373 9.5Z" fill="#131313"/>
<path fill-rule="evenodd" clip-rule="evenodd" d="M8.5 6.25C7.25736 6.25 6.25 7.25736 6.25 8.5C6.25 9.74264 7.25736 10.75 8.5 10.75C9.74264 10.75 10.75 9.74264 10.75 8.5C10.75 7.25736 9.74264 6.25 8.5 6.25ZM7.75 8.5C7.75 8.08579 8.08579 7.75 8.5 7.75C8.91421 7.75 9.25 8.08579 9.25 8.5C9.25 8.91421 8.91421 9.25 8.5 9.25C8.08579 9.25 7.75 8.91421 7.75 8.5Z" fill="#131313"/>
<path fill-rule="evenodd" clip-rule="evenodd" d="M16 3.89282C16.3067 3.89282 16.5825 4.07954 16.6964 4.36428L16.7577 4.51754C17.1896 5.59748 18.0453 6.45318 19.1253 6.88516L19.2785 6.94646C19.5633 7.06036 19.75 7.33614 19.75 7.64282C19.75 7.9495 19.5633 8.22528 19.2785 8.33918L19.1253 8.40049C18.0453 8.83246 17.1896 9.68816 16.7577 10.7681L16.6964 10.9214C16.5825 11.2061 16.3067 11.3928 16 11.3928C15.6933 11.3928 15.4175 11.2061 15.3036 10.9214L15.2423 10.7681C14.8104 9.68817 13.9547 8.83246 12.8747 8.40049L12.7215 8.33918C12.4367 8.22528 12.25 7.9495 12.25 7.64282C12.25 7.33614 12.4367 7.06036 12.7215 6.94646L12.8747 6.88516C13.9547 6.45318 14.8104 5.59748 15.2423 4.51754L15.3036 4.36428C15.4175 4.07954 15.6933 3.89282 16 3.89282ZM16 6.24641C15.6186 6.78885 15.146 7.2614 14.6036 7.64282C15.146 8.02425 15.6186 8.4968 16 9.03924C16.3814 8.4968 16.854 8.02425 17.3964 7.64282C16.854 7.2614 16.3814 6.78885 16 6.24641Z" fill="#FF385C"/>
</svg>
