<svg width="24" height="24" viewBox="0 0 24 24" fill="none" xmlns="http://www.w3.org/2000/svg">
<path d="M8 11.75C7.58579 11.75 7.25 12.0858 7.25 12.5C7.25 12.9142 7.58579 13.25 8 13.25H8.5C8.91421 13.25 9.25 12.9142 9.25 12.5C9.25 12.0858 8.91421 11.75 8.5 11.75H8Z" fill="#FF385C"/>
<path d="M14.75 12.5C14.75 12.0858 15.0858 11.75 15.5 11.75H16C16.4142 11.75 16.75 12.0858 16.75 12.5C16.75 12.9142 16.4142 13.25 16 13.25H15.5C15.0858 13.25 14.75 12.9142 14.75 12.5Z" fill="#FF385C"/>
<path d="M11.5 11.75C11.0858 11.75 10.75 12.0858 10.75 12.5C10.75 12.9142 11.0858 13.25 11.5 13.25H12.5C12.9142 13.25 13.25 12.9142 13.25 12.5C13.25 12.0858 12.9142 11.75 12.5 11.75H11.5Z" fill="#FF385C"/>
<path fill-rule="evenodd" clip-rule="evenodd" d="M12 4.25C8.94545 4.25 6.44719 6.63177 6.26111 9.63945C8.99998 9.63945 11.5 9.63945 17.7389 9.63945C17.5528 6.63177 15.0545 4.25 12 4.25ZM12 5.75C9.90869 5.75 8.17019 7.26049 7.81595 9.25H16.184C15.8298 7.26049 14.0913 5.75 12 5.75Z" fill="#FF385C"/>
<path d="M6.26112 9.63945C6.26923 9.5084 6.28173 9.37853 6.29847 9.25H17.7015C17.7183 9.37853 17.7308 9.5084 17.7389 9.63945L6.26112 9.63945Z" fill="#131313"/>
<path fill-rule="evenodd" clip-rule="evenodd" d="M3.51986 11.9238L6.26112 9.63945L17.7389 9.63945L20.4801 11.9238C20.6511 12.0663 20.75 12.2774 20.75 12.5C20.75 12.7226 20.6511 12.9337 20.4801 13.0762L17.9095 15.2183L18.6699 16.9924C18.8668 17.452 19.3188 17.75 19.8188 17.75H20.5V19.25H19.8188C18.7187 19.25 17.7245 18.5945 17.2911 17.5833L16.5054 15.75H12.75V19H11.25V15.75H7.99456L7.20886 17.5833C6.77551 18.5945 5.78128 19.25 4.68121 19.25H4V17.75H4.68121C5.18124 17.75 5.63317 17.452 5.83014 16.9924L6.45889 15.5254L3.51986 13.0762C3.34887 12.9337 3.25 12.7226 3.25 12.5C3.25 12.2774 3.34887 12.0663 3.51986 11.9238ZM5.17154 12.5L7.27154 10.75H16.7285L18.8285 12.5L16.7285 14.25H7.27154L5.17154 12.5Z" fill="#131313"/>
</svg>
