<svg width="24" height="24" viewBox="0 0 24 24" fill="none" xmlns="http://www.w3.org/2000/svg">
<path fill-rule="evenodd" clip-rule="evenodd" d="M17.6685 11.75V8.5H17.9754C19.1973 8.5 20.043 7.2796 19.614 6.13553L18.864 4.13553C18.6079 3.4525 17.9549 3 17.2254 3H16.6114C15.882 3 15.229 3.4525 14.9729 4.13553L14.2229 6.13553C13.7938 7.2796 14.6396 8.5 15.8614 8.5H16.1685V11.75H11.25V10.5C11.25 9.5335 10.4665 8.75 9.5 8.75H8.42464L7.14312 6.61413L5.85688 7.38587L6.77062 8.90878C6.16829 9.18532 5.75 9.79381 5.75 10.5V11.75H3V13.25H3.75V21H5.25V19.5003C5.87675 19.971 6.6558 20.25 7.5 20.25H16.5C17.3442 20.25 18.1233 19.971 18.75 19.5003V21H20.25V13.25H21V11.75H17.6685ZM9.75 10.5V11.75H7.25V10.5C7.25 10.3619 7.36193 10.25 7.5 10.25H9.5C9.63807 10.25 9.75 10.3619 9.75 10.5ZM16.6114 4.5C16.5072 4.5 16.4139 4.56464 16.3773 4.66222L15.6273 6.66222C15.5661 6.82566 15.6869 7 15.8614 7H17.9754C18.15 7 18.2708 6.82566 18.2095 6.66222L17.4595 4.66222C17.4229 4.56464 17.3296 4.5 17.2254 4.5H16.6114ZM18.75 13.25V16.5C18.75 17.7426 17.7426 18.75 16.5 18.75H7.5C6.25736 18.75 5.25 17.7426 5.25 16.5V13.25H18.75Z" fill="#131313"/>
<path d="M7.5 10.25C7.36193 10.25 7.25 10.3619 7.25 10.5V11.75H5.75V10.5C5.75 9.5335 6.5335 8.75 7.5 8.75H9.5C10.4665 8.75 11.25 9.5335 11.25 10.5V11.75H9.75V10.5C9.75 10.3619 9.63807 10.25 9.5 10.25H7.5Z" fill="#FF385C"/>
<path fill-rule="evenodd" clip-rule="evenodd" d="M15.8516 8.5H17.9656C19.1874 8.5 20.0332 7.2796 19.6042 6.13553L18.8542 4.13553C18.598 3.4525 17.9451 3 17.2156 3H16.6016C15.8721 3 15.2191 3.4525 14.963 4.13553L14.213 6.13553C13.784 7.2796 14.6297 8.5 15.8516 8.5ZM16.6016 4.5C16.4974 4.5 16.4041 4.56464 16.3675 4.66222L15.6175 6.66222C15.5562 6.82566 15.677 7 15.8516 7H17.9656C18.1401 7 18.2609 6.82566 18.1996 6.66222L17.4496 4.66222C17.4131 4.56464 17.3198 4.5 17.2156 4.5H16.6016Z" fill="#FF385C"/>
</svg>
