<svg width="24" height="24" viewBox="0 0 24 24" fill="none" xmlns="http://www.w3.org/2000/svg">
<path fill-rule="evenodd" clip-rule="evenodd" d="M16.7982 4.64124C17.689 3.75045 18.8971 3.25 20.1569 3.25H21.5001V4.75H20.1569C19.4677 4.75 18.8011 4.96889 18.2501 5.36818V13.5C18.2501 14.1753 18.0716 14.8088 17.7592 15.3561C18.9088 15.6856 19.7501 16.7446 19.7501 18C19.7501 19.5188 18.5188 20.75 17.0001 20.75C15.4813 20.75 14.2501 19.5188 14.2501 18C14.2501 17.74 14.2861 17.4884 14.3536 17.25H9.64654C9.71398 17.4884 9.75006 17.74 9.75006 18C9.75006 19.5188 8.51884 20.75 7.00006 20.75C5.48128 20.75 4.25006 19.5188 4.25006 18C4.25006 16.8328 4.97717 15.8355 6.00312 15.4363L8.17509 13.2643C7.50927 13.327 6.8762 13.594 6.36468 14.0324L3.98815 16.0694L3.01196 14.9306L5.38849 12.8935C6.2494 12.1556 7.34587 11.75 8.47975 11.75H9.6894L12.0336 9.40575C10.8623 9.09053 10.0001 8.02095 10.0001 6.75C10.0001 5.23122 11.2313 4 12.7501 4C14.021 4 15.0906 4.86219 15.4058 6.03358L16.7982 4.64124ZM8.08739 15.4733C8.26225 15.5487 8.42773 15.6416 8.5816 15.75H14.5001C15.7427 15.75 16.7501 14.7426 16.7501 13.5V6.81066L8.08739 15.4733ZM12.7501 5.5C12.0597 5.5 11.5001 6.05964 11.5001 6.75C11.5001 7.44036 12.0597 8 12.7501 8C13.4404 8 14.0001 7.44036 14.0001 6.75C14.0001 6.05964 13.4404 5.5 12.7501 5.5ZM5.75006 18C5.75006 17.3096 6.30971 16.75 7.00006 16.75C7.69042 16.75 8.25006 17.3096 8.25006 18C8.25006 18.6904 7.69042 19.25 7.00006 19.25C6.30971 19.25 5.75006 18.6904 5.75006 18ZM15.7501 18C15.7501 17.3096 16.3097 16.75 17.0001 16.75C17.6904 16.75 18.2501 17.3096 18.2501 18C18.2501 18.6904 17.6904 19.25 17.0001 19.25C16.3097 19.25 15.7501 18.6904 15.7501 18Z" fill="white"/>
<path fill-rule="evenodd" clip-rule="evenodd" d="M7 15.25C5.48122 15.25 4.25 16.4812 4.25 18C4.25 19.5188 5.48122 20.75 7 20.75C8.51878 20.75 9.75 19.5188 9.75 18C9.75 16.4812 8.51878 15.25 7 15.25ZM5.75 18C5.75 17.3096 6.30964 16.75 7 16.75C7.69036 16.75 8.25 17.3096 8.25 18C8.25 18.6904 7.69036 19.25 7 19.25C6.30964 19.25 5.75 18.6904 5.75 18Z" fill="#FF385C"/>
<path fill-rule="evenodd" clip-rule="evenodd" d="M17 15.25C15.4812 15.25 14.25 16.4812 14.25 18C14.25 19.5188 15.4812 20.75 17 20.75C18.5188 20.75 19.75 19.5188 19.75 18C19.75 16.4812 18.5188 15.25 17 15.25ZM15.75 18C15.75 17.3096 16.3096 16.75 17 16.75C17.6904 16.75 18.25 17.3096 18.25 18C18.25 18.6904 17.6904 19.25 17 19.25C16.3096 19.25 15.75 18.6904 15.75 18Z" fill="#FF385C"/>
</svg>
