<svg width="24" height="24" viewBox="0 0 24 24" fill="none" xmlns="http://www.w3.org/2000/svg">
<path d="M9.5 20V14C9.5 13.4477 9.94772 13 10.5 13H13.5C14.0523 13 14.5 13.4477 14.5 14V20" stroke="#FF385C" stroke-width="1.5"/>
<path fill-rule="evenodd" clip-rule="evenodd" d="M3.53039 12.5303L4.25006 11.8107V19.5C4.25006 20.4665 5.03356 21.25 6.00006 21.25H18.0001C18.9666 21.25 19.7501 20.4665 19.7501 19.5V11.8107L20.4697 12.5303L21.5304 11.4697L13.2375 3.17678C12.5541 2.49336 11.446 2.49336 10.7626 3.17678L2.46973 11.4697L3.53039 12.5303ZM12.1768 4.23744C12.0792 4.13981 11.9209 4.13981 11.8233 4.23744L5.75006 10.3107V19.5C5.75006 19.6381 5.86199 19.75 6.00006 19.75H8.75006H15.2501H18.0001C18.1381 19.75 18.2501 19.6381 18.2501 19.5V10.3107L12.1768 4.23744Z" fill="white"/>
</svg>
