<svg width="24" height="24" viewBox="0 0 24 24" fill="none" xmlns="http://www.w3.org/2000/svg">
<path fill-rule="evenodd" clip-rule="evenodd" d="M9.36301 4.23745C10.4897 3.43264 11.8398 3 13.2244 3C16.5305 3 19.3335 5.43103 19.8011 8.70392L19.8224 8.85327C20.0106 10.1703 19.7926 11.5134 19.1977 12.7033C18.3438 14.4111 16.7863 15.6605 14.9339 16.1236L14.3537 16.2686C13.739 16.4223 13.1077 16.5 12.474 16.5H10.8387C10.0515 16.5 9.29104 16.7857 8.69859 17.3041L6.53374 19.1984C5.84038 19.8051 4.79539 19.7703 4.14392 19.1188L3.51256 18.4874C2.82915 17.804 2.82914 16.696 3.51256 16.0126L5.13388 14.3912C5.74338 13.7817 6.08579 12.9551 6.08579 12.0931V10.7304C6.08579 10.0103 6.18615 9.29369 6.38398 8.6013L6.49833 8.20106C6.94399 6.64125 7.90535 5.27864 9.2254 4.33574L9.36301 4.23745ZM13.2244 4.5C12.1524 4.5 11.1072 4.83496 10.2349 5.45805L10.0973 5.55634C9.05332 6.30201 8.29305 7.3796 7.94062 8.61314L7.82626 9.01338C7.81386 9.0568 7.80192 9.10034 7.79047 9.14399L13.5527 14.9062C13.6994 14.8805 13.8452 14.8496 13.9899 14.8134L14.5701 14.6683C15.9977 14.3115 17.198 13.3486 17.856 12.0325C18.3145 11.1154 18.4825 10.0804 18.3375 9.0654L18.3162 8.91605C17.9542 6.38214 15.7841 4.5 13.2244 4.5ZM7.58579 12.0931V11.0606L11.5252 15H10.8387C9.68817 15 8.57672 15.4176 7.71083 16.1753L5.54598 18.0695C5.44693 18.1562 5.29765 18.1512 5.20458 18.0581L4.57322 17.4268C4.47559 17.3291 4.47559 17.1709 4.57322 17.0732L6.19454 15.4519C7.08534 14.5611 7.58579 13.3529 7.58579 12.0931Z" fill="white"/>
<path fill-rule="evenodd" clip-rule="evenodd" d="M21 18.5C21 19.8807 19.8807 21 18.5 21C17.1193 21 16 19.8807 16 18.5C16 17.1193 17.1193 16 18.5 16C19.8807 16 21 17.1193 21 18.5ZM19.5 18.5C19.5 19.0523 19.0523 19.5 18.5 19.5C17.9477 19.5 17.5 19.0523 17.5 18.5C17.5 17.9477 17.9477 17.5 18.5 17.5C19.0523 17.5 19.5 17.9477 19.5 18.5Z" fill="white"/>
<path fill-rule="evenodd" clip-rule="evenodd" d="M9.36296 4.23745C10.4897 3.43264 11.8397 3 13.2244 3C16.5305 3 19.3335 5.43103 19.8011 8.70392L19.8224 8.85327C20.0105 10.1703 19.7926 11.5134 19.1976 12.7033C18.3437 14.4111 16.7862 15.6605 14.9339 16.1236L14.3536 16.2686C13.9064 16.3804 13.4504 16.452 12.9911 16.4827L11.5165 15H11.5251L9.97436 13.4493L6.16577 9.61948C6.21552 9.27599 6.28835 8.93582 6.38393 8.6013L6.49828 8.20106C6.94394 6.64125 7.9053 5.27864 9.22535 4.33574L9.36296 4.23745ZM13.2244 4.5C12.1524 4.5 11.1071 4.83496 10.2348 5.45805L10.0972 5.55634C9.05327 6.30201 8.29301 7.3796 7.94057 8.61314L7.82621 9.01338C7.81381 9.0568 7.80188 9.10034 7.79042 9.14399L13.5526 14.9062C13.6993 14.8805 13.8452 14.8496 13.9898 14.8134L14.5701 14.6683C15.9976 14.3115 17.1979 13.3486 17.856 12.0325C18.3145 11.1154 18.4825 10.0804 18.3375 9.0654L18.3161 8.91605C17.9541 6.38214 15.784 4.5 13.2244 4.5Z" fill="#FF385C"/>
<path fill-rule="evenodd" clip-rule="evenodd" d="M18.4999 21C19.8807 21 20.9999 19.8807 20.9999 18.5C20.9999 17.1193 19.8807 16 18.4999 16C17.1192 16 15.9999 17.1193 15.9999 18.5C15.9999 19.8807 17.1192 21 18.4999 21ZM18.4999 19.5C19.0522 19.5 19.4999 19.0523 19.4999 18.5C19.4999 17.9477 19.0522 17.5 18.4999 17.5C17.9477 17.5 17.4999 17.9477 17.4999 18.5C17.4999 19.0523 17.9477 19.5 18.4999 19.5Z" fill="#FF385C"/>
</svg>
