<svg width="24" height="24" viewBox="0 0 24 24" fill="none" xmlns="http://www.w3.org/2000/svg">
<path fill-rule="evenodd" clip-rule="evenodd" d="M21.535 2.47435C21.6988 2.64108 21.7755 2.87467 21.7425 3.10607L21.5534 4.42972C21.3368 5.94579 20.8976 7.42158 20.25 8.80937C18.5105 12.5367 15.802 15.7285 12.4073 18.0511L11.5172 18.6602C9.05615 20.344 6.21885 21.397 3.25513 21.7263L3.08283 21.7454C2.84223 21.7722 2.60352 21.6811 2.44183 21.5009C2.28014 21.3208 2.21535 21.0736 2.26787 20.8373L2.66737 19.0396C3.08225 17.1726 3.78739 15.3822 4.75708 13.7338L5.22151 12.9442C7.34007 9.34268 10.3745 6.36633 14.0164 4.3178C15.8286 3.2984 17.822 2.64142 19.8852 2.38352L20.907 2.2558C21.1389 2.2268 21.3711 2.30762 21.535 2.47435ZM20.1187 3.86601L20.0713 3.87194C18.2011 4.1057 16.3944 4.70118 14.7517 5.62517C14.3979 5.8242 14.0502 6.03258 13.7089 6.25H17C17.4142 6.25 17.75 6.58579 17.75 7V10.2992C18.1685 9.6151 18.5495 8.90609 18.8907 8.17504C19.4759 6.92104 19.8728 5.58751 20.0685 4.21758L20.1187 3.86601ZM16.25 12.4452V8.81071L5.19766 19.8631C7.14847 19.3877 9.00337 18.5626 10.6702 17.4222L11.5603 16.8132C13.3411 15.5947 14.92 14.1203 16.25 12.4452ZM15.1894 7.75H11.6304C9.59204 9.40836 7.85689 11.4225 6.51441 13.7048L6.04998 14.4943C5.28858 15.7887 4.70486 17.1783 4.31358 18.6258L15.1894 7.75Z" fill="white"/>
<path fill-rule="evenodd" clip-rule="evenodd" d="M21.7425 3.10607C21.7755 2.87467 21.6988 2.64108 21.535 2.47435C21.3711 2.30762 21.1389 2.2268 20.907 2.2558L19.8852 2.38352C17.822 2.64142 15.8286 3.2984 14.0163 4.3178C12.7965 5.00398 11.6447 5.79426 10.5728 6.67727L11.6303 7.75H14.7751C15.0404 7.75 15.2947 7.85537 15.4823 8.04293L15.9571 8.51782C16.1446 8.70536 16.25 8.9597 16.25 9.2249V12.4452L17.387 13.4253C18.5156 12.0115 19.4782 10.4632 20.2499 8.80937C20.8976 7.42158 21.3368 5.94579 21.5534 4.42972L21.7425 3.10607ZM20.0713 3.87195L20.1187 3.86603L20.0684 4.2176C19.8727 5.58753 19.4759 6.92106 18.8907 8.17506C18.5495 8.90611 18.1685 9.61511 17.75 10.2992V7.00002C17.75 6.5858 17.4142 6.25002 17 6.25002H13.7089C14.0502 6.0326 14.3979 5.82422 14.7517 5.62518C16.3944 4.7012 18.2011 4.10572 20.0713 3.87195Z" fill="#FF385C"/>
</svg>
