<svg width="24" height="24" viewBox="0 0 24 24" fill="none" xmlns="http://www.w3.org/2000/svg">
<path fill-rule="evenodd" clip-rule="evenodd" d="M14 17.25H10V15.75H14V17.25Z" fill="#FF385C"/>
<path d="M9.55005 8.5C9.96426 8.5 10.3 8.16421 10.3 7.75C10.3 7.33579 9.96426 7 9.55005 7C9.13584 7 8.80005 7.33579 8.80005 7.75C8.80005 8.16421 9.13584 8.5 9.55005 8.5Z" fill="#FF385C"/>
<path fill-rule="evenodd" clip-rule="evenodd" d="M16.75 6.83523L8.22415 2.95985C7.06548 2.43318 5.75 3.28023 5.75 4.55299V18.75H3V20.25H5.75V21.5H7.25V20.25H16.75V21.5H18.25V20.25H21V18.75H18.25V2.99999H16.75V6.83523ZM7.60345 4.3254C7.43792 4.25016 7.25 4.37117 7.25 4.55299V18.75H8.75V12C8.75 11.0335 9.5335 10.25 10.5 10.25H13.5C14.4665 10.25 15.25 11.0335 15.25 12V18.75H16.75V8.48292L7.60345 4.3254ZM13.75 18.75V17.25V15.75V12C13.75 11.8619 13.6381 11.75 13.5 11.75H10.5C10.3619 11.75 10.25 11.8619 10.25 12V15.75V17.25V18.75H13.75Z" fill="white"/>
</svg>
