<svg width="24" height="24" viewBox="0 0 24 24" fill="none" xmlns="http://www.w3.org/2000/svg">
<path fill-rule="evenodd" clip-rule="evenodd" d="M13.8659 3.56741C12.9397 2.45601 11.1416 2.88455 10.8163 4.29423L10.0549 7.59377C10.0185 7.75143 9.8442 7.83352 9.69948 7.76116L8.84488 7.33386C7.90573 6.86428 6.76736 7.32169 6.41421 8.31052L5.38184 11.2011C4.61802 13.3398 4.7604 15.6977 5.77602 17.7289C6.53935 19.2556 7.87789 20.4165 9.49717 20.9562L9.86554 21.079C11.2511 21.5409 12.7491 21.5409 14.1346 21.079L14.4644 20.9691C16.1084 20.4211 17.4673 19.2425 18.2423 17.6925L18.3123 17.5526C19.2712 15.6349 19.4289 13.4148 18.7509 11.3808C18.0345 9.2316 16.9225 7.23534 15.4722 5.49497L13.8659 3.56741ZM12.2779 4.63152C12.3244 4.43014 12.5812 4.36891 12.7136 4.52769L14.3199 6.45525C15.6504 8.05193 16.6706 9.88338 17.3279 11.8551C17.8801 13.5118 17.7516 15.3199 16.9707 16.8818L16.9007 17.0217C16.6219 17.5794 16.2449 18.0747 15.7933 18.4872C12.5001 21 11.0001 20.5 8.21136 18.5022C7.76505 18.0963 7.39268 17.6081 7.11766 17.0581C6.2849 15.3926 6.16816 13.4593 6.79445 11.7057L7.82682 8.81502C7.87727 8.67376 8.0399 8.60842 8.17406 8.6755L9.02866 9.1028C10.0417 9.60933 11.2618 9.03468 11.5165 7.93105L12.2779 4.63152Z" fill="white"/>
<path fill-rule="evenodd" clip-rule="evenodd" d="M10.546 12.8182C11.2233 11.7539 12.7769 11.7539 13.4541 12.8182L15.4402 15.9391C16.0054 16.8274 16.1054 17.9363 15.7155 18.911C15.3095 19.9262 14.503 20.7368 13.4855 21.1438C12.5319 21.5253 11.4682 21.5253 10.5146 21.1438C9.49715 20.7368 8.69066 19.9262 8.28459 18.911C7.8947 17.9363 7.99471 16.8274 8.55996 15.9391L10.546 12.8182ZM12.1886 13.6235C12.1008 13.4855 11.8993 13.4855 11.8115 13.6235L9.82546 16.7445C9.52097 17.2229 9.46555 17.8245 9.67731 18.3539C9.93184 18.9902 10.4377 19.4975 11.0717 19.7511C11.6677 19.9895 12.3325 19.9895 12.9284 19.7511C13.5624 19.4975 14.0683 18.9902 14.3228 18.3539C14.5346 17.8245 14.4792 17.2229 14.1747 16.7445L12.1886 13.6235Z" fill="#FF385C"/>
</svg>
