<svg width="24" height="24" viewBox="0 0 24 24" fill="none" xmlns="http://www.w3.org/2000/svg">
<g clip-path="url(#clip0_86_2041)">
<path fill-rule="evenodd" clip-rule="evenodd" d="M9.5 14L7.2015 14.6469L6.77098 16.656L5.92715 19.75H2V21.25H22V19.75H18.0728L17.229 16.656L16.7985 14.6469L14.5 14L12 11.5L9.5 14ZM15.535 15.9093L12 12.3744L8.46504 15.9093L8.42774 16.0834H15.5723L15.535 15.9093ZM7.48194 19.75L8.07285 17.5834H15.9272L16.5181 19.75H7.48194Z" fill="white"/>
<path fill-rule="evenodd" clip-rule="evenodd" d="M5.25499 5.67955L8.44547 2.48907L11.9952 6.03876L15.5449 2.48905L18.7354 5.67953L15.1857 9.22924L18.7354 12.7789L15.5449 15.9694L11.9952 12.4197L8.44552 15.9694L5.25504 12.7789L8.80474 9.22924L5.25499 5.67955ZM7.37632 5.67954L10.9261 9.22923L7.37636 12.7789L8.44552 13.8481L11.9952 10.2984L15.5449 13.8481L16.6141 12.7789L13.0644 9.22924L16.6141 5.67953L15.5449 4.61037L11.9952 8.16007L8.44548 4.61038L7.37632 5.67954Z" fill="#FF385C"/>
</g>
<defs>
<clipPath id="clip0_86_2041">
<rect width="24" height="24" fill="white"/>
</clipPath>
</defs>
</svg>
