<svg width="24" height="24" viewBox="0 0 24 24" fill="none" xmlns="http://www.w3.org/2000/svg">
<path fill-rule="evenodd" clip-rule="evenodd" d="M3.53033 12.5303L4.25 11.8107V19.5C4.25 20.4665 5.0335 21.25 6 21.25H18C18.9665 21.25 19.75 20.4665 19.75 19.5V11.8107L20.4697 12.5303L21.5303 11.4697L13.2374 3.17678C12.554 2.49336 11.446 2.49336 10.7626 3.17678L2.46967 11.4697L3.53033 12.5303ZM12.1768 4.23744C12.0791 4.13981 11.9208 4.13981 11.8232 4.23744L5.75 10.3107V19.5C5.75 19.6381 5.86193 19.75 6 19.75H8.75V14C8.75 13.0335 9.5335 12.25 10.5 12.25H13.5C14.4665 12.25 15.25 13.0335 15.25 14V19.75H18C18.1381 19.75 18.25 19.6381 18.25 19.5V10.3107L12.1768 4.23744ZM13.75 19.75V14C13.75 13.8619 13.6381 13.75 13.5 13.75H10.5C10.3619 13.75 10.25 13.8619 10.25 14V19.75H13.75Z" fill="white"/>
</svg>
