<svg width="24" height="24" viewBox="0 0 24 24" fill="none" xmlns="http://www.w3.org/2000/svg">
<path fill-rule="evenodd" clip-rule="evenodd" d="M12.25 4.64182C12.25 4.3981 11.9369 4.29843 11.796 4.49731L6.22979 12.3555C6.11251 12.5211 6.2309 12.75 6.43379 12.75H9.50001C10.4665 12.75 11.25 13.5335 11.25 14.5V19.3582C11.25 19.6019 11.5631 19.7016 11.704 19.5027L17.2702 11.6445C17.3875 11.4789 17.2691 11.25 17.0662 11.25H14C13.0335 11.25 12.25 10.4665 12.25 9.5V4.64182ZM10.572 3.63029C11.5581 2.23814 13.75 2.93581 13.75 4.64182V9.5C13.75 9.63807 13.8619 9.75 14 9.75H17.0662C18.4865 9.75 19.3152 11.3526 18.4943 12.5115L12.9281 20.3697C11.942 21.7619 9.75001 21.0642 9.75001 19.3582V14.5C9.75001 14.3619 9.63808 14.25 9.50001 14.25H6.43379C5.01356 14.25 4.18483 12.6474 5.00575 11.4885L10.572 3.63029Z" fill="white"/>
</svg>
