<svg width="24" height="24" viewBox="0 0 24 24" fill="none" xmlns="http://www.w3.org/2000/svg">
<path fill-rule="evenodd" clip-rule="evenodd" d="M12.3556 3.08965C12.1336 2.97012 11.8664 2.97012 11.6444 3.08965L5.31091 6.5H5.08114C4.8152 6.5 4.62742 6.23946 4.71151 5.98717L3.28849 5.51283C2.88063 6.73642 3.79137 8 5.08114 8H5.5C5.62412 8 5.7463 7.9692 5.85558 7.91035L6.25 7.69797V9H5.7C5.34922 9 5.0453 9.24314 4.96829 9.58537L4.80093 10.3292C4.65161 10.9929 4.29781 11.5929 3.78938 12.0449L2.50173 13.1894C2.269 13.3963 2.1883 13.7255 2.29896 14.0165C2.40962 14.3076 2.68862 14.5 3 14.5H3.75V20.75C3.75 21.1642 4.08579 21.5 4.5 21.5H19.5C19.9142 21.5 20.25 21.1642 20.25 20.75V14.5H21C21.3114 14.5 21.5904 14.3076 21.701 14.0165C21.8117 13.7255 21.731 13.3963 21.4983 13.1894L20.2106 12.0449C19.7022 11.5929 19.3484 10.9929 19.1991 10.3292L19.0317 9.58537C18.9547 9.24314 18.6508 9 18.3 9H17.75V7.69797L18.1444 7.91035C18.2537 7.9692 18.3759 8 18.5 8H18.9189C20.2086 8 21.1194 6.73642 20.7115 5.51283L19.2885 5.98717C19.3726 6.23946 19.1848 6.5 18.9189 6.5H18.6891L12.3556 3.08965ZM14.5966 6L12 4.60182L9.40338 6H14.5966ZM9 15C8.58579 15 8.25 15.3358 8.25 15.75V20H5.25V14.5H18.75V20H15.75V15.75C15.75 15.3358 15.4142 15 15 15H9ZM14.25 20V16.5H12.75V20H14.25ZM11.25 20V16.5H9.75V20H11.25ZM16.25 9V7.5H14.75V9H16.25ZM13.25 9V7.5H10.75V9H13.25ZM9.25 9V7.5H7.75V9H9.25ZM6.26435 10.6585L6.3 10.5H17.7L17.7357 10.6585C17.9361 11.5493 18.3886 12.3617 19.0367 13H4.9633C5.61142 12.3617 6.06392 11.5493 6.26435 10.6585Z" fill="white"/>
</svg>
