<svg width="24" height="24" viewBox="0 0 24 24" fill="none" xmlns="http://www.w3.org/2000/svg">
<path fill-rule="evenodd" clip-rule="evenodd" d="M13.8658 3.56741C12.9397 2.45601 11.1416 2.88455 10.8163 4.29423L10.0548 7.59377C10.0184 7.75143 9.84414 7.83352 9.69942 7.76116L8.84482 7.33386C7.90567 6.86428 6.7673 7.32169 6.41415 8.31052L5.38178 11.2011C4.61796 13.3398 4.76034 15.6977 5.77596 17.7289C6.53929 19.2556 7.87783 20.4165 9.49711 20.9562L9.86548 21.079C11.251 21.5409 12.749 21.5409 14.1346 21.079L14.4643 20.9691C16.1083 20.4211 17.4673 19.2425 18.2423 17.6925L18.3122 17.5526C19.2711 15.6349 19.4289 13.4148 18.7509 11.3808C18.0345 9.2316 16.9224 7.23534 15.4721 5.49497L13.8658 3.56741ZM12.2778 4.63152C12.3243 4.43014 12.5812 4.36891 12.7135 4.52769L14.3198 6.45525C15.6504 8.05193 16.6706 9.88338 17.3278 11.8551C17.88 13.5118 17.7515 15.3199 16.9706 16.8818L16.9006 17.0217C16.6218 17.5794 16.2448 18.0747 15.7932 18.4872C16.1078 17.4455 15.9538 16.3162 15.3677 15.3952L13.4764 12.4231C12.7887 11.3425 11.2112 11.3425 10.5236 12.4231L8.63224 15.3952C8.04333 16.3206 7.8907 17.4563 8.2113 18.5022C7.76499 18.0963 7.39262 17.6081 7.1176 17.0581C6.28484 15.3926 6.1681 13.4593 6.79439 11.7057L7.82676 8.81502C7.87721 8.67376 8.03983 8.60842 8.174 8.6755L9.0286 9.1028C10.0417 9.60933 11.2617 9.03468 11.5164 7.93105L12.2778 4.63152ZM11.7891 13.2284C11.8873 13.074 12.1127 13.074 12.2109 13.2284L14.1022 16.2005C14.465 16.7705 14.5515 17.4736 14.3379 18.1146C14.0832 18.8785 13.4388 19.4474 12.6493 19.6053L12.4936 19.6364C12.1678 19.7016 11.8322 19.7016 11.5063 19.6364L11.3507 19.6053C10.5611 19.4474 9.91671 18.8785 9.66209 18.1146C9.44843 17.4736 9.53499 16.7705 9.89774 16.2005L11.7891 13.2284Z" fill="white"/>
</svg>
