<svg width="24" height="24" viewBox="0 0 24 24" fill="none" xmlns="http://www.w3.org/2000/svg">
<path fill-rule="evenodd" clip-rule="evenodd" d="M12 16.75C11.3096 16.75 10.75 17.3096 10.75 18C10.75 18.6904 11.3096 19.25 12 19.25C12.6904 19.25 13.25 18.6904 13.25 18C13.25 17.3096 12.6904 16.75 12 16.75ZM9.25 18C9.25 16.4812 10.4812 15.25 12 15.25C13.5188 15.25 14.75 16.4812 14.75 18C14.75 19.5188 13.5188 20.75 12 20.75C10.4812 20.75 9.25 19.5188 9.25 18Z" fill="white"/>
<path fill-rule="evenodd" clip-rule="evenodd" d="M12 12.75C10.372 12.75 8.95659 13.6651 8.24222 15.0125L6.91696 14.3099C7.8811 12.4914 9.79499 11.25 12 11.25C14.205 11.25 16.1189 12.4914 17.0831 14.3099L15.7578 15.0125C15.0434 13.6651 13.628 12.75 12 12.75Z" fill="white"/>
<path fill-rule="evenodd" clip-rule="evenodd" d="M12 8.75C9.19725 8.75 6.72065 10.1469 5.22852 12.2859L3.99828 11.4277C5.75891 8.90384 8.68627 7.25 12 7.25C15.3138 7.25 18.2411 8.90384 20.0018 11.4277L18.7715 12.2859C17.2794 10.1469 14.8028 8.75 12 8.75Z" fill="white"/>
<path fill-rule="evenodd" clip-rule="evenodd" d="M12 4.75C8.37585 4.75 5.15212 6.46287 3.09339 9.12629L1.9066 8.20894C4.23715 5.19386 7.89174 3.25 12 3.25C16.1083 3.25 19.7628 5.19386 22.0934 8.20894L20.9066 9.12629C18.8479 6.46287 15.6241 4.75 12 4.75Z" fill="white"/>
</svg>
