<svg width="24" height="24" viewBox="0 0 24 24" fill="none" xmlns="http://www.w3.org/2000/svg">
<path fill-rule="evenodd" clip-rule="evenodd" d="M10 6.25C9.58579 6.25 9.25 6.58579 9.25 7V10C9.25 10.4142 9.58579 10.75 10 10.75H14C14.4142 10.75 14.75 10.4142 14.75 10V7C14.75 6.58579 14.4142 6.25 14 6.25H10ZM10.75 9.25V7.75H13.25V9.25H10.75Z" fill="#131313"/>
<path fill-rule="evenodd" clip-rule="evenodd" d="M11.4466 2.39388C11.8058 2.27414 12.1942 2.27414 12.5534 2.39388L17.8442 4.15749C18.2845 4.30426 18.6485 4.61993 18.8561 5.03506L20.5652 8.45343C20.6867 8.69643 20.75 8.96437 20.75 9.23605V19.5C20.75 20.4665 19.9665 21.25 19 21.25H5C4.0335 21.25 3.25 20.4665 3.25 19.5V9.23605C3.25 8.96437 3.31325 8.69643 3.43475 8.45343L5.14394 5.03506C5.3515 4.61993 5.71548 4.30426 6.15579 4.15749L11.4466 2.39388ZM19 19.75H16.75V13.25H19.25V19.5C19.25 19.6381 19.1381 19.75 19 19.75ZM19.25 9.23605V11.75H4.75V9.23605C4.75 9.19724 4.75904 9.15896 4.77639 9.12425L6.48558 5.70588C6.51523 5.64657 6.56723 5.60148 6.63013 5.58051L11.9209 3.81691C11.9723 3.7998 12.0277 3.7998 12.0791 3.81691L17.3699 5.58051C17.4328 5.60148 17.4848 5.64657 17.5144 5.70588L19.2236 9.12425C19.241 9.15896 19.25 9.19724 19.25 9.23605ZM4.75 19.5V13.25H7.25V19.75H5C4.86193 19.75 4.75 19.6381 4.75 19.5ZM12 17.5607L14.1893 19.75H9.81068L12 17.5607ZM8.75 18.6893L10.9393 16.5L8.75 14.3107V18.6893ZM13.0607 16.5L15.25 18.6893V14.3107L13.0607 16.5ZM14.1893 13.25L12 15.4393L9.81066 13.25H14.1893Z" fill="#131313"/>
</svg>
