<svg width="24" height="24" viewBox="0 0 24 24" fill="none" xmlns="http://www.w3.org/2000/svg">
<path d="M18.1775 5.66864C18.5414 5.81269 18.7181 6.22572 18.571 6.58838L18.3331 7.17485C18.3182 7.21147 18.2765 7.22911 18.2399 7.21426C17.7159 7.00173 17.1188 7.25422 16.9063 7.77822L16.7348 8.20117C16.5791 8.58501 16.764 9.02239 17.1479 9.17807C17.5317 9.33376 17.9691 9.1488 18.1248 8.76496L18.145 8.7152C18.8094 8.76702 19.4593 8.38912 19.7231 7.73863L19.961 7.15216C20.4213 6.01727 19.8683 4.72474 18.7296 4.27395L17.6699 3.85443C16.5151 3.39728 15.2081 3.96018 14.7469 5.1133L14.6068 5.46345C14.4431 5.87264 14.4412 6.31321 14.5778 6.70714C13.0057 6.49684 11.4305 7.2364 10.5965 8.61103L4.30459 5.81462L3.69539 7.18534L12.6954 11.1853L13.3046 9.81462L11.9855 9.22835C12.6526 8.29876 13.8914 7.90976 14.9986 8.35881L15.3369 8.49605C15.7208 8.65173 16.1581 8.46677 16.3138 8.08293L16.4855 7.65963C16.6771 7.18717 16.5167 6.64498 16.0988 6.35291C15.9925 6.27863 15.9514 6.14093 15.9995 6.02053L16.1396 5.67039C16.294 5.2845 16.7313 5.09614 17.1178 5.24912L18.1775 5.66864Z" fill="#131313"/>
<path d="M2.74368 15.7048L17.1531 20.9446C18.7052 21.509 20.4438 20.9916 21.4347 19.6704L21.6 19.45L20.4 18.55L20.2347 18.7704C19.6401 19.5631 18.597 19.8736 17.6658 19.5349L15.175 18.6292L17.1522 15.8047C17.9076 14.7256 17.7906 13.2649 16.8798 12.3198L17.1671 11.6016C18.0606 12.6382 19.3699 13.25 20.7648 13.25H21V11.75H20.7648C19.6231 11.75 18.5653 11.151 17.9779 10.1721L17.6431 9.61411C17.4965 9.36977 17.2241 9.22962 16.9401 9.25238C16.6561 9.27513 16.4095 9.45688 16.3036 9.72144L15.3036 12.2214C15.1922 12.5 15.2575 12.8182 15.4697 13.0303L15.7832 13.3438C16.2121 13.7727 16.2712 14.4476 15.9233 14.9445L13.7155 18.0985L12.2357 17.5604L14.1103 14.9359C14.351 14.5988 14.273 14.1304 13.9359 13.8897L10.4359 11.3897L9.56406 12.6103L12.4538 14.6744L10.7724 17.0283L3.2563 14.2951L2.74368 15.7048Z" fill="#131313"/>
</svg>
